SplineFontDB: 3.0
FontName: CosmicSansNeueMonoBold
FullName: Cosmic Sans Neue Mono Bold
FamilyName: CosmicSansNeueMono
Weight: Bold
Copyright: Created by Jany Belluz with FontForge 2.0 (http://fontforge.sf.net)
UComments: "2013-9-13: Created." 
Version: 1.3
ItalicAngle: 0
UnderlinePosition: -192
UnderlineWidth: 96
Ascent: 1650
Descent: 398
LayerCount: 2
Layer: 0 0 "Back"  1
Layer: 1 0 "Fore"  0
XUID: [1021 607 50037791 3178130]
FSType: 8
OS2Version: 3
OS2_WeightWidthSlopeOnly: 0
OS2_UseTypoMetrics: 1
CreationTime: 1379052706
ModificationTime: 1385308972
PfmFamily: 49
TTFWeight: 700
TTFWidth: 5
LineGap: 350
VLineGap: 0
Panose: 2 11 8 9 2 2 4 3 2 4
OS2TypoAscent: 1700
OS2TypoAOffset: 0
OS2TypoDescent: -404
OS2TypoDOffset: 0
OS2TypoLinegap: 350
OS2WinAscent: 1658
OS2WinAOffset: 0
OS2WinDescent: 418
OS2WinDOffset: 0
HheadAscent: 1700
HheadAOffset: 0
HheadDescent: -404
HheadDOffset: 0
OS2Vendor: 'PfEd'
MarkAttachClasses: 1
DEI: 91125

StartChar: a
Encoding: 97 97 0
Width: 1100
VWidth: 6
Flags: W
HStem: -11 200<344.777 573.837> 470 200<371.793 626.784> 820 208<342.171 606.221>
VStem: 66 253<217.581 419.927> 662 244<275.679 431.841 623 758.896>
LayerCount: 2
Fore
SplineSet
906 316 m 2
 906 224 925 172 982 127 c 1
 869 -22 l 1
 817 18 783 29 741 101 c 1
 665 23 583 -11 401 -11 c 0
 230 -11 66 120 66 302 c 0
 66 392 96 479 155 540 c 0
 250 637 352 670 494 670 c 0
 558 670 624 649 662 623 c 1
 662 789 546 820 486 820 c 0
 371 820 312 760 258 683 c 1
 62 793 l 1
 158 975 316 1025 494 1028 c 1
 719 1028 906 893 906 655 c 2
 906 316 l 2
319 317 m 0
 319 219 388 189 452 189 c 0
 562 189 644 291 662 347 c 1
 662 394 l 1
 626 436 558 470 494 470 c 0
 428 470 319 427 319 317 c 0
EndSplineSet
Validated: 1
EndChar

StartChar: b
Encoding: 98 98 1
Width: 1100
VWidth: -2
Flags: W
HStem: -7 180<471.995 650.895> 813 200<446.383 640.479>
VStem: 132 245<274.508 742.95 933.594 1399.8> 708 255<235.51 731.081>
LayerCount: 2
Fore
SplineSet
963 459 m 0
 963 152 845 -7 594 -7 c 0
 470 -7 391 40 353 93 c 1
 353 51 309 -13 309 -13 c 1
 113 7 l 1
 123 73 132 160 132 243 c 0
 132 251 132 259 132 267 c 0
 132 516 131 877 131 1157 c 0
 131 1251 123 1335 116 1403 c 1
 363 1412 l 1
 372 1339 377 1243 377 1152 c 0
 377 1062 371 1007 353 930 c 1
 390 958 464 1013 578 1013 c 0
 850 1013 963 831 963 459 c 0
708 478 m 0
 708 741 635 813 543 813 c 0
 471 813 410 738 377 683 c 1
 377 349 l 1
 428 247 499 173 560 173 c 0
 668 173 708 288 708 478 c 0
EndSplineSet
Validated: 1
EndChar

StartChar: c
Encoding: 99 99 2
Width: 1100
VWidth: 4
Flags: W
HStem: -7 210<436.875 688.896> 807 211<443.703 711.653>
VStem: 91 256<305.761 702.322>
LayerCount: 2
Fore
SplineSet
347 528 m 0
 347 209 515 203 562 203 c 2
 574 203 l 2
 674 203 728 269 776 350 c 1
 1002 216 l 1
 934 66 802 -7 584 -7 c 0
 480 -7 357 1 261 73 c 1
 131 174 91 328 91 527 c 0
 91 867 269 1018 584 1018 c 0
 679 1018 776 999 839 957 c 0
 899 917 945 858 967 806 c 1
 747 704 l 1
 737 742 706 807 566 807 c 0
 419 807 347 671 347 528 c 0
EndSplineSet
Validated: 1
EndChar

StartChar: d
Encoding: 100 100 3
Width: 1100
VWidth: -2
Flags: W
HStem: -7 180<424.613 603.278> 813 200<436.098 628.902>
VStem: 113 255<235.51 735.573> 698 245<274.508 742.95 933.594 1399.8>
LayerCount: 2
Fore
SplineSet
113 459 m 0
 113 840 235 1013 498 1013 c 0
 612 1013 685 958 722 930 c 1
 704 1007 698 1062 698 1152 c 0
 698 1243 703 1339 712 1412 c 1
 960 1403 l 1
 953 1335 945 1251 945 1157 c 0
 945 877 943 516 943 267 c 0
 943 259 943 251 943 243 c 0
 943 160 953 73 963 7 c 1
 767 -13 l 1
 767 -13 722 51 722 93 c 1
 684 40 605 -7 481 -7 c 0
 230 -7 113 152 113 459 c 0
368 478 m 0
 368 288 408 173 516 173 c 0
 577 173 647 247 698 349 c 1
 698 683 l 1
 665 738 604 813 532 813 c 0
 440 813 368 741 368 478 c 0
EndSplineSet
Validated: 1
EndChar

StartChar: e
Encoding: 101 101 4
Width: 1100
VWidth: 32
Flags: W
HStem: -10 206<430.251 684.808> 434 196<424.825 696> 818 203<427.494 641.802>
VStem: 98 258<278.151 403.211 606 738.031> 696 261<630 763.58>
LayerCount: 2
Fore
SplineSet
529 1021 m 0
 848 1021 957 813 957 477 c 0
 957 457 956 434 956 434 c 1
 671 430 458 416 356 396 c 1
 372 285 436 196 528 196 c 0
 634 196 669 205 730 294 c 1
 930 166 l 1
 863 60 760 -10 521 -10 c 0
 235 -10 98 203 98 516 c 0
 98 802 246 1021 529 1021 c 0
356 606 m 1
 469 626 563 630 696 630 c 1
 691 761 619 818 531 818 c 0
 429 818 362 722 356 606 c 1
EndSplineSet
Validated: 1
EndChar

StartChar: f
Encoding: 102 102 5
Width: 1100
VWidth: -2
Flags: W
HStem: 807 205<119 262 519 834.016> 1217 201<544.522 809.055>
VStem: 262 257<0 807 1012 1188.92>
LayerCount: 2
Fore
SplineSet
661 1217 m 0
 529 1217 518 1143 518 1083 c 0
 518 1056 519 1012 519 1012 c 1
 587 1012 630 1012 703 1012 c 0
 808 1012 849 1000 879 991 c 1
 835 794 l 1
 814 801 793 807 737 807 c 2
 518 807 l 1
 519 0 l 1
 262 0 l 1
 262 807 l 1
 119 807 l 1
 119 1012 l 1
 262 1012 l 1
 262 1028 262 1045 262 1064 c 0
 262 1194 328 1418 644 1418 c 0
 840 1418 969 1376 1047 1221 c 1
 835 1124 l 1
 809 1206 751 1217 661 1217 c 0
EndSplineSet
Validated: 1
EndChar

StartChar: g
Encoding: 103 103 6
Width: 1100
VWidth: 14
Flags: W
HStem: -374 200<342.534 712.663> 18 202<358.696 728.022> 351 200<378.319 623.891> 838 204<382.408 634.152 890.701 984>
VStem: 100 247<237.136 368.246 583.407 800.345> 100 228<-159.13 15.8658> 665 246<586.44 806.444> 738 250<-151.059 3.3258>
LayerCount: 2
Fore
SplineSet
890 821 m 1xf8
 890 821 911 781 911 700 c 0
 911 483 807 351 527 351 c 2
 524 351 l 2
 449 351 404 359 374 369 c 1
 355 347 347 334 347 304 c 0xfa
 347 269 370 220 476 220 c 2
 639 220 l 2
 792 220 988 174 988 -27 c 0
 988 -250 898 -374 646 -374 c 0
 585 -374 542 -374 460 -374 c 0
 256 -374 100 -282 100 -67 c 0xf5
 100 34 134 88 187 135 c 1
 140 170 100 228 100 314 c 0
 100 415 139 455 176 496 c 1
 137 546 100 604 100 678 c 0
 100 913 261 1042 515 1042 c 0
 615 1042 711 1028 787 981 c 1
 836 1027 868 1042 984 1042 c 1
 984 838 l 1
 972 840 961 841 951 841 c 0
 917 841 905 836 890 821 c 1xf8
665 710 m 0
 665 806 590 838 504 838 c 0
 416 838 347 793 347 701 c 0
 347 581 415 551 505 551 c 0
 623 551 665 610 665 710 c 0
515 -174 m 0
 531 -174 546 -174 561 -174 c 0
 658 -174 738 -167 738 -55 c 0
 738 -14 716 19 602 19 c 2
 351 18 l 1
 328 -12 328 -43 328 -87 c 0xf5
 328 -167 402 -174 471 -174 c 0
 486 -174 501 -174 515 -174 c 0
EndSplineSet
Validated: 1
EndChar

StartChar: p
Encoding: 112 112 7
Width: 1100
VWidth: -2
Flags: W
HStem: -8 201<421.543 634.96> 811 200<436.354 656.024> 1002 20G<144.615 324.5>
VStem: 114 246<-398 58.1271 255.451 734.217> 701 256<261.255 768.3>
LayerCount: 2
Fore
SplineSet
114 739 m 1xd8
 114 765 l 2
 114 848 102 931 92 996 c 1
 320 1022 l 1xb8
 329 998 336 960 340 921 c 1
 396 983 480 1011 592 1011 c 0
 867 1011 957 819 957 551 c 0
 957 215 884 -8 522 -8 c 0
 422 -8 375 29 346 60 c 1
 350 20 357 -17 360 -61 c 1
 360 -152 l 2
 360 -246 367 -330 374 -398 c 1
 126 -405 l 1
 117 -332 112 -237 112 -146 c 2
 114 739 l 1xd8
701 531 m 0
 701 724 664 811 576 811 c 0xd8
 447 811 403 744 358 656 c 1
 360 311 l 1
 398 253 452 193 527 193 c 0
 642 193 701 264 701 531 c 0
EndSplineSet
Validated: 1
EndChar

StartChar: h
Encoding: 104 104 8
Width: 1100
VWidth: -2
Flags: W
HStem: 812 200<422.848 636.689>
VStem: 107 246<0 741.95 932.594 1398.8> 695 244<23.8544 749.663>
LayerCount: 2
Fore
SplineSet
939 566 m 2
 939 218 l 2
 939 136 946 61 967 22 c 1
 738 -32 l 1
 715 0 695 66 695 176 c 2
 694 491 l 2
 694 800 612 812 520 812 c 0
 448 812 386 737 353 682 c 1
 353 0 l 1
 107 0 l 1
 108 1156 l 2
 108 1250 99 1334 92 1402 c 1
 340 1411 l 1
 349 1338 354 1242 354 1151 c 0
 354 1061 348 1006 330 929 c 1
 367 957 440 1012 554 1012 c 0
 804 1012 939 888 939 566 c 2
EndSplineSet
Validated: 1
EndChar

StartChar: i
Encoding: 105 105 9
Width: 1100
VWidth: 0
Flags: W
HStem: -18 200<595.905 854.717> 813 200<104.449 334> 1184 225<312 603>
VStem: 312 291<1184 1409> 334 256<191.813 813>
LayerCount: 2
Fore
SplineSet
312 1409 m 1xf0
 603 1409 l 1
 603 1184 l 1
 312 1184 l 1
 312 1409 l 1xf0
EndSplineSet
Refer: 177 305 N 1 0 0 1 -40 0 2
Validated: 1
EndChar

StartChar: j
Encoding: 106 106 10
Width: 1100
VWidth: 0
Flags: W
HStem: -389 201<429.489 645.649> -28 20<295.838 361> 813 200<441.45 672> 1181 225<630 921>
VStem: 630 291<1181 1406> 672 254<-163.515 813>
LayerCount: 2
Fore
SplineSet
630 1406 m 1xf8
 921 1406 l 1
 921 1181 l 1
 630 1181 l 1
 630 1406 l 1xf8
EndSplineSet
Refer: 319 567 N 1 0 0 1 64 0 2
Validated: 1
EndChar

StartChar: k
Encoding: 107 107 11
Width: 1100
VWidth: -2
Flags: W
HStem: 398 199<403.84 570.435> 813 204<516.154 689.449>
VStem: 154 249<0 398 617.945 719.977 898.492 1381.07> 699 255<609.816 804.907>
LayerCount: 2
Fore
SplineSet
403 0 m 1
 154 0 l 1
 154 1228 l 2
 154 1289 144 1342 131 1383 c 1
 375 1427 l 1
 384 1404 403 1359 403 1293 c 2
 403 1070 l 2
 403 1012 392 949 373 896 c 1
 373 896 490 1017 633 1017 c 0
 833 1017 954 929 954 734 c 0
 954 611 927 527 783 458 c 1
 886 422 915 348 947 242 c 0
 960 198 1010 161 1043 137 c 1
 851 -27 l 1
 721 23 687 129 651 255 c 0
 611 394 424 398 405 398 c 2
 403 398 l 1
 403 0 l 1
598 597 m 0
 688 597 699 657 699 730 c 0
 699 766 681 813 624 813 c 0
 551 813 403 685 403 685 c 1
 403 626 l 1
 419 623 559 597 598 597 c 0
EndSplineSet
Validated: 1
EndChar

StartChar: l
Encoding: 108 108 12
Width: 1100
VWidth: -2
Flags: W
HStem: -18 200<627.352 883.717> 1230 200<133.45 364>
VStem: 364 256<191.813 1230>
LayerCount: 2
Fore
SplineSet
364 1430 m 2
 618 1430 l 1
 618 1157 620 274 620 274 c 2
 620 210 636 182 728 182 c 0
 821 182 881 215 941 273 c 1
 1038 83 l 1
 952 12 801 -18 677 -18 c 0
 592 -18 501 -4 457 20 c 0
 372 67 364 147 364 206 c 2
 364 1230 l 1
 315 1230 224 1224 129 1202 c 1
 100 1388 l 1
 194 1416 284 1430 364 1430 c 2
EndSplineSet
Validated: 1
EndChar

StartChar: m
Encoding: 109 109 13
Width: 1100
VWidth: 4
Flags: W
HStem: 819 204<374.04 448.592 641.75 724.292>
VStem: 93 236<0 774.25> 449 156<0 786.466> 724 239<146.36 815.271>
LayerCount: 2
Fore
SplineSet
960 -32 m 1
 889 -18 724 -7 724 189 c 2
 724 191 l 1
 725 764 l 1
 723 806 716 818 687 818 c 0
 665 818 618 752 604 696 c 1
 605 0 l 1
 449 0 l 1
 449 767 l 2
 449 804 447 819 420 819 c 0
 396 819 350 756 329 650 c 1
 329 0 l 1
 93 0 l 1
 90 809 l 2
 90 902 73 945 56 994 c 1
 250 1061 l 1
 265 1029 273 996 280 959 c 1
 309 997 366 1023 428 1023 c 0
 502 1023 554 990 584 928 c 1
 609 969 658 1023 749 1023 c 2
 757 1023 l 2
 800 1023 865 1014 908 954 c 0
 951 894 963 834 963 739 c 2
 963 215 l 2
 963 164 1013 135 1054 119 c 1
 960 -32 l 1
EndSplineSet
Validated: 1
EndChar

StartChar: o
Encoding: 111 111 14
Width: 1100
VWidth: 6
Flags: W
HStem: -6 203<420.251 630.825> 830 202<423 643.518>
VStem: 92 252<282.644 737.435> 705 256<277.821 760.797>
LayerCount: 2
Fore
SplineSet
527 -6 m 2
 217 -6 92 184 92 464 c 0
 92 835 233 1032 525 1032 c 0
 722 1032 832 963 902 831 c 0
 943 752 961 639 961 543 c 0
 961 258 865 -6 529 -6 c 2
 527 -6 l 2
645 247 m 1
 692 299 705 403 705 530 c 0
 705 536 705 540 705 546 c 0
 703 703 668 830 540 830 c 0
 389 830 344 690 344 482 c 0
 344 316 407 197 528 197 c 1
 583 198 609 211 645 247 c 1
EndSplineSet
Validated: 1
EndChar

StartChar: n
Encoding: 110 110 15
Width: 1100
VWidth: 6
Flags: W
HStem: 819 207<459.788 650.643>
VStem: 120 252<0 737.647> 660 252<196.088 811.089>
LayerCount: 2
Fore
SplineSet
358 927 m 1
 414 977 510 1026 620 1026 c 0
 784 1026 912 960 912 796 c 2
 912 278 l 2
 912 212 962 190 1018 160 c 1
 902 -40 l 1
 780 -14 660 34 660 191 c 2
 658 699 l 2
 658 773 651 819 584 819 c 0
 521 819 456 781 371 707 c 1
 372 0 l 1
 120 0 l 1
 120 706 l 2
 120 884 112 910 88 1004 c 1
 320 1052 l 1
 330 1028 351 976 358 927 c 1
EndSplineSet
Validated: 1
EndChar

StartChar: q
Encoding: 113 113 16
Width: 1100
VWidth: -2
Flags: W
HStem: -8 201<414.04 627.743> 811 200<393.786 613.396> 1002 20G<724.5 904.385>
VStem: 92 256<261.255 768.3> 690 247<-391.314 58.1272 255.451 730.944> 710 247<-394.792 47.5938 923.319 997.635>
LayerCount: 2
Fore
SplineSet
936 739 m 1xb4
 937 -146 l 1
 937 -175 l 2
 937 -260 938 -358 953 -393 c 1
 717 -423 l 1
 698 -371 690 -246 690 -152 c 2
 690 -61 l 1
 693 -17 699 20 703 60 c 1
 674 29 627 -8 527 -8 c 0
 165 -8 92 215 92 551 c 0
 92 819 183 1011 458 1011 c 0xd8
 570 1011 654 983 710 921 c 1
 714 960 720 998 729 1022 c 1
 957 996 l 1
 947 931 936 848 936 765 c 2
 936 739 l 1xb4
348 531 m 0
 348 264 407 193 522 193 c 0
 597 193 652 253 690 311 c 1
 691 656 l 1
 646 744 603 811 474 811 c 0
 386 811 348 724 348 531 c 0
EndSplineSet
Validated: 1
EndChar

StartChar: r
Encoding: 114 114 17
Width: 1100
VWidth: 4
Flags: W
HStem: 836 203<592.571 739.445>
VStem: 194 252<0 657.599> 745 250<717 829.564>
LayerCount: 2
Fore
SplineSet
383 882 m 1
 458 980 561 1039 722 1039 c 0
 889 1039 995 937 995 747 c 2
 995 717 l 1
 742 715 l 1
 743 726 745 742 745 759 c 0
 745 796 735 836 679 836 c 0
 623 836 542 764 446 579 c 1
 446 0 l 1
 194 0 l 1
 194 722 l 2
 194 779 146 821 84 876 c 1
 232 1062 l 1
 293 1013 349 985 383 882 c 1
EndSplineSet
Validated: 1
EndChar

StartChar: s
Encoding: 115 115 18
Width: 1100
VWidth: 6
Flags: W
HStem: -20 202<369.399 637.558> 829 200<389.317 656.781>
VStem: 84 253<211.251 330> 132 254<700.474 817.573> 666 254<213.604 394.387>
LayerCount: 2
Fore
SplineSet
269 549 m 0xe8
 187 589 132 670 132 781 c 0
 132 967 322 1029 497 1029 c 0
 636 1029 789 1014 900 893 c 1
 723 730 l 1
 669 788 596 829 500 829 c 0
 418 829 386 807 386 768 c 0xd8
 386 739 392 719 420 701 c 1
 676 597 920 562 920 278 c 0
 920 116 776 28 669 0 c 1
 613 -13 553 -20 496 -20 c 0
 240 -20 84 115 84 330 c 1
 337 330 l 1
 337 222 385 182 494 182 c 0
 553 182 666 202 666 290 c 0
 666 349 645 382 596 415 c 1
 527 459 362 504 269 549 c 0xe8
EndSplineSet
Validated: 1
EndChar

StartChar: t
Encoding: 116 116 19
Width: 1100
VWidth: 0
Flags: W
HStem: -6 202<492.235 780.078> 812 204<459 887>
VStem: 198 252<236.379 812 1020 1254>
LayerCount: 2
Fore
SplineSet
450 436 m 1
 450 396 l 2
 450 262 489 214 573 200 c 0
 591 198 625 196 638 196 c 0
 703 196 733 210 758 224 c 0
 810 252 821 320 828 340 c 1
 1036 240 l 1
 1026 212 972 100 860 36 c 0
 802 2 725 -6 640 -6 c 0
 456 -6 308 16 237 164 c 0
 202 236 198 312 198 398 c 2
 198 440 l 1
 200 530 202 648 207 812 c 1
 193 812 l 2
 165 812 137 808 111 800 c 1
 94 1004 l 1
 118 1012 163 1016 196 1016 c 2
 211 1016 l 1
 211 1086 212 1190 212 1260 c 1
 463 1254 l 1
 463 1188 462 1088 461 1020 c 1
 570 1020 882 1016 890 1016 c 1
 887 812 l 1
 750 812 592 814 459 814 c 1
 453 648 454 536 450 436 c 1
EndSplineSet
Validated: 1
EndChar

StartChar: u
Encoding: 117 117 20
Width: 1100
VWidth: 6
Flags: W
HStem: -17 21G<869 916.628> 2 204<380.099 585.724> 1000 20G<164.857 353>
VStem: 115 245<220.841 876.355> 669 257<292.317 1000>
LayerCount: 2
Fore
SplineSet
901 -17 m 1xb8
 837 12 795 58 774 108 c 1
 699 31 612 5 462 2 c 1
 453 2 l 2
 301 2 115 53 115 229 c 0
 115 311 116 408 116 504 c 0
 116 720 113 935 94 992 c 1
 342 1020 l 1
 364 928 358 664 360 298 c 1
 372 231 391 206 476 206 c 1x78
 628 213 668 370 669 418 c 2
 670 1000 l 1
 927 1000 l 1
 926 306 l 1
 928 254 993 187 1044 166 c 1
 901 -17 l 1xb8
EndSplineSet
Validated: 1
EndChar

StartChar: v
Encoding: 118 118 21
Width: 1100
VWidth: 6
Flags: W
HStem: -8 21G<362 466> 996 20G<707 959.5>
VStem: 710 254<481.986 1016>
LayerCount: 2
Fore
SplineSet
236 1076 m 1
 406 793 490 508 558 251 c 1
 682 394 703 609 709 816 c 0
 710 835 710 860 710 885 c 0
 710 931 709 982 707 1016 c 1
 958 1016 l 1
 961 1000 964 880 964 822 c 0
 964 505 860 212 678 66 c 0
 607 9 570 -8 362 -8 c 1
 362 250 150 763 24 946 c 1
 236 1076 l 1
EndSplineSet
Validated: 1
EndChar

StartChar: w
Encoding: 119 119 22
Width: 1100
VWidth: 4
Flags: W
HStem: 0 214<327 434.608 644 730.645>
VStem: 124 231<210.565 850.177> 485 166<261.001 835> 791 234<279.057 1036>
LayerCount: 2
Fore
SplineSet
37 984 m 1
 268 1079 l 1
 353 847 354 660 355 488 c 0
 355 477 355 467 355 457 c 0
 355 363 338 241 327 209 c 1
 447 213 485 299 485 463 c 2
 485 835 l 1
 646 836 l 1
 646 836 651 758 651 593 c 0
 651 497 649 371 644 214 c 1
 646 214 647 214 649 214 c 0
 786 214 791 413 791 613 c 0
 791 629 791 645 791 661 c 0
 791 717 790 771 790 819 c 0
 790 891 777 1036 777 1036 c 1
 1023 1036 l 1
 1025 1004 1025 960 1025 916 c 0
 1025 886 1025 856 1025 829 c 0
 1025 676 1024 468 983 279 c 0
 947 115 819 0 600 0 c 2
 566 0 l 1
 566 0 548 66 542 153 c 1
 508 81 412 -12 215 -12 c 2
 209 -12 l 1
 163 -11 139 3 125 9 c 1
 123 23 123 47 123 78 c 0
 123 128 124 198 124 278 c 0
 124 445 118 659 83 835 c 0
 72 889 60 943 37 984 c 1
EndSplineSet
Validated: 1
EndChar

StartChar: x
Encoding: 120 120 23
Width: 1100
VWidth: 4
Flags: W
HStem: -4 229<877.491 1000>
VStem: 756 238<908.169 1038>
LayerCount: 2
Fore
SplineSet
954 864 m 0
 914 776 768 600 678 514 c 1
 758 411 882 256 904 243 c 0
 908 240 916 225 950 225 c 0
 968 225 986 228 1002 231 c 1
 1000 2 l 1
 982 -1 958 -4 940 -4 c 0
 898 -4 840 6 800 34 c 1
 728 81 622 213 536 331 c 1
 204 -42 l 1
 34 119 l 1
 398 523 l 1
 72 929 l 1
 254 1070 l 1
 544 683 l 1
 604 751 652 802 722 925 c 0
 742 960 752 1022 756 1039 c 1
 994 1038 l 1
 988 989 978 918 954 864 c 0
EndSplineSet
Validated: 1
EndChar

StartChar: y
Encoding: 121 121 24
Width: 1100
VWidth: 14
Flags: W
HStem: -376 202<188.108 393.529> 727 315<42.4717 159.269>
VStem: 26 251<-163.866 0> 701 253<535.75 1043>
LayerCount: 2
Fore
SplineSet
337 -174 m 0
 391 -174 480 6 500 100 c 1
 498 250 191 727 86 727 c 0
 66 727 52 727 42 726 c 1
 40 1041 l 1
 40 1041 100 1042 134 1042 c 0
 255 1042 608 535 630 406 c 1
 704 623 693 816 701 1043 c 1
 957 1043 l 1
 957 983 957 921 954 869 c 0
 936 489 803 112 631 -174 c 0
 556 -298 455 -376 296 -376 c 0
 83 -376 31 -173 26 0 c 1
 277 0 l 1
 280 -85 288 -174 337 -174 c 0
EndSplineSet
Validated: 1
EndChar

StartChar: z
Encoding: 122 122 25
Width: 1100
VWidth: 6
Flags: W
HStem: -9 21G<858.5 885.56> -9 21G<858.5 885.56> 13 203<422 878.911> 803 208<144 620>
LayerCount: 2
Fore
SplineSet
113 815 m 1xb0
 144 1017 l 1
 190 1012 301 1011 425 1011 c 0
 611 1011 827 1014 897 1016 c 1
 974 826 l 1
 941 793 474 397 422 210 c 1
 756 216 l 2
 758 216 760 216 762 216 c 0
 816 216 866 203 925 184 c 1
 881 -9 l 1
 836 4 819 13 754 13 c 2
 91 13 l 1
 91 33 l 2
 91 106 96 156 113 202 c 0
 192 416 420 642 620 806 c 1
 552 805 519 803 418 803 c 0
 293 803 170 806 113 815 c 1xb0
EndSplineSet
Validated: 1
EndChar

StartChar: A
Encoding: 65 65 26
Width: 1100
VWidth: 0
Flags: W
HStem: 306 243<410.988 669>
LayerCount: 2
Fore
SplineSet
440 1444 m 1
 675 1444 l 1
 1073 46 l 1
 801 -23 l 1
 713 306 l 1
 553 303 480 308 354 275 c 1
 257 -29 l 1
 1 41 l 1
 440 1444 l 1
669 549 m 1
 642 705 553 920 552 1088 c 1
 546 905 448 682 408 530 c 1
 471 544 582 544 669 549 c 1
EndSplineSet
Validated: 1
EndChar

StartChar: B
Encoding: 66 66 27
Width: 1100
VWidth: 0
Flags: W
HStem: 0 216<329 663.254> 693 216<335 515.208> 1224 220<334.666 533.065>
VStem: 70 266<212.905 693 909 1217.22> 559 271<955.769 1198> 748 271<306.217 614.669>
LayerCount: 2
Fore
SplineSet
504 695 m 0xf4
 453 695 456 693 379 693 c 2
 332 693 l 1
 330 429 330 301 329 216 c 1
 380 213 421 210 461 210 c 0
 493 210 524 212 561 216 c 0
 595 220 748 260 748 458 c 0
 748 645 630 695 504 695 c 0xf4
559 1103 m 2xf8
 559 1221 468 1224 444 1224 c 2
 440 1224 l 1
 423 1224 l 2
 382 1224 364 1222 332 1219 c 1
 335 1181 336 1139 336 1094 c 0
 336 1035 335 972 335 909 c 1
 347 909 360 909 375 909 c 0
 452 909 559 922 559 1094 c 2
 559 1103 l 2xf8
70 912 m 0
 70 1105 67 1284 58 1426 c 1
 143 1433 291 1444 410 1444 c 0
 416 1444 423 1444 429 1444 c 0
 662 1444 830 1345 830 1105 c 0xf8
 830 948 775 898 696 853 c 1
 867 804 1019 691 1019 445 c 0xf4
 1019 116 833 25 658 3 c 0
 617 -2 574 -5 533 -5 c 0
 455 -5 395 0 306 0 c 0
 293 0 281 0 266 0 c 2
 62 0 l 1
 62 216 70 450 70 912 c 0
EndSplineSet
Validated: 1
EndChar

StartChar: C
Encoding: 67 67 28
Width: 1100
VWidth: 0
Flags: W
HStem: -3 219<470.508 713.585> 1230 222<486.995 717.171>
VStem: 60 275<408.633 1010.91>
LayerCount: 2
Fore
SplineSet
595 1230 m 0
 474 1230 335 1082 335 685 c 0
 335 386 457 216 568 216 c 2
 583 216 l 2
 713 216 753 285 803 427 c 1
 1062 278 l 1
 984 106 805 -3 605 -3 c 2
 602 -3 l 2
 485 -3 347 24 248 126 c 1
 122 262 60 444 60 693 c 0
 60 975 144 1149 199 1234 c 0
 275 1352 418 1452 602 1452 c 0
 749 1452 932 1384 1024 1207 c 1
 780 1070 l 1
 728 1205 685 1230 595 1230 c 0
EndSplineSet
Validated: 1
EndChar

StartChar: D
Encoding: 68 68 29
Width: 1100
VWidth: 0
Flags: W
HStem: -11 223<341 605.657> 1228 222<346 557.506>
VStem: 81 265<216 1225.18> 738 280<352.904 951.789>
LayerCount: 2
Fore
SplineSet
74 140 m 1
 74 200 81 632 81 982 c 2
 81 1065 l 2
 81 1206 76 1340 67 1436 c 1
 152 1445 199 1450 303 1450 c 0
 588 1450 752 1361 881 1162 c 1
 969 1024 1018 829 1018 632 c 0
 1018 557 1010 482 996 410 c 0
 946 147 777 16 588 -3 c 0
 530 -8 477 -11 419 -11 c 0
 331 -11 191 -3 71 -3 c 1
 71 34 71 33 74 140 c 1
424 1228 m 2
 393 1228 l 2
 376 1228 364 1228 346 1225 c 1
 346 1216 346 1205 346 1195 c 0
 346 1174 346 1153 346 1130 c 0
 346 1061 346 1039 346 964 c 0
 346 630 342 323 341 216 c 1
 433 213 382 212 445 212 c 2
 448 212 l 2
 490 212 641 215 710 385 c 0
 730 434 738 533 738 593 c 0
 738 1008 627 1228 424 1228 c 2
EndSplineSet
Validated: 1
EndChar

StartChar: E
Encoding: 69 69 30
Width: 1100
VWidth: 0
Flags: W
HStem: -3 222<377 944.948> 704 221<379 734> 1219 223<379 934>
VStem: 108 271<219 704 925 1219>
LayerCount: 2
Fore
SplineSet
108 1438 m 1
 167 1442 240 1442 322 1442 c 0
 355 1442 389 1442 425 1442 c 2
 541 1442 l 2
 697 1442 840 1439 918 1439 c 2
 934 1439 l 1
 934 1219 l 1
 379 1219 l 1
 379 925 l 1
 734 925 l 1
 734 704 l 1
 379 704 l 1
 379 670 l 2
 379 444 377 305 377 219 c 1
 814 221 l 2
 873 221 945 251 945 251 c 1
 1021 34 l 1
 971 20 927 -3 824 -3 c 2
 108 -3 l 1
 108 1438 l 1
EndSplineSet
Validated: 1
EndChar

StartChar: F
Encoding: 70 70 31
Width: 1100
VWidth: 0
Flags: W
HStem: 700 235<397 744.162> 1215 228<397 948.737>
VStem: 123 274<3 698 933 1214>
LayerCount: 2
Fore
SplineSet
402 0 m 1
 123 3 l 1
 123 1443 l 1
 842 1443 l 2
 949 1443 996 1425 1032 1406 c 1
 950 1185 l 1
 923 1200 900 1214 797 1215 c 1
 723 1215 l 2
 614 1215 589 1215 397 1214 c 1
 397 933 l 1
 523 933 483 935 611 935 c 0
 705 935 776 916 818 896 c 1
 746 676 l 1
 707 695 655 700 608 700 c 0
 564 700 540 700 519 700 c 0
 487 700 465 700 397 698 c 1
 397 564 402 104 402 0 c 1
EndSplineSet
Validated: 1
EndChar

StartChar: G
Encoding: 71 71 32
Width: 1100
VWidth: 0
Flags: W
HStem: -9 225<431.726 677.482> 618 226<461.39 765> 1222 226<448.283 719.422>
VStem: 22 274<389.112 1004.99> 765 277<328.141 619>
LayerCount: 2
Fore
SplineSet
905 841 m 0
 953 841 998 845 1042 849 c 1
 1042 639 l 2
 1042 155 914 54 727 3 c 1
 680 -8 612 -9 568 -9 c 0
 186 -9 22 312 22 699 c 0
 22 963 77 1177 215 1319 c 1
 320 1417 440 1448 561 1448 c 2
 582 1448 l 1
 807 1443 961 1348 1040 1167 c 1
 795 1041 l 1
 757 1170 707 1222 568 1222 c 0
 392 1222 296 1002 296 687 c 0
 296 399 377 216 558 216 c 0
 739 216 765 408 765 619 c 1
 698 618 l 1
 623 618 551 613 457 576 c 1
 415 797 l 1
 516 837 625 844 731 844 c 0
 790 844 848 841 905 841 c 0
EndSplineSet
Validated: 1
EndChar

StartChar: H
Encoding: 72 72 33
Width: 1100
VWidth: 0
Flags: W
HStem: 653 234<338.771 710>
VStem: 64 269<0 630.414 856 1439> 710 268<0 653 887 1436>
LayerCount: 2
Fore
SplineSet
334 1441 m 1
 333 856 l 1
 430 879 492 887 618 887 c 2
 710 887 l 1
 710 1192 709 1256 709 1436 c 1
 978 1436 l 1
 978 0 l 1
 710 0 l 1
 710 653 l 1
 676 653 l 2
 523 653 457 649 333 621 c 1
 333 239 335 202 335 0 c 1
 64 0 l 1
 64 1439 l 1
 334 1441 l 1
EndSplineSet
Validated: 1
EndChar

StartChar: K
Encoding: 75 75 34
Width: 1100
VWidth: 0
Flags: W
HStem: -5 21G<89 360> 1435 20G<89 360>
VStem: 89 271<-5 563.372 949 1455>
LayerCount: 2
Fore
SplineSet
618 852 m 1
 744 722 1045 252 1099 102 c 1
 852 -35 l 1
 804 86 587 485 450 626 c 1
 450 626 392 558 360 480 c 1
 360 -5 l 1
 89 -5 l 1
 89 1455 l 1
 360 1455 l 1
 360 949 l 1
 468 1107 808 1460 847 1500 c 1
 1053 1307 l 1
 862 1160 681 933 618 852 c 1
EndSplineSet
Validated: 1
EndChar

StartChar: L
Encoding: 76 76 35
Width: 1100
VWidth: 0
Flags: W
HStem: -3 229<433 999.868>
VStem: 166 267<226 1444>
LayerCount: 2
Fore
SplineSet
166 -3 m 1
 166 1444 l 1
 433 1444 l 1
 433 226 l 1
 882 226 l 1
 944 229 956 233 1002 249 c 1
 1077 34 l 1
 1028 17 963 -3 884 -3 c 2
 166 -3 l 1
EndSplineSet
Validated: 1
EndChar

StartChar: M
Encoding: 77 77 36
Width: 1100
VWidth: 32
Flags: W
HStem: -5 21G<66 328 736.939 996>
VStem: 66 262<-5 951.87> 737 259<-5 951.863>
LayerCount: 2
Fore
SplineSet
66 1409 m 1
 280 1437 l 1
 360 1313 463 1112 528 909 c 1
 585 1107 683 1294 768 1439 c 1
 994 1417 l 1
 994 983 996 -5 996 -5 c 1
 737 -5 l 1
 735 650 l 2
 735 763 761 952 761 952 c 1
 695 818 622 641 610 601 c 1
 452 598 l 1
 452 598 345 864 295 952 c 1
 295 952 328 773 328 650 c 2
 328 -7 l 1
 66 -5 l 1
 66 1409 l 1
EndSplineSet
Validated: 1
EndChar

StartChar: N
Encoding: 78 78 37
Width: 1100
VWidth: 0
Flags: W
HStem: -3 21G<80 338> 1429 20G<732.5 993>
VStem: 80 257<-3 848> 732 257<0 107.6 549 1448>
LayerCount: 2
Fore
SplineSet
727 0 m 1
 633 282 478 609 337 848 c 1
 337 621 l 2
 337 295 338 166 338 -3 c 1
 80 -3 l 1
 80 1444 l 1
 301 1437 l 1
 433 1232 680 804 732 549 c 1
 724 848 l 1
 724 1055 728 1259 737 1449 c 1
 993 1448 l 1
 987 1323 985 1157 985 976 c 0
 985 724 989 441 989 185 c 0
 989 122 988 59 988 0 c 1
 727 0 l 1
EndSplineSet
Validated: 1
EndChar

StartChar: O
Encoding: 79 79 38
Width: 1100
VWidth: 0
Flags: W
HStem: -17 221<411.248 647.167> 1250 221<431.447 648.273>
VStem: 22 273<360.807 1033.6> 773 270<385.869 1052.82>
LayerCount: 2
Fore
SplineSet
361 310 m 0
 400 245 453 204 537 204 c 0
 627 204 682 271 717 355 c 1
 748 419 772 590 773 698 c 1
 773 716 l 2
 773 833 758 987 717 1092 c 0
 672 1208 617 1250 549 1250 c 0
 475 1250 432 1223 387 1146 c 0
 334 1056 295 910 295 645 c 0
 295 539 318 383 361 310 c 0
549 1471 m 1
 718 1471 1038 1392 1043 705 c 1
 1043 693 l 2
 1043 511 996 341 946 237 c 1
 867 77 709 -17 536 -17 c 0
 408 -17 252 27 167 138 c 0
 73 260 22 430 22 631 c 0
 22 1015 101 1188 175 1294 c 0
 244 1394 385 1468 549 1471 c 1
EndSplineSet
Validated: 1
EndChar

StartChar: P
Encoding: 80 80 39
Width: 1100
VWidth: 0
Flags: W
HStem: -11 21G<110 372> -11 21G<110 372> 479 227<372 657.331> 1218 230<375 690.936>
VStem: 110 262<-10 482 707 1212> 751 275<803.54 1159.38>
LayerCount: 2
Fore
SplineSet
372 -11 m 1xbc
 110 -10 l 1
 110 1439 l 1
 234 1439 274 1448 414 1448 c 0
 650 1448 829 1434 950 1280 c 0
 1007 1208 1026 1107 1026 1007 c 0
 1026 654 895 479 534 479 c 0
 484 479 429 480 372 482 c 1
 372 190 372 162 372 -11 c 1xbc
751 991 m 0
 751 1213 628 1218 542 1218 c 2
 532 1218 l 2
 468 1218 422 1213 375 1212 c 1
 375 1135 l 2
 375 931 372 707 372 707 c 1
 410 706 447 706 482 706 c 0
 604 706 751 737 751 991 c 0
EndSplineSet
Validated: 1
EndChar

StartChar: Q
Encoding: 81 81 40
Width: 1100
VWidth: 0
Flags: W
HStem: -199 235<820.726 1023> -3 219<415.903 594.152> 348 217<401.561 573.883> 1215 235<415.38 630.023>
VStem: 54 256<453.189 1070.27> 739 251<434.7 1070.98>
LayerCount: 2
Fore
SplineSet
595 230 m 1x7c
 595 230 595 233 595 234 c 0
 595 271 572 348 498 348 c 0
 464 348 422 335 394 294 c 1
 410 237 476 216 516 216 c 0
 523 216 528 216 533 216 c 0
 553 216 577 220 595 230 c 1x7c
513 565 m 0
 623 565 678 479 713 427 c 1
 729 471 739 586 739 744 c 0
 739 753 739 761 739 770 c 0
 739 871 737 983 688 1091 c 0
 653 1166 594 1215 518 1215 c 0
 383 1215 310 1052 310 770 c 0
 310 748 310 723 310 698 c 0
 310 609 312 506 335 447 c 1
 364 519 442 565 513 565 c 0
936 -199 m 0xbc
 815 -199 647 -133 620 9 c 1
 590 0 569 -3 527 -3 c 0x7c
 405 -3 292 44 209 134 c 1
 104 250 54 454 54 700 c 0
 54 930 84 1143 184 1279 c 0
 282 1412 385 1450 514 1450 c 0
 689 1450 812 1379 895 1222 c 0
 985 1052 990 878 990 755 c 0
 990 515 951 235 810 126 c 1
 822 45 839 37 923 36 c 1
 934 36 l 2
 973 36 998 41 1023 48 c 1
 1024 -193 l 1
 1001 -198 983 -199 936 -199 c 0xbc
EndSplineSet
Validated: 1
EndChar

StartChar: R
Encoding: 82 82 41
Width: 1100
VWidth: 0
Flags: W
HStem: 1225 223<351 639.46>
VStem: 96 257<0 608 819.744 1224> 742 275<844.508 1135.56>
LayerCount: 2
Fore
SplineSet
742 988 m 0
 742 1173 621 1225 417 1225 c 0
 390 1225 381 1225 351 1224 c 1
 353 837 l 1
 420 808 480 791 525 791 c 0
 528 791 530 791 533 791 c 0
 711 791 742 877 742 988 c 0
734 589 m 1
 816 454 920 298 979 226 c 1
 998 209 1048 169 1092 157 c 1
 961 -61 l 1
 900 -51 837 3 801 50 c 1
 699 169 533 473 474 578 c 1
 436 581 399 588 353 608 c 1
 354 0 l 1
 96 0 l 1
 96 1238 l 2
 96 1312 94 1364 90 1432 c 1
 134 1436 255 1448 319 1448 c 0
 582 1448 812 1440 940 1273 c 0
 990 1208 1017 1106 1017 1012 c 0
 1017 768 919 622 734 589 c 1
EndSplineSet
Validated: 1
EndChar

StartChar: S
Encoding: 83 83 42
Width: 1100
VWidth: 0
Flags: W
HStem: -10 228<385.581 685.597> 1219 229<375.762 629.287>
VStem: 29 279<293.283 458> 55 281<990.329 1182.54> 754 271<280.731 550.051>
LayerCount: 2
Fore
SplineSet
244 765 m 0xe8
 129 819 55 920 55 1097 c 0
 55 1337 226 1448 494 1448 c 0
 497 1448 501 1448 504 1448 c 0
 756 1448 962 1358 1009 1175 c 1
 722 1064 l 1
 674 1174 584 1219 510 1219 c 0
 420 1219 336 1179 336 1105 c 0xd8
 336 998 395 972 456 948 c 0
 585 896 659 886 798 820 c 1
 911 762 1025 648 1025 432 c 0
 1025 105 800 -10 548 -10 c 2
 528 -10 l 1
 157 0 29 211 29 460 c 1
 308 458 l 1
 308 302 373 218 533 218 c 0
 646 218 754 257 754 416 c 0
 754 535 679 596 596 634 c 0
 474 690 384 699 244 765 c 0xe8
EndSplineSet
Validated: 1
EndChar

StartChar: T
Encoding: 84 84 43
Width: 1100
VWidth: 0
Flags: W
HStem: -10 21G<374 647> -10 21G<374 647> 1219 226<42 374 647 955.961>
VStem: 374 273<-10 1219>
LayerCount: 2
Fore
SplineSet
374 -10 m 1xb0
 374 1219 l 1
 166 1219 122 1218 42 1218 c 1
 42 1443 l 1
 170 1443 647 1445 844 1445 c 0
 921 1445 995 1435 1020 1427 c 1
 956 1206 l 1
 956 1206 902 1219 839 1219 c 2
 647 1219 l 1
 647 -10 l 1
 374 -10 l 1xb0
EndSplineSet
Validated: 1
EndChar

StartChar: U
Encoding: 85 85 44
Width: 1100
VWidth: 0
Flags: W
HStem: -11 229<416.729 631.589> 1449 3G<71 345 732 908.613>
VStem: 72 265<317.26 1449> 729 269<342.441 1442.11>
LayerCount: 2
Fore
SplineSet
737 1472 m 1
 1003 1441 l 1
 996 1387 994 1349 994 1303 c 0
 994 1293 994 1282 994 1271 c 0
 994 1110 998 968 998 845 c 2
 998 780 l 2
 998 522 993 276 875 132 c 0
 789 26 653 -6 518 -11 c 1
 195 -11 91 173 72 497 c 0
 67 581 65 717 65 867 c 0
 65 1058 68 1274 74 1449 c 1
 345 1449 l 1
 341 1266 337 1016 337 810 c 0
 337 756 337 703 337 656 c 0
 337 586 338 528 343 488 c 0
 358 386 369 222 516 218 c 1
 726 228 729 470 729 783 c 0
 729 920 723 1082 723 1271 c 0
 723 1349 727 1403 737 1472 c 1
EndSplineSet
Validated: 1
EndChar

StartChar: V
Encoding: 86 86 45
Width: 1100
VWidth: 0
Flags: W
HStem: -4 21G<377.5 704> 1449 20G<781 889.349>
VStem: 390 314<0 202.361>
LayerCount: 2
Fore
SplineSet
390 -4 m 1
 365 210 104 1131 5 1380 c 1
 253 1477 l 1
 359 1197 448 771 551 361 c 1
 629 710 728 1193 834 1469 c 1
 1072 1383 l 1
 969 1126 723 222 704 0 c 1
 390 -4 l 1
EndSplineSet
Validated: 1
EndChar

StartChar: W
Encoding: 87 87 46
Width: 1100
VWidth: 0
Flags: W
HStem: 1442 20G<106.625 274.5 806.5 938.381>
VStem: 433 206<779.966 1077> 635 268<0 266.484>
LayerCount: 2
Fore
SplineSet
416 0 m 1xa0
 150 0 l 1
 105 189 62 1151 14 1430 c 1
 261 1462 l 1
 288 1252 294 1145 294 1075 c 0
 294 1034 292 1005 292 974 c 0
 292 503 294 472 326 343 c 1
 326 343 427 999 433 1077 c 1
 455 1077 488 1074 523 1074 c 0
 564 1074 609 1078 639 1094 c 1xc0
 677 881 733 348 733 348 c 1
 766 447 771 527 771 982 c 0
 771 1100 787 1258 826 1464 c 1
 1062 1422 l 1
 1007 1143 938 198 903 0 c 1
 635 0 l 1
 635 0 568 433 534 638 c 1
 485 387 421 13 416 0 c 1xa0
EndSplineSet
Validated: 1
EndChar

StartChar: X
Encoding: 88 88 47
Width: 1100
VWidth: 0
Flags: W
LayerCount: 2
Fore
SplineSet
835 1490 m 1
 1036 1364 l 1
 684 756 l 1
 864 460 913 281 1062 128 c 1
 885 -49 l 1
 725 114 701 226 541 495 c 1
 242 -59 l 1
 22 85 l 1
 385 730 l 1
 259 957 148 1155 1 1328 c 1
 205 1500 l 1
 342 1338 428 1165 536 974 c 1
 835 1490 l 1
EndSplineSet
Validated: 1
EndChar

StartChar: Y
Encoding: 89 89 48
Width: 1100
VWidth: 0
Flags: W
HStem: -7 21G<387 649>
VStem: 387 262<-7 710.005>
LayerCount: 2
Fore
SplineSet
387 -7 m 1
 387 150 l 2
 387 250 395 536 395 668 c 1
 312 791 70 1214 16 1332 c 1
 246 1486 l 1
 288 1400 447 1082 538 929 c 1
 641 1084 763 1403 803 1500 c 1
 1043 1352 l 1
 994 1247 731 765 657 656 c 1
 657 604 655 550 655 490 c 1
 652 343 649 187 649 140 c 2
 649 -7 l 1
 387 -7 l 1
EndSplineSet
Validated: 1
EndChar

StartChar: Z
Encoding: 90 90 49
Width: 1100
VWidth: 0
Flags: W
HStem: -3 240<417 970.841> 1220 228<94 707>
LayerCount: 2
Fore
SplineSet
130 -5 m 1
 30 148 l 1
 707 1220 l 1
 482 1220 214 1214 94 1214 c 1
 93 1443 l 1
 219 1443 663 1448 860 1448 c 0
 939 1448 987 1433 1007 1430 c 1
 1007 1428 1007 1425 1007 1422 c 0
 1007 1379 1024 1264 1024 1227 c 0
 1024 1224 1024 1221 1024 1219 c 1
 417 237 l 1
 788 235 l 2
 877 235 906 241 974 264 c 1
 1049 29 l 1
 1002 12 929 -3 850 -3 c 2
 595 -3 l 2
 372 -3 188 -5 138 -5 c 2
 130 -5 l 1
EndSplineSet
Validated: 1
EndChar

StartChar: I
Encoding: 73 73 50
Width: 1100
VWidth: 0
Flags: W
HStem: 5 234<142 385 654 891> 1212 231<146 385 654 896>
VStem: 385 269<239 1220>
LayerCount: 2
Fore
SplineSet
140 1443 m 1
 304 1447 409 1449 510 1449 c 0
 620 1449 726 1447 897 1445 c 1
 896 1215 l 1
 767 1215 754 1221 654 1221 c 1
 654 239 l 1
 702 239 686 239 740 239 c 0
 787 239 836 238 891 235 c 1
 892 -1 l 1
 803 4 738 5 672 5 c 0
 623 5 571 4 509 4 c 0
 431 4 305 -3 142 -3 c 1
 142 232 l 1
 231 236 271 238 331 238 c 2
 385 238 l 1
 385 1220 l 1
 316 1219 257 1219 146 1212 c 1
 140 1443 l 1
EndSplineSet
Validated: 1
EndChar

StartChar: J
Encoding: 74 74 51
Width: 1100
VWidth: 0
Flags: W
HStem: -9 231<355.058 518.304> 1208 235<313.302 574.127 850 1002>
VStem: 24 273<286.725 473> 602 273<329.991 1199.77>
LayerCount: 2
Fore
SplineSet
436 -9 m 0
 147 -9 26 234 24 474 c 1
 297 473 l 1
 303 306 360 222 429 222 c 0
 553 222 602 362 602 732 c 0
 602 838 584 1053 571 1206 c 1
 520 1206 501 1208 462 1208 c 1
 353 1205 340 1195 312 1188 c 1
 273 1419 l 1
 305 1427 337 1440 461 1443 c 1
 613 1443 841 1442 1005 1442 c 1
 1002 1206 l 1
 952 1206 902 1210 850 1210 c 1
 867 1012 875 854 875 717 c 0
 875 324 782 -9 436 -9 c 0
EndSplineSet
Validated: 1
EndChar

StartChar: zero
Encoding: 48 48 52
Width: 1100
VWidth: 0
Flags: W
HStem: -18 223<446.832 615.12> 1182 221<479.971 628.141>
VStem: 99 273<622.588 994.676> 714 272<361.245 776.746>
LayerCount: 2
Fore
SplineSet
199 1164 m 1
 261 1300 366 1403 552 1403 c 0
 729 1403 817 1312 882 1186 c 1
 948 1064 986 898 986 706 c 0
 986 514 950 341 887 210 c 1
 822 81 738 -18 549 -18 c 0
 366 -18 269 60 203 181 c 0
 137 302 99 466 99 659 c 0
 99 855 134 1030 199 1164 c 1
713 777 m 1
 405 355 l 1
 433 253 457 205 535 205 c 0
 669 205 714 473 714 724 c 0
 714 754 713 777 713 777 c 1
374 622 m 1
 674 1038 l 1
 641 1145 599 1182 550 1182 c 0
 434 1182 372 871 372 675 c 0
 372 650 374 622 374 622 c 1
EndSplineSet
Validated: 1
EndChar

StartChar: period
Encoding: 46 46 53
Width: 1100
VWidth: 26
Flags: W
HStem: 0 313<364 679>
VStem: 364 315<0 313>
LayerCount: 2
Fore
SplineSet
364 313 m 1
 679 313 l 1
 679 0 l 1
 364 0 l 1
 364 313 l 1
EndSplineSet
Validated: 1
EndChar

StartChar: comma
Encoding: 44 44 54
Width: 1100
VWidth: 26
Flags: W
VStem: 356 323<5 309> 469 210<-166.501 6>
LayerCount: 2
Fore
SplineSet
352 309 m 1x80
 678 311 l 1
 679 11 l 1
 679 8 l 2x80
 679 -189 592 -358 425 -434 c 1
 327 -253 l 1
 419 -202 469 -132 469 6 c 1x40
 356 5 l 1
 352 309 l 1x80
EndSplineSet
Validated: 1
EndChar

StartChar: ae
Encoding: 230 230 65
Width: 1100
VWidth: 6
Flags: W
HStem: 0 208<675.512 813.522> 4 158<293.037 409.008> 447 207<668 809.924> 508 153<299.122 436.124> 808 210<243.801 416.892 678.059 790.841>
VStem: 43 233<170.1 501.996> 438 230<213.337 447 654 789.913> 812 206<212.611 223.376 656.086 792.79>
LayerCount: 2
Fore
SplineSet
742 0 m 0xaf
 584 0 546 75 525 97 c 1
 495 63 435 4 332 4 c 0
 269 4 204 19 150 57 c 0
 69 114 43 211 43 309 c 0
 43 476 107 661 311 661 c 0x5f
 388 661 400 645 438 629 c 1
 438 726 433 808 327 808 c 2
 318 808 l 2
 265 808 247 788 218 702 c 1
 20 784 l 1
 90 970 202 1018 320 1018 c 0
 376 1018 422 1015 483 968 c 1
 502 952 521 928 533 909 c 1
 550 935 609 1018 711 1018 c 0
 912 1018 1010 796 1018 570 c 1
 1018 454 l 1
 920 450 782 447 700 447 c 0
 688 447 677 447 668 447 c 1
 666 274 l 1
 682 232 693 208 732 208 c 0
 807 208 820 244 826 290 c 1
 1016 218 l 1
 1016 218 967 0 742 0 c 0xaf
276 322 m 0
 276 214 304 162 342 162 c 0
 432 162 427 299 438 327 c 1
 438 474 l 1
 395 499 388 508 334 508 c 0
 301 508 276 423 276 322 c 0
668 675 m 2
 668 654 l 1x2f
 706 654 768 654 812 660 c 1
 806 764 781 808 722 808 c 0
 682 808 668 760 668 675 c 2
EndSplineSet
Validated: 1
EndChar

StartChar: exclam
Encoding: 33 33 68
Width: 1100
VWidth: 0
Flags: W
HStem: 0 270<370 720>
VStem: 370 350<0 270> 387 315<558.848 1376> 403 283<464 1280.94>
LayerCount: 2
Fore
SplineSet
370 270 m 1xc0
 720 270 l 1
 720 0 l 1
 370 0 l 1
 370 270 l 1xc0
702 1376 m 1xa0
 686 464 l 1
 403 462 l 1x90
 387 1376 l 1
 702 1376 l 1xa0
EndSplineSet
Validated: 1
EndChar

StartChar: quotesingle
Encoding: 39 39 70
Width: 1100
VWidth: -25
Flags: W
HStem: 1449 20G<558 730.5>
VStem: 569 323<1245.05 1430.78>
LayerCount: 2
Fore
SplineSet
569 1469 m 1
 892 1429 l 1
 867 1076 651 844 483 742 c 1
 351 915 l 1
 455 1033 547 1222 569 1469 c 1
EndSplineSet
Validated: 1
EndChar

StartChar: Aring
Encoding: 197 197 76
Width: 1100
VWidth: -8
Flags: W
HStem: 306 243<410.988 669> 1607 142<475.983 638.971>
VStem: 282 189<1490.24 1598.35> 643 190<1489.66 1598.35>
LayerCount: 2
Fore
SplineSet
557 1607 m 0
 504 1607 471 1576 471 1545 c 0
 471 1514 505 1482 557 1482 c 0
 609 1482 643 1514 643 1545 c 0
 643 1576 610 1607 557 1607 c 0
282 1545 m 0
 282 1661 410 1749 558 1749 c 0
 706 1749 833 1661 833 1545 c 0
 833 1467 779 1405 695 1373 c 1
 1073 46 l 1
 801 -23 l 1
 713 306 l 1
 553 303 480 308 354 275 c 1
 257 -29 l 1
 1 41 l 1
 418 1375 l 1
 336 1407 282 1469 282 1545 c 0
669 549 m 1
 642 705 553 920 552 1088 c 1
 546 905 448 682 408 530 c 1
 471 544 582 544 669 549 c 1
EndSplineSet
Validated: 1
EndChar

StartChar: ccedilla
Encoding: 231 231 81
Width: 1100
VWidth: 12
Flags: W
HStem: -431 172<413.653 626.298> -152 356<450.465 625.662> 807 211<443.703 711.653>
VStem: 91 256<305.887 702.322> 629 224<-252.692 -158.173>
LayerCount: 2
Fore
SplineSet
347 528 m 0
 347 209 515 204 562 204 c 2
 574 204 l 2
 674 204 728 269 776 350 c 1
 1002 216 l 1
 944 87 838 15 671 -3 c 1
 671 -24 670 -51 670 -53 c 1
 767 -58 853 -115 853 -229 c 0
 853 -359 739 -431 581 -431 c 0
 515 -431 423 -413 367 -377 c 1
 427 -230 l 1
 460 -248 505 -259 556 -259 c 0
 592 -259 626 -248 629 -210 c 1
 629 -208 l 2
 629 -179 606 -152 558 -152 c 0
 510 -152 477 -155 449 -165 c 1
 449 1 l 1
 383 10 317 31 261 73 c 1
 131 174 91 328 91 527 c 0
 91 867 269 1018 584 1018 c 0
 679 1018 776 999 839 957 c 0
 899 917 945 858 967 806 c 1
 747 704 l 1
 737 742 706 807 566 807 c 0
 419 807 347 671 347 528 c 0
EndSplineSet
Validated: 1
EndChar

StartChar: AE
Encoding: 198 198 82
Width: 1100
VWidth: 0
Flags: W
HStem: -5 227<730 997.971> 460 228<346 451> 700 227<679 905> 1214 227<637 1008>
LayerCount: 2
Fore
SplineSet
451 688 m 1
 419 1087 l 1
 346 681 l 1
 376 684 397 688 451 688 c 1
1059 35 m 1
 1010 8 942 -5 863 -5 c 2
 504 -5 l 1
 492 164 483 291 469 457 c 1
 450 459 435 460 420 460 c 0
 391 460 367 456 331 447 c 1
 251 -22 l 1
 1 49 l 1
 101 470 187 974 287 1442 c 1
 439 1439 l 1
 484 1441 541 1441 604 1441 c 0
 646 1441 690 1441 735 1441 c 2
 1008 1441 l 1
 1008 1216 l 1
 990 1216 l 2
 903 1216 915 1214 786 1214 c 2
 637 1214 l 1
 662 922 l 1
 716 923 705 927 794 927 c 2
 905 927 l 1
 905 700 l 1
 794 700 l 2
 708 700 726 696 679 695 c 1
 730 222 l 1
 895 222 l 2
 959 222 998 249 998 249 c 1
 1059 35 l 1
EndSplineSet
Validated: 1
EndChar

StartChar: Ccedilla
Encoding: 199 199 83
Width: 1100
VWidth: 6
Flags: W
HStem: -443 172<457.653 670.295> -164 380<494.969 669.418> 1230 222<486.995 717.171>
VStem: 60 275<408.633 1010.91> 673 224<-263.703 -169.173>
LayerCount: 2
Fore
SplineSet
595 1230 m 0
 474 1230 335 1082 335 685 c 0
 335 386 457 216 568 216 c 2
 583 216 l 2
 713 216 753 285 803 427 c 1
 1062 278 l 1
 999 138 868 40 714 8 c 1
 713 -7 713 -61 713 -64 c 1
 810 -69 897 -126 897 -240 c 0
 897 -370 783 -443 625 -443 c 0
 559 -443 467 -425 411 -389 c 1
 471 -241 l 1
 504 -259 548 -271 599 -271 c 0
 635 -271 670 -259 673 -221 c 1
 673 -219 l 2
 673 -190 649 -164 601 -164 c 0
 553 -164 520 -166 492 -176 c 1
 492 6 l 1
 405 21 317 54 248 126 c 1
 122 262 60 444 60 693 c 0
 60 975 144 1149 199 1234 c 0
 275 1352 418 1452 602 1452 c 0
 749 1452 932 1384 1024 1207 c 1
 780 1070 l 1
 728 1205 685 1230 595 1230 c 0
EndSplineSet
Validated: 1
EndChar

StartChar: quotedbl
Encoding: 34 34 92
Width: 1100
VWidth: -25
Flags: W
VStem: 222 308<974.452 1459.45> 656 308<972.452 1457.45>
LayerCount: 2
Fore
SplineSet
656 1357 m 0
 656 1392 652 1424 648 1457 c 1
 954 1478 l 1
 960 1437 964 1402 964 1359 c 0
 964 1091 922 909 834 777 c 1
 600 874 l 1
 642 937 656 1146 656 1357 c 0
222 1359 m 0
 222 1394 218 1426 214 1459 c 1
 520 1480 l 1
 526 1439 530 1404 530 1361 c 0
 530 1093 488 911 400 779 c 1
 166 876 l 1
 208 939 222 1148 222 1359 c 0
EndSplineSet
Validated: 1
EndChar

StartChar: numbersign
Encoding: 35 35 93
Width: 1100
VWidth: 6
Flags: W
HStem: 358 197<61.3235 184 432 554 808 966> 757 184<65.7927 236.196> 784 194<482 602 850 972>
LayerCount: 2
Fore
SplineSet
388 -19 m 1xa0
 150 -15 l 1
 157 98 165 191 184 358 c 1
 131 357 88 348 60 339 c 1
 14 521 l 1
 70 541 146 550 212 555 c 1
 227 635 229 699 238 778 c 1
 220 779 l 1
 155 775 105 770 70 757 c 1
 16 941 l 1xc0
 81 966 164 970 248 975 c 1
 270 1159 272 1189 280 1334 c 1
 309 1334 422 1332 460 1332 c 0
 479 1332 496 1332 510 1331 c 1
 503 1210 497 1122 482 978 c 1
 618 974 l 1
 637 1137 647 1203 666 1322 c 1
 894 1323 l 1
 869 1202 869 1136 850 978 c 1
 972 978 l 1
 972 780 l 1
 832 784 l 1
 808 557 l 1
 970 558 l 1
 966 362 l 1
 782 365 l 1
 760 168 749 98 740 -23 c 1
 510 -25 l 1
 521 87 534 185 554 361 c 1
 418 360 l 1
 403 210 388 -19 388 -19 c 1xa0
458 782 m 1
 432 558 l 1
 584 557 l 1
 602 778 l 1
 458 782 l 1
EndSplineSet
Validated: 1
EndChar

StartChar: dollar
Encoding: 36 36 94
Width: 1100
VWidth: 0
Flags: W
HStem: 58 197<612 686.128> 1428 20G<432.764 683>
VStem: 58 244<312.014 448> 82 256<891.324 1050.53> 733 252<296.631 525.647>
LayerCount: 2
Fore
SplineSet
612 255 m 1xc8
 681 272 733 315 733 412 c 0
 733 491 688 539 631 572 c 1
 612 255 l 1xc8
418 1067 m 1
 378 1052 339 1034 338 988 c 0
 338 986 338 985 338 983 c 0xd8
 338 921 376 890 408 871 c 1
 418 1067 l 1
258 703 m 0
 150 748 82 832 82 979 c 0xd8
 82 1161 213 1254 423 1270 c 1
 434 1448 l 1
 683 1434 l 1
 672 1257 l 1
 824 1228 938 1158 970 1045 c 1
 719 954 l 1
 718 991 688 1021 657 1028 c 1
 644 796 l 1
 683 784 724 770 774 748 c 0
 879 700 985 604 985 424 c 0
 985 174 810 73 600 58 c 1
 589 -136 l 1
 340 -121 l 1
 352 77 l 1
 137 131 58 279 58 448 c 1
 305 449 l 1
 303 434 302 420 302 408 c 0xe8
 302 340 332 310 373 296 c 1
 387 657 l 1
 347 668 306 682 258 703 c 0
EndSplineSet
Validated: 1
EndChar

StartChar: oe
Encoding: 339 339 95
Width: 1100
VWidth: 6
Flags: W
HStem: 0 208<307.936 409.937 676.337 816.003> 447 207<668 809.924> 812 205<324.571 418.82 674.614 790.442>
VStem: 44 228<235.387 754.4> 432 236<223.002 447 654 804.526>
LayerCount: 2
Fore
SplineSet
350 208 m 0
 402 208 430 279 430 338 c 2
 432 698 l 2
 432 720 428 812 356 812 c 0
 328 812 275 687 272 474 c 0
 272 468 272 462 272 456 c 0
 272 362 298 208 350 208 c 0
668 675 m 2
 668 654 l 1
 706 654 768 654 812 660 c 1
 806 764 789 808 711 808 c 0
 671 808 668 760 668 675 c 2
1016 218 m 1
 1016 218 931 0 728 0 c 0
 636 0 560 40 507 95 c 1
 483 63 430 0 356 0 c 0
 300 0 231 5 151 91 c 0
 48 202 44 380 44 459 c 0
 44 505 45 585 55 635 c 1
 76 758 138 1017 347 1017 c 0
 426 1017 465 990 506 954 c 0
 517 945 524 937 529 931 c 1
 552 968 596 1018 711 1018 c 0
 912 1018 1010 796 1018 570 c 1
 1018 454 l 1
 920 450 782 447 700 447 c 0
 688 447 677 447 668 447 c 1
 666 274 l 1
 682 232 693 208 732 208 c 0
 807 208 820 244 826 290 c 1
 1016 218 l 1
EndSplineSet
Validated: 1
EndChar

StartChar: bracketleft
Encoding: 91 91 96
Width: 1100
VWidth: 66
Flags: W
HStem: -259 207<602 902> 1277 206<602 865.949>
VStem: 338 264<-55 1265>
LayerCount: 2
Fore
SplineSet
864 1483 m 1
 892 1277 l 1
 811 1269 735 1269 602 1265 c 1
 602 -55 l 1
 679 -52 763 -52 778 -52 c 2
 788 -52 l 2
 838 -52 891 -57 902 -60 c 1
 908 -268 l 1
 883 -265 843 -259 772 -259 c 0
 713 -259 433 -261 340 -261 c 1
 340 -83 342 0 342 180 c 0
 342 270 341 391 340 570 c 0
 340 745 338 921 338 1052 c 2
 338 1473 l 1
 431 1473 709 1477 760 1477 c 1
 832 1480 841 1481 864 1483 c 1
EndSplineSet
Validated: 1
EndChar

StartChar: bracketright
Encoding: 93 93 97
Width: 1100
VWidth: 66
Flags: W
HStem: -259 207<181 481> 1277 206<217.051 482>
VStem: 482 264<-55 1265>
LayerCount: 2
Fore
SplineSet
219 1483 m 1
 242 1481 251 1480 323 1477 c 1
 374 1477 653 1473 746 1473 c 1
 746 1052 l 2
 746 921 744 745 744 570 c 0
 743 391 742 270 742 180 c 0
 742 0 744 -83 744 -261 c 1
 651 -261 370 -259 311 -259 c 0
 240 -259 200 -265 175 -268 c 1
 181 -60 l 1
 192 -57 245 -52 295 -52 c 2
 305 -52 l 2
 320 -52 404 -52 481 -55 c 1
 482 1265 l 1
 349 1269 272 1269 191 1277 c 1
 219 1483 l 1
EndSplineSet
Validated: 1
EndChar

StartChar: parenleft
Encoding: 40 40 98
Width: 1100
VWidth: 66
Flags: W
HStem: -262 250<746.789 912> 1250 234<724.03 913>
VStem: 225 269<303.165 962.945>
LayerCount: 2
Fore
SplineSet
913 1250 m 1
 911 1250 908 1250 906 1250 c 0
 643 1250 494 1067 494 616 c 0
 494 173 684 -11 913 -12 c 1
 912 -262 l 1
 552 -259 225 0 225 612 c 0
 225 1225 482 1471 913 1484 c 1
 913 1250 l 1
EndSplineSet
Validated: 1
EndChar

StartChar: parenright
Encoding: 41 41 99
Width: 1100
VWidth: 66
Flags: W
HStem: -262 250<167 332.211> 1250 234<166 354.97>
VStem: 585 269<303.165 962.945>
LayerCount: 2
Fore
SplineSet
166 1250 m 1
 166 1484 l 1
 597 1471 854 1225 854 612 c 0
 854 0 527 -259 167 -262 c 1
 166 -12 l 1
 395 -11 585 173 585 616 c 0
 585 1067 435 1250 172 1250 c 0
 170 1250 168 1250 166 1250 c 1
EndSplineSet
Validated: 1
EndChar

StartChar: hyphen
Encoding: 45 45 100
Width: 1100
VWidth: 6
Flags: W
HStem: 413 244<108 994>
LayerCount: 2
Fore
SplineSet
102 654 m 1
 147 656 197 657 247 657 c 0
 347 657 448 654 516 654 c 0
 557 654 596 654 635 654 c 0
 717 654 869 653 976 652 c 1
 994 652 l 1
 994 407 l 1
 976 407 l 1
 841 410 639 410 514 410 c 0
 471 410 380 413 280 413 c 0
 223 413 163 412 108 409 c 1
 108 531 l 1
 102 654 l 1
EndSplineSet
Validated: 1
EndChar

StartChar: plus
Encoding: 43 43 101
Width: 1100
VWidth: 6
Flags: W
HStem: 391 235<82 420 671 990>
VStem: 420 252<0 391 627 983>
LayerCount: 2
Fore
SplineSet
80 616 m 1
 128 625 158 626 223 626 c 0
 235 626 248 626 262 626 c 2
 422 626 l 1
 422 983 l 1
 668 984 l 1
 666 627 l 1
 792 627 846 625 908 625 c 0
 935 625 963 625 990 625 c 1
 990 391 l 1
 976 391 l 2
 970 391 881 391 671 394 c 1
 672 0 l 1
 420 0 l 1
 420 391 l 1
 387 391 358 391 331 391 c 0
 198 391 139 390 82 382 c 1
 80 616 l 1
EndSplineSet
Validated: 1
EndChar

StartChar: less
Encoding: 60 60 102
Width: 1100
VWidth: 4
Flags: W
LayerCount: 2
Fore
SplineSet
954 155 m 1
 788 -49 l 1
 764 -13 712 33 664 71 c 1
 569 150 162 377 136 395 c 1
 134 621 l 1
 291 750 603 976 736 1054 c 0
 766 1071 787 1085 822 1096 c 1
 952 889 l 1
 791 804 571 636 412 513 c 1
 555 412 874 279 954 155 c 1
EndSplineSet
Validated: 1
EndChar

StartChar: greater
Encoding: 62 62 103
Width: 1100
VWidth: 4
Flags: W
LayerCount: 2
Fore
SplineSet
132 158 m 1
 212 282 531 415 674 516 c 1
 515 639 295 807 134 892 c 1
 264 1099 l 1
 299 1088 320 1074 350 1057 c 0
 483 979 795 753 952 624 c 1
 950 398 l 1
 924 380 517 153 422 74 c 1
 374 36 322 -10 298 -46 c 1
 132 158 l 1
EndSplineSet
Validated: 1
EndChar

StartChar: slash
Encoding: 47 47 104
Width: 1100
VWidth: 60
Flags: W
HStem: 1448 20G<656.5 769.417>
LayerCount: 2
Fore
SplineSet
84 -50 m 1
 212 227 589 1112 724 1468 c 1
 942 1372 l 1
 804 1020 424 133 304 -149 c 1
 84 -50 l 1
EndSplineSet
Validated: 1
EndChar

StartChar: one
Encoding: 49 49 105
Width: 1100
VWidth: 0
Flags: W
HStem: -10 21G<545.961 822> -10 21G<545.961 822>
VStem: 546 276<-10 1020>
LayerCount: 2
Fore
SplineSet
563 1415 m 1xa0
 822 1366 l 1
 822 -10 l 1
 546 -10 l 1
 544 1020 l 1
 471 929 363 817 224 739 c 1
 70 968 l 1
 398 1133 554 1399 563 1415 c 1xa0
EndSplineSet
Validated: 1
EndChar

StartChar: two
Encoding: 50 50 106
Width: 1100
VWidth: 0
Flags: W
HStem: 0 230<447 999> 1172 226<420.448 669.166>
VStem: 100 273<925.638 1118.48> 716 264<864.23 1126.1>
LayerCount: 2
Fore
SplineSet
390 924 m 1
 121 880 l 1
 111 911 102 960 100 999 c 0
 100 1009 100 1017 100 1026 c 0
 100 1230 255 1398 529 1398 c 0
 818 1398 980 1279 980 990 c 0
 980 778 854 667 768 576 c 1
 709 517 447 290 447 230 c 1
 999 230 l 1
 999 0 l 1
 78 0 l 1
 78 32 76 67 76 102 c 0
 76 130 78 158 83 188 c 0
 102 292 187 400 303 508 c 1
 437 631 716 808 716 991 c 0
 716 1115 655 1172 545 1172 c 0
 466 1172 373 1125 373 1018 c 0
 373 991 377 959 390 924 c 1
EndSplineSet
Validated: 1
EndChar

StartChar: three
Encoding: 51 51 107
Width: 1100
VWidth: 0
Flags: W
HStem: -24 228<370.408 637.974> 664 214<365 556.864> 1201 212<376.498 614.402>
VStem: 647 272<961.584 1164.93> 714 276<280.283 554.695>
LayerCount: 2
Fore
SplineSet
59 358 m 1xe8
 328 358 l 1
 328 234 422 204 508 204 c 0
 636 204 714 305 714 406 c 0xe8
 714 524 666 569 608 606 c 1
 546 647 451 664 365 664 c 1
 365 878 l 1
 382 878 l 2
 520 878 647 942 647 1080 c 0
 647 1151 589 1201 488 1201 c 0
 372 1201 311 1085 292 1046 c 1
 71 1192 l 1
 76 1208 180 1413 480 1413 c 2
 491 1413 l 2
 745 1413 919 1336 919 1098 c 0xf0
 919 961 810 810 704 790 c 1
 900 727 990 586 990 404 c 0
 990 256 954 180 868 94 c 0
 791 17 670 -24 500 -24 c 0
 198 -24 59 140 59 358 c 1xe8
EndSplineSet
Validated: 1
EndChar

StartChar: four
Encoding: 52 52 108
Width: 1100
VWidth: 0
Flags: W
HStem: 421 225<359 633 908 1044>
VStem: 633 275<0 417 646 993 1282.81 1397>
LayerCount: 2
Fore
SplineSet
53 597 m 1
 89 646 556 1112 641 1397 c 1
 908 1400 l 1
 908 646 l 1
 1044 646 l 1
 1044 421 l 1
 908 421 l 1
 908 0 l 1
 633 0 l 1
 633 417 l 1
 149 415 l 1
 53 597 l 1
633 646 m 1
 633 993 l 1
 555 855 447 736 359 643 c 1
 633 646 l 1
EndSplineSet
Validated: 1
EndChar

StartChar: five
Encoding: 53 53 109
Width: 1100
VWidth: 0
Flags: W
HStem: -2 227<388.9 623.52> 759 204<399.718 618.415> 1165 213<417 886>
VStem: 710 280<317.178 658.717>
LayerCount: 2
Fore
SplineSet
505 759 m 0
 377 759 318 661 303 640 c 1
 100 725 l 1
 164 1378 l 1
 887 1376 l 1
 886 1165 l 1
 417 1165 l 1
 399 952 l 1
 399 952 443 963 526 963 c 0
 587 963 669 958 742 923 c 1
 861 860 990 757 990 479 c 0
 990 139 763 0 506 -2 c 1
 504 -2 l 2
 303 -2 162 79 76 250 c 1
 320 368 l 1
 350 285 416 225 504 225 c 0
 600 225 710 294 710 482 c 0
 710 653 614 759 505 759 c 0
EndSplineSet
Validated: 1
EndChar

StartChar: six
Encoding: 54 54 110
Width: 1100
VWidth: 0
Flags: W
HStem: -3 217<422.328 647.327> 599 215<419.304 652.747> 1181 242<664.433 773.377>
VStem: 70 281<294.973 540.721> 713 272<278.069 535.445>
LayerCount: 2
Fore
SplineSet
351 489 m 1
 351 351 398 214 529 214 c 0
 620 214 713 285 713 393 c 0
 713 519 635 599 564 599 c 0
 452 599 400 559 351 489 c 1
827 1181 m 1
 633 1160 480 1070 409 902 c 0
 382 836 367 752 365 721 c 1
 365 721 436 814 564 814 c 0
 846 814 985 641 985 394 c 0
 985 123 803 -3 522 -3 c 0
 243 -3 70 214 70 507 c 0
 70 994 301 1350 770 1423 c 1
 827 1181 l 1
EndSplineSet
Validated: 1
EndChar

StartChar: seven
Encoding: 55 55 111
Width: 1100
VWidth: 0
Flags: W
HStem: 1145 231<323.98 797>
VStem: 316 279<0 341.577>
LayerCount: 2
Fore
SplineSet
163 1382 m 1
 253 1382 369 1376 451 1376 c 0
 613 1376 789 1384 942 1384 c 2
 986 1384 l 1
 1093 1209 l 1
 774 708 595 486 595 0 c 1
 316 0 l 1
 316 435 488 721 797 1148 c 1
 704 1145 594 1145 497 1145 c 0
 430 1145 402 1145 335 1148 c 1
 333 1147 318 1077 314 1037 c 1
 42 1105 l 1
 62 1168 129 1311 163 1382 c 1
EndSplineSet
Validated: 1
EndChar

StartChar: eight
Encoding: 56 56 112
Width: 1100
VWidth: 0
Flags: W
HStem: -10 227<410.597 680.964> 1167 216<411.667 664.118>
VStem: 59 276<289.693 547.878> 121 268<964.317 1143.97> 682 270<964.773 1144.28> 742 271<274.097 542.921>
LayerCount: 2
Fore
SplineSet
307 788 m 1xe4
 212 816 121 944 121 1054 c 0
 121 1255 285 1383 535 1383 c 0
 808 1383 952 1245 952 1061 c 0xd8
 952 929 846 817 750 790 c 1
 903 734 1013 599 1013 399 c 0
 1013 163 805 -10 551 -10 c 0
 274 -10 59 150 59 404 c 0
 59 599 176 732 307 788 c 1xe4
389 1059 m 0
 389 1010 426 943 536 899 c 1
 637 939 682 1002 682 1065 c 0
 682 1154 595 1167 539 1167 c 0
 488 1167 389 1161 389 1059 c 0
335 415 m 0xe4
 335 267 460 217 534 217 c 0
 640 217 742 256 742 412 c 0
 742 470 705 599 532 676 c 1
 391 612 335 502 335 415 c 0xe4
EndSplineSet
Validated: 1
EndChar

StartChar: nine
Encoding: 57 57 113
Width: 1100
VWidth: 0
Flags: W
HStem: -2 221<393.828 628.149> 624 215<409.956 680.904> 1183 210<402.466 640.474>
VStem: 74 274<903.362 1131.41> 742 271<349.554 675>
LayerCount: 2
Fore
SplineSet
74 1022 m 0
 74 1277 276 1393 514 1393 c 0
 936 1393 1013 1083 1013 689 c 0
 1013 342 929 0 522 -2 c 0
 521 -2 520 -2 519 -2 c 0
 259 -2 100 118 30 332 c 1
 298 422 l 1
 346 267 406 219 528 219 c 0
 676 219 742 378 742 622 c 0
 742 639 740 675 740 675 c 1
 711 654 653 624 515 624 c 0
 286 624 74 781 74 1022 c 0
522 1183 m 0
 404 1183 348 1098 348 1025 c 0
 348 909 435 839 533 839 c 0
 636 839 691 884 732 931 c 1
 715 1091 633 1183 522 1183 c 0
EndSplineSet
Validated: 1
EndChar

StartChar: equal
Encoding: 61 61 114
Width: 1100
VWidth: 6
Flags: W
HStem: 176 218<76 920> 627 222<74.6797 915>
LayerCount: 2
Fore
SplineSet
68 861 m 1
 211 852 322 849 416 849 c 0
 608 849 717 859 915 859 c 1
 917 639 l 1
 724 639 613 627 416 627 c 0
 320 627 212 634 67 643 c 1
 67 673 66 723 66 770 c 0
 66 805 67 839 68 861 c 1
74 394 m 1
 214 402 326 402 440 402 c 0
 618 402 752 394 920 394 c 1
 920 170 l 1
 746 170 602 174 420 174 c 0
 370 174 320 176 268 176 c 0
 208 176 144 174 76 170 c 1
 74 394 l 1
EndSplineSet
Validated: 1
EndChar

StartChar: backslash
Encoding: 92 92 115
Width: 1100
VWidth: 60
Flags: W
HStem: 1448 20G<258.167 371.5>
LayerCount: 2
Fore
SplineSet
942 -50 m 1
 724 -149 l 1
 604 133 222 1020 84 1372 c 1
 304 1468 l 1
 439 1112 814 227 942 -50 c 1
EndSplineSet
Validated: 1
EndChar

StartChar: asciicircum
Encoding: 94 94 116
Width: 1100
VWidth: -10
Flags: W
HStem: 424 677
LayerCount: 2
Fore
SplineSet
540 1101 m 1
 1045 588 l 1
 893 424 l 1
 547 774 l 1
 205 428 l 1
 57 582 l 1
 540 1101 l 1
EndSplineSet
Validated: 1
EndChar

StartChar: underscore
Encoding: 95 95 117
Width: 1100
VWidth: 41
Flags: W
HStem: -297 213<66 1012>
LayerCount: 2
Fore
SplineSet
66 -84 m 1
 1012 -84 l 1
 1012 -297 l 1
 62 -297 l 1
 66 -84 l 1
EndSplineSet
Validated: 1
EndChar

StartChar: grave
Encoding: 96 96 118
Width: 1100
VWidth: -25
Flags: W
VStem: 391 308<1069.75 1467.45>
LayerCount: 2
Fore
SplineSet
699 1367 m 0
 699 1156 765 943 806 880 c 1
 572 783 l 1
 485 915 391 1101 391 1369 c 0
 391 1412 395 1447 401 1488 c 1
 707 1467 l 1
 703 1434 699 1402 699 1367 c 0
EndSplineSet
Validated: 1
EndChar

StartChar: question
Encoding: 63 63 119
Width: 1100
VWidth: 0
Flags: W
HStem: 0 270<334 686> 1153 192<406.204 647.816>
VStem: 106 259<862.261 1110.04> 334 352<0 270> 369 272<431 613.093> 689 251<892.641 1110.38>
LayerCount: 2
Fore
SplineSet
521 1345 m 0xec
 778 1345 940 1217 940 991 c 0
 940 821 838 755 751 685 c 0
 693 638 641 567 641 479 c 2
 641 430 l 1
 369 431 l 1
 369 475 l 2
 369 621 467 734 536 795 c 0
 618 868 689 907 689 994 c 0
 689 1086 640 1153 531 1153 c 0
 429 1153 367 1104 365 995 c 0
 365 956 390 918 411 892 c 1
 193 743 l 1
 147 807 106 876 106 967 c 0
 106 1226 291 1345 521 1345 c 0xec
334 270 m 1xd4
 686 270 l 1
 686 0 l 1
 334 0 l 1
 334 270 l 1xd4
EndSplineSet
Validated: 1
EndChar

StartChar: asciitilde
Encoding: 126 126 120
Width: 1100
VWidth: -12
Flags: W
HStem: 375 210<659.392 807.546> 596 211<270.546 424.74>
LayerCount: 2
Fore
SplineSet
352 807 m 0
 582 807 640 585 730 585 c 0
 816 585 838 675 844 743 c 1
 1052 689 l 1
 1052 584 997 375 720 375 c 0
 496 375 457 596 345 596 c 0
 289 596 238 531 214 441 c 1
 32 551 l 1
 66 681 150 807 352 807 c 0
EndSplineSet
Validated: 1
EndChar

StartChar: Oslash
Encoding: 216 216 127
Width: 1100
VWidth: 0
Flags: W
HStem: -17 221<420.125 638.639> 1250 221<442.474 642.454>
VStem: 22 292<507.653 1048.07> 755 288<379.618 876.141>
LayerCount: 2
Fore
SplineSet
746 880 m 1
 634 671 513 447 410 257 c 1
 442 223 482 204 536 204 c 0
 619 204 670 271 703 355 c 1
 731 419 754 590 755 698 c 1
 755 716 l 2
 755 766 751 823 746 880 c 1
323 505 m 1
 439 716 565 953 674 1160 c 1
 638 1224 597 1250 548 1250 c 0
 480 1250 440 1223 398 1146 c 0
 349 1056 314 910 314 645 c 0
 314 604 317 554 323 505 c 1
142 175 m 1
 64 294 22 450 22 631 c 0
 22 1015 101 1188 175 1294 c 0
 244 1394 385 1468 549 1471 c 1
 617 1471 711 1458 798 1397 c 1
 828 1457 856 1511 878 1557 c 1
 1046 1446 l 1
 1017 1388 979 1317 937 1236 c 1
 999 1122 1041 952 1043 705 c 1
 1043 693 l 2
 1043 511 996 341 946 237 c 1
 867 77 709 -17 536 -17 c 0
 457 -17 369 -1 292 38 c 1
 256 -27 226 -82 203 -125 c 1
 36 -12 l 1
 63 35 100 99 142 175 c 1
EndSplineSet
Validated: 1
EndChar

StartChar: multiply
Encoding: 215 215 128
Width: 1100
VWidth: 6
Flags: W
LayerCount: 2
Fore
SplineSet
218 999 m 1
 302 940 434 780 519 693 c 1
 828 990 l 1
 1000 815 l 1
 690 519 l 1
 835 369 872 323 1000 191 c 1
 832 27 l 1
 694 177 761 104 526 353 c 1
 227 38 l 1
 52 219 l 1
 349 531 l 1
 210 674 105 793 50 835 c 1
 218 999 l 1
EndSplineSet
Validated: 1
EndChar

StartChar: oslash
Encoding: 248 248 140
Width: 1100
VWidth: 6
Flags: W
HStem: -6 203<418.711 630.825> 830 202<423.553 624.78>
VStem: 92 252<490 735.229> 705 256<277.821 585.258>
LayerCount: 2
Fore
SplineSet
627 802 m 1
 604 820 576 830 540 830 c 0
 391 830 345 693 344 490 c 1
 627 802 l 1
868 1067 m 1
 1018 927 l 1
 911 812 l 1
 945 735 961 631 961 543 c 0
 961 258 865 -6 529 -6 c 2
 527 -6 l 2
 402 -6 308 25 239 80 c 1
 166 0 l 1
 20 133 l 1
 124 248 l 1
 102 311 92 384 92 464 c 0
 92 835 233 1032 525 1032 c 0
 634 1032 715 1011 779 970 c 1
 868 1067 l 1
645 247 m 1
 692 299 705 403 705 530 c 0
 705 536 705 540 705 546 c 0
 705 560 705 573 704 586 c 1
 403 259 l 1
 433 220 475 197 528 197 c 0
 583 198 609 211 645 247 c 1
EndSplineSet
Validated: 1
EndChar

StartChar: plusminus
Encoding: 177 177 145
Width: 1100
VWidth: -6
Flags: W
HStem: 164 245<84 408 659 980> 629 235<70 408 659 978>
VStem: 408 251<411 629 865 1221>
LayerCount: 2
Fore
SplineSet
68 854 m 1
 116 863 146 864 211 864 c 0
 223 864 236 864 250 864 c 2
 410 864 l 1
 410 1221 l 1
 656 1222 l 1
 654 865 l 1
 780 865 834 863 896 863 c 0
 923 863 951 863 978 863 c 1
 978 629 l 1
 964 629 l 2
 958 629 869 629 659 632 c 1
 659 558 659 485 659 411 c 1
 752 411 881 410 962 409 c 1
 980 409 l 1
 980 164 l 1
 962 164 l 1
 827 167 587 167 462 167 c 0
 395 167 236 166 84 158 c 1
 84 280 l 1
 78 403 l 1
 191 409 312 411 408 411 c 1
 408 629 l 1
 375 629 346 629 319 629 c 0
 186 629 127 628 70 620 c 1
 68 854 l 1
EndSplineSet
Validated: 1
EndChar

StartChar: divide
Encoding: 247 247 146
Width: 1100
VWidth: 6
Flags: W
HStem: 2 282<376 691> 413 244<92 978> 758 280<376 691>
VStem: 376 315<2 284 758 1038>
LayerCount: 2
Fore
SplineSet
86 654 m 1
 131 656 181 657 231 657 c 0
 331 657 432 654 500 654 c 0
 541 654 580 654 619 654 c 0
 701 654 853 653 960 652 c 1
 978 652 l 1
 978 407 l 1
 960 407 l 1
 825 410 623 410 498 410 c 0
 455 410 364 413 264 413 c 0
 207 413 147 412 92 409 c 1
 92 531 l 1
 86 654 l 1
376 284 m 1
 691 284 l 1
 691 2 l 1
 376 2 l 1
 376 284 l 1
376 1038 m 1
 691 1038 l 1
 691 758 l 1
 376 758 l 1
 376 1038 l 1
EndSplineSet
Validated: 1
EndChar

StartChar: OE
Encoding: 338 338 149
Width: 1100
VWidth: 0
Flags: W
HStem: -9 223<364.47 458.363 721 988.81> 702 223<721 941> 1228 217<389.007 460 721 1011>
VStem: 13 270<324.156 1067.84> 459 262<226 702 925 1228>
LayerCount: 2
Fore
SplineSet
853 225 m 1
 915 227 944 236 991 253 c 1
 1060 35 l 1
 949 3 818 -1 701 -1 c 0
 652 -1 600 0 542 0 c 1
 524 -8 424 -9 408 -9 c 0
 87 4 13 317 13 651 c 0
 13 1126 115 1449 467 1449 c 0
 494 1449 524 1447 551 1442 c 1
 613 1445 679 1445 745 1445 c 0
 834 1445 925 1444 1011 1444 c 1
 1011 1228 l 1
 914 1228 923 1230 848 1230 c 0
 811 1230 770 1229 721 1228 c 1
 721 925 l 1
 941 925 l 1
 941 702 l 1
 721 702 l 1
 721 482 721 312 721 226 c 1
 853 225 l 1
459 217 m 1
 460 1228 l 1
 346 1228 283 1037 283 630 c 0
 283 384 339 214 440 214 c 0
 457 214 445 216 459 217 c 1
EndSplineSet
Validated: 1
EndChar

StartChar: yen
Encoding: 165 165 150
Width: 1100
VWidth: 0
Flags: W
HStem: -7 21G<387 649> 317 224<108 390 656 952> 706 225<820 947>
VStem: 387 262<-7 320 549 705.299>
LayerCount: 2
Fore
SplineSet
387 -7 m 1
 387 150 l 2
 387 187 389 251 390 322 c 1
 361 323 330 323 300 323 c 0
 240 323 176 321 108 317 c 1
 106 541 l 1
 214 547 306 549 394 549 c 1
 395 595 395 636 395 668 c 1
 388 679 379 691 370 706 c 1
 293 708 206 714 99 721 c 1
 99 751 98 801 98 848 c 0
 98 883 99 917 100 939 c 1
 148 936 193 933 235 931 c 1
 144 1088 47 1263 16 1332 c 1
 246 1486 l 1
 288 1400 447 1082 538 929 c 1
 641 1084 763 1403 803 1500 c 1
 1043 1352 l 1
 1014 1291 914 1103 820 935 c 1
 859 936 901 937 947 937 c 1
 949 717 l 1
 849 717 770 713 691 710 c 1
 677 687 666 669 657 656 c 1
 657 621 657 585 656 547 c 1
 754 545 846 541 952 541 c 1
 952 317 l 1
 846 317 751 319 652 320 c 1
 651 237 649 168 649 140 c 2
 649 -7 l 1
 387 -7 l 1
EndSplineSet
Validated: 1
EndChar

StartChar: Eth
Encoding: 208 208 152
Width: 1100
VWidth: 0
Flags: W
HStem: -11 223<341 605.657> 798 229<7 81 346 612> 1228 222<346 557.506>
VStem: 81 265<216 798 1027 1225.18> 738 280<352.904 951.789>
LayerCount: 2
Fore
SplineSet
81 1027 m 1
 81 1065 l 2
 81 1206 76 1340 67 1436 c 1
 152 1445 199 1450 303 1450 c 0
 588 1450 752 1361 881 1162 c 1
 969 1024 1018 829 1018 632 c 0
 1018 557 1010 482 996 410 c 0
 946 147 777 16 588 -3 c 0
 530 -8 477 -11 419 -11 c 0
 331 -11 191 -3 71 -3 c 1
 71 34 71 33 74 140 c 1
 74 190 80 495 81 798 c 1
 7 798 l 1
 7 1027 l 1
 81 1027 l 1
424 1228 m 2
 393 1228 l 2
 376 1228 364 1228 346 1225 c 1
 346 1216 346 1205 346 1195 c 0
 346 1174 346 1153 346 1130 c 0
 346 1085 346 1061 346 1027 c 1
 612 1027 l 1
 614 799 l 1
 346 798 l 1
 345 532 342 305 341 216 c 1
 433 213 382 212 445 212 c 2
 448 212 l 2
 490 212 641 215 710 385 c 0
 730 434 738 533 738 593 c 0
 738 1008 627 1228 424 1228 c 2
EndSplineSet
Validated: 1
EndChar

StartChar: currency
Encoding: 164 164 153
Width: 1100
VWidth: 6
Flags: W
HStem: 127 150<431.182 646.341> 745 150<432.888 649.614> 1002 20G<204 244.132>
VStem: 158 219<332.075 680.357> 691 223<322.212 666.935>
LayerCount: 2
Fore
SplineSet
188 677 m 1
 34 832 l 1
 224 1022 l 1
 376 871 l 1
 421 887 475 895 535 895 c 0
 607 895 665 886 713 869 c 1
 853 1009 l 1
 1044 818 l 1
 895 669 l 1
 908 625 914 577 914 533 c 0
 914 454 902 378 872 313 c 1
 1023 162 l 1
 832 -28 l 1
 662 141 l 1
 626 132 585 127 538 127 c 2
 536 127 l 2
 478 127 427 133 383 145 c 1
 218 -20 l 1
 28 171 l 1
 182 325 l 1
 166 369 158 420 158 475 c 0
 158 553 168 620 188 677 c 1
639 314 m 1
 680 352 691 430 691 524 c 0
 691 528 691 531 691 535 c 0
 690 651 660 745 548 745 c 0
 417 745 377 642 377 488 c 0
 377 365 432 277 537 277 c 1
 585 278 607 287 639 314 c 1
EndSplineSet
Validated: 1
EndChar

StartChar: sterling
Encoding: 163 163 154
Width: 1100
VWidth: 0
Flags: W
HStem: -16 204<623.389 804.048> -13 171<183 329.038> 666 200<134 292 570 881> 1149 202<521.372 692.047>
VStem: 85 165<160.087 271.749> 268 240<868.252 1140.42> 360 239<382.744 658.1> 806 228<194.17 266>
LayerCount: 2
Fore
SplineSet
881 670 m 1x7d
 807 661 724 661 626 661 c 2
 570 661 l 1
 588 568 598 495 599 385 c 0
 599 333 595 278 588 254 c 1
 657 210 694 188 742 188 c 0
 768 188 806 198 806 224 c 0
 806 229 806 262 806 267 c 1
 1034 266 l 1
 1034 213 l 1
 1030 77 930 -15 789 -16 c 0xbb
 671 -16 613 9 504 79 c 1
 442 -6 329 -13 242 -13 c 0
 124 -13 85 79 85 191 c 0
 85 327 160 456 256 456 c 0
 315 456 328 427 358 382 c 1
 360 402 360 407 360 429 c 0x7b
 359 535 351 568 332 664 c 1
 280 666 196 666 151 666 c 2
 134 666 l 1
 134 866 l 1
 292 866 l 1
 279 937 268 977 268 1043 c 0
 268 1248 409 1351 598 1351 c 0
 761 1351 885 1256 916 1129 c 1
 704 1075 l 1
 688 1137 642 1149 598 1149 c 0
 596 1149 594 1149 592 1149 c 0
 538 1149 508 1116 508 1051 c 0
 508 997 523 927 534 861 c 1
 628 864 l 2
 647 864 667 864 685 864 c 0
 759 864 825 865 881 871 c 1
 881 670 l 1x7d
330 193 m 1
 297 223 280 250 266 272 c 1
 260 267 250 239 250 218 c 0
 250 216 250 214 250 212 c 0
 252 170 263 158 272 158 c 0x79
 294 158 314 173 330 193 c 1
EndSplineSet
Validated: 1
EndChar

StartChar: cent
Encoding: 162 162 155
Width: 1100
VWidth: 6
Flags: W
HStem: -9 281<420.814 630.193> 742 291<424.293 629.645>
VStem: 145 212<340.725 670.848> 398 234<-9 117.429 893.889 1033>
LayerCount: 2
Fore
SplineSet
357 525 m 0
 357 276 497 272 536 272 c 2
 546 272 l 2
 629 272 673 323 713 386 c 1
 901 282 l 1
 853 183 767 126 632 111 c 1
 632 -9 l 1
 398 -9 l 1
 398 122 l 1
 359 131 320 146 286 170 c 0
 178 249 145 369 145 524 c 0
 145 731 235 847 398 889 c 1
 398 1033 l 1
 632 1033 l 1
 632 902 l 1
 683 895 731 881 766 859 c 0
 816 828 854 782 872 741 c 1
 689 662 l 1
 681 692 655 742 539 742 c 0
 417 742 357 637 357 525 c 0
EndSplineSet
Validated: 1
EndChar

StartChar: percent
Encoding: 37 37 156
Width: 1100
VWidth: 0
Flags: W
HStem: -14 193<681.695 786.182> 392 193<696.888 806.624> 722 193<249.695 357.495> 1128 193<264.182 374.624>
VStem: 21 215<924.375 1103.92> 385 225<940.689 1124.04> 453 215<188.375 371.011> 817 225<201.623 388.045>
LayerCount: 2
Fore
SplineSet
42 82 m 1xfb
 274 504 l 2
 370 679 508 788 543 853 c 1
 489 776 404 722 302 722 c 0
 145 722 21 855 21 1012 c 0
 21 1175 161 1318 324 1321 c 0
 326 1321 329 1321 331 1321 c 0
 490 1321 610 1206 610 1057 c 0
 610 1055 610 1052 610 1040 c 0xfd
 609 1013 602 975 589 939 c 1
 818 1376 l 1
 1042 1264 l 1
 811 837 l 1
 743 705 594 591 510 450 c 1
 566 529 657 583 756 585 c 0
 758 585 761 585 763 585 c 0
 922 585 1042 470 1042 321 c 0
 1042 319 1042 316 1042 314 c 0
 1038 152 913 -14 734 -14 c 0
 577 -14 453 119 453 276 c 0
 453 311 459 345 471 377 c 1
 266 -28 l 1
 42 82 l 1xfb
306 915 m 0
 338 915 385 989 385 1040 c 0
 385 1101 365 1125 319 1128 c 0
 318 1128 318 1128 317 1128 c 0
 285 1128 236 1058 236 1013 c 0
 236 959 266 915 306 915 c 0
738 179 m 0
 770 179 817 253 817 304 c 0
 817 365 797 389 751 392 c 0
 750 392 750 392 749 392 c 0
 717 392 668 322 668 277 c 0xfb
 668 223 698 179 738 179 c 0
EndSplineSet
Validated: 1
EndChar

StartChar: guillemotleft
Encoding: 171 171 157
Width: 1100
VWidth: 6
Flags: W
LayerCount: 2
Fore
SplineSet
44 576 m 1
 188 706 325 867 348 1007 c 1
 576 936 l 1
 536 747 400 624 275 515 c 1
 403 397 513 278 558 106 c 1
 340 19 l 1
 302 168 202 320 44 461 c 1
 44 576 l 1
448 566 m 1
 592 696 729 857 752 997 c 1
 980 925 l 1
 940 736 804 613 679 504 c 1
 807 386 917 267 962 95 c 1
 744 9 l 1
 706 158 606 310 448 451 c 1
 448 566 l 1
EndSplineSet
Validated: 1
EndChar

StartChar: section
Encoding: 167 167 159
Width: 1100
VWidth: 4
Flags: W
HStem: -285 200<405.853 593.723> 1168 200<432.355 620.147>
VStem: 58 247<583.07 724.786> 163 250<916.576 1146.22> 164 220<-58.2925 32> 614 250<-63.2206 166.424> 642 220<1051 1141.29> 722 247<360.047 499.984>
LayerCount: 2
Fore
SplineSet
204 883 m 1xe4
 204 883 163 923 163 1048 c 0
 163 1256 361 1362 514 1368 c 0
 520 1368 526 1368 532 1368 c 0
 732 1368 858 1236 862 1051 c 1
 642 1051 l 1xd2
 642 1132 586 1168 520 1168 c 0
 488 1168 413 1151 413 1054 c 0
 413 1051 413 1047 413 1043 c 0
 413 1001 416 940 476 901 c 0
 614 811 747 725 854 627 c 0
 948 541 969 504 969 408 c 0xd1
 969 291 914 238 836 180 c 1
 836 180 864 114 864 35 c 0
 864 -173 665 -279 512 -285 c 0
 506 -285 500 -285 494 -285 c 0
 294 -285 168 -153 164 32 c 1
 384 32 l 1xcc
 384 -49 440 -85 506 -85 c 0
 538 -85 614 -68 614 29 c 0
 614 32 614 36 614 40 c 0
 614 82 611 143 551 182 c 0
 413 272 280 358 173 456 c 0
 79 542 58 579 58 675 c 0
 58 816 204 883 204 883 c 1xe4
671 354 m 1
 718 382 722 396 722 429 c 1
 719 450 710 472 685 495 c 0
 568 603 436 679 356 729 c 1
 309 701 305 687 305 654 c 1xe1
 308 633 317 611 342 588 c 0
 458 482 552 428 662 361 c 1
 671 354 l 1
EndSplineSet
Validated: 1
EndChar

StartChar: braceleft
Encoding: 123 123 160
Width: 1100
VWidth: 66
Flags: W
HStem: -282 218<740.479 910> 1266 218<739.479 909>
VStem: 467 254<-36.2345 175.911 1022.54 1239.07> 538 251<132.291 388.518 813.105 1068.18>
LayerCount: 2
Fore
SplineSet
533 600 m 1xd0
 627 577 763 504 785 376 c 0
 788 361 789 345 789 330 c 0xd0
 789 229 737 134 723 54 c 0
 721 46 721 38 721 31 c 0
 721 -36 788 -58 914 -64 c 1
 910 -282 l 1
 777 -276 616 -274 523 -166 c 0
 482 -118 467 -66 467 -14 c 0xe0
 467 59 496 133 519 198 c 0
 532 234 538 264 538 290 c 0
 538 423 389 444 265 479 c 1
 264 592 l 1
 264 723 l 1
 388 758 537 778 537 911 c 0
 537 937 531 968 518 1004 c 0
 495 1069 466 1143 466 1216 c 0
 466 1268 481 1320 522 1368 c 0
 615 1476 776 1478 909 1484 c 1
 913 1266 l 1
 786 1261 720 1238 720 1170 c 0
 720 1163 721 1156 722 1148 c 0
 737 1068 788 974 788 872 c 0
 788 857 787 842 784 826 c 0
 762 698 627 623 533 600 c 1xd0
EndSplineSet
Validated: 1
EndChar

StartChar: bar
Encoding: 124 124 161
Width: 1100
VWidth: 66
Flags: W
VStem: 378 273<-194.108 1492>
LayerCount: 2
Fore
SplineSet
377 152 m 0
 377 517 368 1111 368 1399 c 2
 368 1492 l 1
 639 1492 l 1
 639 1347 l 2
 639 1070 651 558 651 224 c 2
 651 74 l 2
 651 -41 650 -97 645 -198 c 1
 373 -197 l 1
 377 -135 378 -92 378 -37 c 0
 378 10 377 66 377 152 c 0
EndSplineSet
Validated: 1
EndChar

StartChar: braceright
Encoding: 125 125 162
Width: 1100
VWidth: 66
Flags: W
HStem: -282 218<170 339.521> 1266 218<170 340.311>
VStem: 291 251<132.291 388.892 813.105 1068.18> 359 254<-36.1595 175.911 1022.54 1238.33>
LayerCount: 2
Fore
SplineSet
547 600 m 1xe0
 453 623 317 698 296 826 c 0
 293 842 292 857 292 872 c 0
 292 974 343 1068 358 1148 c 0
 359 1156 360 1163 360 1170 c 0
 360 1238 293 1261 167 1266 c 1
 170 1484 l 1
 304 1478 465 1476 558 1368 c 0
 599 1320 613 1268 613 1216 c 0xd0
 613 1143 585 1069 562 1004 c 0
 549 968 543 937 543 911 c 0
 543 778 692 758 816 723 c 1
 816 592 l 1
 815 479 l 1
 691 444 542 424 542 291 c 0xe0
 542 265 548 234 561 198 c 0
 584 133 613 59 613 -14 c 0
 613 -66 598 -118 557 -166 c 0
 464 -274 303 -276 170 -282 c 1
 166 -64 l 1
 293 -58 359 -36 359 32 c 0xd0
 359 39 358 46 357 54 c 0
 343 134 291 229 291 330 c 0
 291 345 292 361 295 376 c 0
 317 504 453 577 547 600 c 1xe0
EndSplineSet
Validated: 1
EndChar

StartChar: at
Encoding: 64 64 163
Width: 1100
VWidth: 6
Flags: W
HStem: -380 195<507.928 810.01> -9 218<518 735.628> 448 222<629.816 750.788> 825 204<555.195 745.813> 1178 207<446.248 680.375>
VStem: 43 209<201.526 872.599> 393 223<215.258 437.75> 768 225<233.408 433.1 629 789.488>
LayerCount: 2
Fore
SplineSet
768 629 m 1
 768 731 l 2
 768 778 708 825 645 825 c 0
 597 825 547 797 523 720 c 1
 356 797 l 1
 422 970 529 1029 625 1029 c 0
 692 1029 760 998 778 975 c 1
 778 975 731 1178 559 1178 c 0
 381 1178 252 905 252 518 c 0
 252 132 440 -185 629 -185 c 0
 702 -185 757 -158 789 -137 c 1
 882 -320 l 1
 836 -349 742 -380 626 -380 c 0
 305 -380 43 -71 43 538 c 0
 43 1120 276 1385 550 1385 c 0
 935 1385 993 998 993 705 c 2
 993 233 l 2
 993 150 1042 66 1042 66 c 1
 838 -22 l 1
 808 78 l 1
 808 78 760 -9 594 -9 c 0
 442 -9 393 156 393 308 c 0
 393 400 411 488 436 530 c 0
 498 636 574 667 642 670 c 0
 644 670 646 670 648 670 c 0
 690 670 746 643 768 629 c 1
681 209 m 0
 732 209 765 312 768 329 c 1
 768 377 l 1
 748 417 711 448 693 448 c 0
 653 448 616 414 616 333 c 2
 616 322 l 1
 618 227 639 209 681 209 c 0
EndSplineSet
Validated: 1
EndChar

StartChar: brokenbar
Encoding: 166 166 164
Width: 1100
VWidth: 66
Flags: W
VStem: 378 273<-194.108 539 779 1492>
LayerCount: 2
Fore
SplineSet
649 539 m 1
 650 426 651 318 651 224 c 2
 651 74 l 2
 651 -41 650 -97 645 -198 c 1
 373 -197 l 1
 377 -135 378 -92 378 -37 c 0
 378 10 377 66 377 152 c 0
 377 264 376 399 375 539 c 1
 649 539 l 1
373 779 m 1
 371 1018 368 1250 368 1399 c 2
 368 1492 l 1
 639 1492 l 1
 639 1347 l 2
 639 1202 642 993 645 779 c 1
 373 779 l 1
EndSplineSet
Validated: 1
EndChar

StartChar: copyright
Encoding: 169 169 165
Width: 1100
VWidth: 6
Flags: W
HStem: -336 155<407.115 630.91> -17 152<467.62 593.105> 859 174<470.844 580.197> 1202 153<411.498 610.866>
VStem: 54 136<166.256 850.907> 257 148<215.464 776.084> 625 127<164.445 238.402> 843 143<163.794 831.031>
LayerCount: 2
Fore
SplineSet
516 1355 m 0
 820 1355 986 962 986 506 c 0
 986 51 806 -336 516 -336 c 0
 217 -336 54 58 54 513 c 0
 54 969 228 1355 516 1355 c 0
516 1202 m 0
 350 1202 190 905 190 512 c 0
 190 120 336 -181 516 -181 c 0
 701 -181 843 118 843 510 c 2
 843 527 l 2
 843 912 653 1202 516 1202 c 0
501 1033 m 0
 502 1033 503 1033 504 1033 c 0
 511 1033 517 1035 529 1035 c 0
 605 1032 694 962 744 810 c 1
 603 753 l 1
 585 810 577 859 531 859 c 0
 455 859 405 689 405 510 c 0
 405 387 437 135 520 135 c 0
 582 135 605 182 625 273 c 1
 752 234 l 1
 712 93 653 -17 529 -17 c 0
 295 -17 257 328 257 487 c 0
 257 688 300 812 329 874 c 0
 365 952 428 1019 501 1033 c 0
EndSplineSet
Validated: 1
EndChar

StartChar: registered
Encoding: 174 174 166
Width: 1100
VWidth: 6
Flags: W
HStem: -336 155<407.115 630.91> 891 153<476 569.506> 1202 153<411.498 610.866>
VStem: 54 136<166.256 850.907> 327 149<12 381 528.507 891> 603 135<536.373 855.717> 843 143<163.794 831.031>
LayerCount: 2
Fore
SplineSet
516 1355 m 0
 820 1355 986 962 986 506 c 0
 986 51 806 -336 516 -336 c 0
 217 -336 54 58 54 513 c 0
 54 969 228 1355 516 1355 c 0
516 1202 m 0
 350 1202 190 905 190 512 c 0
 190 120 336 -181 516 -181 c 0
 701 -181 843 118 843 510 c 2
 843 527 l 2
 843 912 653 1202 516 1202 c 0
638 0 m 1
 596 82 534 316 508 378 c 1
 488 381 491 377 476 381 c 1
 476 254 477 203 477 148 c 0
 477 111 477 73 475 10 c 1
 327 12 l 1
 327 321 325 1007 325 1007 c 1
 367 1042 421 1039 473 1043 c 0
 481 1044 489 1044 497 1044 c 0
 668 1044 732 866 738 684 c 1
 738 570 718 433 652 392 c 1
 693 298 750 112 778 92 c 1
 638 0 l 1
601 722 m 0
 594 851 548 891 485 891 c 0
 482 891 479 891 476 891 c 1
 476 538 l 1
 498 531 517 528 532 528 c 0
 590 528 603 576 603 657 c 0
 603 677 602 698 601 722 c 0
EndSplineSet
Validated: 1
EndChar

StartChar: germandbls
Encoding: 223 223 167
Width: 1100
VWidth: 0
Flags: W
HStem: -2 201<608.188 724.684> 634 206<396 545.114> 1122 206<353.372 544.964>
VStem: 87 249<262.226 1105.34> 393 205<202.676 320> 574 244<869.297 1090.28> 748 244<211.003 528.796>
LayerCount: 2
Fore
SplineSet
87 1003 m 0xf4
 87 1159 203 1328 410 1328 c 0
 646 1328 818 1243 818 1009 c 0xf4
 818 886 773 815 690 779 c 1
 834 754 992 661 992 381 c 0
 992 76 864 -2 644 -2 c 0
 457 -2 393 95 393 298 c 0
 393 306 394 314 394 322 c 1
 598 320 l 1
 598 257 603 199 666 199 c 0
 720 199 748 247 748 395 c 0xfa
 748 504 684 634 396 634 c 1
 396 840 l 1
 561 840 574 905 574 1003 c 0
 574 1088 492 1122 433 1122 c 0
 366 1122 336 1073 336 1007 c 0
 336 851 341 637 341 450 c 0
 341 410 342 370 342 331 c 0
 342 251 339 176 319 117 c 0
 292 35 189 -9 133 -37 c 1
 41 211 l 1
 61 221 79 235 87 261 c 0
 95 287 96 323 96 398 c 0
 96 413 96 429 96 448 c 0
 96 635 87 829 87 1003 c 0xf4
EndSplineSet
Validated: 1
EndChar

StartChar: ampersand
Encoding: 38 38 168
Width: 1100
VWidth: 0
Flags: W
HStem: -22 203<343.014 607.596> 1146 201<360.604 508.451>
VStem: 50 250<221.045 532.717> 104 238<905.711 1128.68> 519 243<931.937 1136.14> 777 220<404.953 648.958>
LayerCount: 2
Fore
SplineSet
414 867 m 1xdc
 475 915 519 995 519 1056 c 0
 519 1099 495 1146 440 1146 c 0
 382 1146 342 1096 342 1053 c 0
 342 981 369 920 414 867 c 1xdc
375 573 m 1
 329 530 300 444 300 370 c 0xec
 300 285 328 181 443 181 c 0
 529 181 592 208 625 238 c 1
 375 573 l 1
748 94 m 1
 661 12 559 -22 439 -22 c 0
 231 -22 50 70 50 367 c 0xec
 50 559 149 670 257 758 c 1
 164 843 104 950 104 1037 c 0xdc
 104 1249 266 1347 446 1347 c 0
 613 1347 762 1280 762 1082 c 0
 762 890 652 784 542 700 c 1
 758 400 l 1
 771 417 777 446 777 483 c 0
 777 529 768 587 753 652 c 1
 997 652 l 1
 997 364 898 246 898 246 c 1
 1009 102 l 1
 842 -32 l 1
 748 94 l 1
EndSplineSet
Validated: 1
EndChar

StartChar: uni00B5
Encoding: 181 181 169
Width: 1100
VWidth: 6
Flags: W
HStem: -17 21G<869 916.628> 2 204<374.082 585.724> 1000 20G<164.857 353>
VStem: 116 244<-395 8 218.457 876.355> 669 257<292.317 1000>
LayerCount: 2
Fore
SplineSet
364 8 m 1x78
 360 -398 l 1
 110 -395 l 1
 115 229 l 2
 115 311 116 408 116 504 c 0
 116 720 113 935 94 992 c 1
 342 1020 l 1
 364 928 358 664 360 298 c 1
 372 231 391 206 476 206 c 1x78
 628 213 668 370 669 418 c 2
 670 1000 l 1
 927 1000 l 1
 926 306 l 1
 928 254 993 187 1044 166 c 1
 901 -17 l 1xb8
 837 12 795 58 774 108 c 1
 699 31 612 5 462 2 c 1
 453 2 l 2
 424 2 394 4 364 8 c 1x78
EndSplineSet
Validated: 1
EndChar

StartChar: paragraph
Encoding: 182 182 170
Width: 1100
VWidth: 0
Flags: W
HStem: -10 21G<712 929> -10 21G<712 929> 1112 216<608.716 717>
VStem: 56 544<672.495 1109.02> 372 230<76.3197 445.778> 717 212<-9 1112>
LayerCount: 2
Fore
SplineSet
717 1041 m 2xb4
 717 1112 l 1
 706 1112 650 1112 628 1112 c 0
 618 1112 608 1112 600 1112 c 1xb4
 600 816 602 520 602 224 c 0
 602 132 564 -2 526 -41 c 1
 320 61 l 1
 342 103 372 141 372 221 c 2
 372 440 l 1xac
 198 452 56 627 56 924 c 0
 56 1016 75 1108 129 1174 c 0
 244 1315 415 1328 640 1328 c 0
 773 1328 811 1320 929 1320 c 1
 929 -9 l 1
 712 -10 l 1
 712 332 717 604 717 1041 c 2xb4
EndSplineSet
Validated: 1
EndChar

StartChar: dieresis
Encoding: 168 168 173
Width: 1100
VWidth: -28
Flags: W
HStem: 1119 240<142 421 562 844>
VStem: 142 279<1119 1359> 562 282<1119 1356>
LayerCount: 2
Fore
SplineSet
142 1359 m 1
 421 1359 l 1
 421 1119 l 1
 142 1119 l 1
 142 1359 l 1
562 1359 m 1
 844 1356 l 1
 844 1116 l 1
 562 1119 l 1
 562 1359 l 1
EndSplineSet
Validated: 1
EndChar

StartChar: acute
Encoding: 180 180 174
Width: 1100
VWidth: -43
Flags: W
HStem: 1267 442
VStem: 219 566
LayerCount: 2
Fore
SplineSet
219 1441 m 1
 362 1489 536 1601 651 1709 c 1
 785 1537 l 1
 674 1425 452 1314 309 1267 c 1
 219 1441 l 1
EndSplineSet
Validated: 1
EndChar

StartChar: degree
Encoding: 176 176 175
Width: 1100
VWidth: -8
Flags: W
HStem: 1278 132<459.395 621.541> 1535 142<459.983 622.971>
VStem: 266 189<1419.88 1526.35> 627 190<1419.71 1526.35>
LayerCount: 2
Fore
SplineSet
266 1473 m 0
 266 1589 394 1677 542 1677 c 0
 690 1677 817 1589 817 1473 c 0
 817 1358 702 1278 542 1278 c 0
 389 1278 266 1359 266 1473 c 0
541 1535 m 0
 488 1535 455 1504 455 1473 c 0
 455 1442 489 1410 541 1410 c 0
 593 1410 627 1442 627 1473 c 0
 627 1504 594 1535 541 1535 c 0
EndSplineSet
Validated: 1
EndChar

StartChar: macron
Encoding: 175 175 176
Width: 1100
VWidth: -34
Flags: W
HStem: 1463 194<258 758>
VStem: 258 500<1463 1652>
LayerCount: 2
Fore
SplineSet
758 1657 m 1
 758 1463 l 1
 741 1463 l 1
 683 1461 585 1456 511 1456 c 0
 437 1456 344 1457 276 1459 c 1
 258 1460 l 1
 258 1657 l 1
 277 1655 l 1
 342 1653 457 1652 549 1652 c 0
 610 1652 696 1657 741 1657 c 2
 758 1657 l 1
EndSplineSet
Validated: 1
EndChar

StartChar: dotlessi
Encoding: 305 305 177
Width: 1100
VWidth: 0
Flags: W
HStem: -18 200<635.905 894.717> 813 200<144.449 374>
VStem: 374 256<191.813 813>
LayerCount: 2
Fore
SplineSet
374 1013 m 2
 629 1013 l 1
 629 740 630 274 630 274 c 2
 630 210 647 182 739 182 c 0
 832 182 892 215 952 273 c 1
 1049 83 l 1
 963 12 812 -18 688 -18 c 0
 603 -18 511 -4 467 20 c 0
 382 67 374 147 374 206 c 2
 374 813 l 1
 325 813 235 807 140 785 c 1
 111 971 l 1
 205 999 294 1013 374 1013 c 2
EndSplineSet
Validated: 1
EndChar

StartChar: asterisk
Encoding: 42 42 191
Width: 1100
VWidth: 0
Flags: W
LayerCount: 2
Fore
SplineSet
430 792 m 1
 386 1198 l 1
 680 1200 l 1
 650 792 l 1
 932 972 l 1
 1046 724 l 1
 684 610 l 1
 960 340 l 1
 740 164 l 1
 544 518 l 1
 342 160 l 1
 136 332 l 1
 398 612 l 1
 52 706 l 1
 142 966 l 1
 430 792 l 1
EndSplineSet
Validated: 1
EndChar

StartChar: ordfeminine
Encoding: 170 170 193
Width: 1100
VWidth: 6
Flags: W
HStem: 430 153<186 688> 659 108<340.49 499.335> 919 108<346.875 524.027> 1108 112<326.702 510.033>
VStem: 197 139<771.628 905.548> 525 134<795.021 908.124 1001 1090.43>
LayerCount: 2
Fore
SplineSet
688 583 m 1
 689 432 l 1
 672 432 l 1
 614 430 544 430 470 430 c 0
 443 430 416 430 389 430 c 0
 336 430 235 430 186 433 c 1
 185 585 l 1
 204 585 l 1
 269 583 415 583 507 583 c 0
 567 583 628 583 688 583 c 1
659 836 m 2
 659 786 669 758 700 734 c 1
 638 653 l 1
 609 675 591 680 568 719 c 1
 526 677 481 659 381 659 c 0
 287 659 197 730 197 828 c 0
 197 876 214 923 246 956 c 0
 298 1008 354 1027 432 1027 c 0
 467 1027 504 1015 525 1001 c 1
 525 1091 461 1108 428 1108 c 0
 365 1108 332 1076 302 1034 c 1
 195 1093 l 1
 248 1191 334 1218 432 1220 c 1
 556 1220 659 1148 659 1019 c 2
 659 836 l 2
336 836 m 0
 336 783 374 767 409 767 c 0
 469 767 515 822 525 852 c 1
 525 878 l 1
 505 900 467 919 432 919 c 0
 396 919 336 895 336 836 c 0
EndSplineSet
Validated: 1
EndChar

StartChar: logicalnot
Encoding: 172 172 194
Width: 1100
VWidth: 6
Flags: W
HStem: 413 244<108 746>
VStem: 746 250<180 410>
LayerCount: 2
Fore
SplineSet
102 654 m 1
 147 656 197 657 247 657 c 0
 347 657 448 654 516 654 c 0
 557 654 596 654 635 654 c 0
 717 654 869 653 976 652 c 1
 994 652 l 1
 994 496 l 1
 996 496 l 1
 996 180 l 1
 746 180 l 1
 746 410 l 1
 662 410 578 410 514 410 c 0
 471 410 380 413 280 413 c 0
 223 413 163 412 108 409 c 1
 108 531 l 1
 102 654 l 1
EndSplineSet
Validated: 1
EndChar

StartChar: uni00AD
Encoding: 173 173 195
Width: 1100
VWidth: 6
Flags: W
HStem: 448 152<173 927>
LayerCount: 2
Fore
SplineSet
167 592 m 1
 303 599 414 600 516 600 c 0
 557 600 596 600 635 600 c 0
 717 600 802 599 909 598 c 1
 927 598 l 1
 927 445 l 1
 909 445 l 1
 774 448 639 448 514 448 c 0
 447 448 325 447 173 439 c 1
 173 523 l 1
 167 592 l 1
EndSplineSet
Validated: 1
EndChar

StartChar: cedilla
Encoding: 184 184 198
Width: 1100
VWidth: 12
Flags: W
HStem: -398 172<434.653 647.295> -119 176<469 648.875>
VStem: 650 224<-218.703 -124.173>
LayerCount: 2
Fore
SplineSet
692 56 m 1
 691 48 690 -16 690 -19 c 1
 787 -24 874 -81 874 -195 c 0
 874 -325 760 -398 602 -398 c 0
 536 -398 444 -380 388 -344 c 1
 448 -196 l 1
 481 -214 525 -226 576 -226 c 0
 612 -226 647 -214 650 -176 c 1
 650 -174 l 2
 650 -145 626 -119 578 -119 c 0
 530 -119 497 -121 469 -131 c 1
 469 57 l 1
 692 56 l 1
EndSplineSet
Validated: 1
EndChar

StartChar: ordmasculine
Encoding: 186 186 200
Width: 1100
VWidth: 6
Flags: W
HStem: 430 153<186 688> 656 110<369.302 549.94> 1109 109<370.527 555.817>
VStem: 161 173<796.667 1073.76> 583 176<791.352 1085.37>
LayerCount: 2
Fore
SplineSet
460 656 m 2
 247 656 161 760 161 911 c 0
 161 1112 258 1218 459 1218 c 0
 594 1218 670 1180 718 1109 c 0
 746 1066 759 1005 759 953 c 0
 759 799 693 656 462 656 c 2
 460 656 l 2
541 793 m 1
 574 821 583 879 583 947 c 0
 583 950 583 952 583 955 c 0
 582 1040 557 1109 469 1109 c 0
 365 1109 334 1032 334 920 c 0
 334 830 378 766 461 766 c 0
 499 766 516 774 541 793 c 1
688 583 m 1
 689 432 l 1
 672 432 l 1
 614 430 544 430 470 430 c 0
 443 430 416 430 389 430 c 0
 336 430 235 430 186 433 c 1
 185 585 l 1
 204 585 l 1
 269 583 415 583 507 583 c 0
 567 583 628 583 688 583 c 1
EndSplineSet
Validated: 1
EndChar

StartChar: onequarter
Encoding: 188 188 201
Width: 1120
VWidth: 0
Flags: W
HStem: 229 123<640 789 938 1012>
VStem: 288 140<666 1215> 789 149<0 227 352 541 665.52 761>
LayerCount: 2
Fore
SplineSet
297 1425 m 1
 428 1399 l 1
 428 666 l 1
 288 666 l 1
 287 1215 l 1
 251 1166 196 1107 126 1065 c 1
 48 1187 l 1
 214 1275 292 1417 297 1425 c 1
474 325 m 1
 493 352 747 606 793 761 c 1
 938 763 l 1
 938 352 l 1
 1012 352 l 1
 1012 229 l 1
 938 229 l 1
 938 0 l 1
 789 0 l 1
 789 227 l 1
 526 226 l 1
 474 325 l 1
789 352 m 1
 789 541 l 1
 746 466 688 401 640 350 c 1
 789 352 l 1
92 85 m 1
 508 700 l 1
 805 1382 l 1
 997 1280 l 1
 605 649 l 1
 286 -32 l 1
 92 85 l 1
EndSplineSet
Validated: 1
EndChar

StartChar: onehalf
Encoding: 189 189 202
Width: 1120
VWidth: 0
Flags: W
HStem: 6 122<774 1065> 630 120<746.657 904.495>
VStem: 288 140<666 1215> 592 143<497.03 615.368> 916 139<434.598 621.16>
LayerCount: 2
Fore
SplineSet
297 1425 m 1
 428 1399 l 1
 428 666 l 1
 288 666 l 1
 287 1215 l 1
 251 1166 196 1107 126 1065 c 1
 48 1187 l 1
 214 1275 292 1417 297 1425 c 1
744 498 m 1
 603 474 l 1
 597 491 593 517 592 538 c 0
 592 543 592 547 592 552 c 0
 592 661 673 750 818 750 c 0
 970 750 1055 687 1055 533 c 0
 1055 420 989 361 944 313 c 1
 912 281 774 160 774 128 c 1
 1065 128 l 1
 1065 6 l 1
 580 6 l 1
 580 23 579 42 579 60 c 0
 579 75 580 90 583 106 c 0
 593 161 637 219 699 276 c 1
 769 342 916 436 916 534 c 0
 916 600 884 630 826 630 c 0
 784 630 735 605 735 548 c 0
 735 534 738 517 744 498 c 1
78 97 m 1
 494 712 l 1
 791 1394 l 1
 983 1292 l 1
 590 661 l 1
 272 -20 l 1
 78 97 l 1
EndSplineSet
Validated: 1
EndChar

StartChar: threequarters
Encoding: 190 190 203
Width: 1120
VWidth: 0
Flags: W
HStem: 229 123<640 789 938 1012> 650 123<158.106 333.644> 1022 116<169 295.854> 1313 115<157.104 313.133>
VStem: 6 143<784.354 857> 320 145<1164.88 1306.32> 356 147<795.101 982.07> 789 149<0 227 352 541 665.52 761>
LayerCount: 2
Fore
SplineSet
474 325 m 1xf9
 493 352 747 606 793 761 c 1
 938 763 l 1
 938 352 l 1
 1012 352 l 1
 1012 229 l 1
 938 229 l 1
 938 0 l 1
 789 0 l 1
 789 227 l 1
 526 226 l 1
 474 325 l 1xf9
789 352 m 1
 789 541 l 1
 746 466 688 401 640 350 c 1
 789 352 l 1
6 857 m 1
 149 857 l 1
 149 790 200 773 246 773 c 0
 314 773 356 828 356 883 c 0xfb
 356 947 330 971 299 991 c 1
 266 1013 215 1022 169 1022 c 1
 169 1138 l 1
 178 1138 l 2
 252 1138 320 1173 320 1247 c 0
 320 1286 289 1313 235 1313 c 0
 173 1313 140 1250 130 1229 c 1
 12 1308 l 1
 15 1317 70 1428 231 1428 c 2
 236 1428 l 2
 372 1428 465 1386 465 1257 c 0xfd
 465 1183 407 1101 350 1090 c 1
 455 1056 503 980 503 882 c 0xfb
 503 802 484 760 438 714 c 0
 397 672 332 650 241 650 c 0
 80 650 6 739 6 857 c 1
92 85 m 1
 508 700 l 1
 805 1382 l 1
 997 1280 l 1
 605 649 l 1
 286 -32 l 1
 92 85 l 1
EndSplineSet
Validated: 1
EndChar

StartChar: Aogonek
Encoding: 260 260 206
Width: 1100
VWidth: 32
Flags: W
HStem: -390 135<812.702 1028.27> 306 243<410.988 669>
VStem: 604 201<-242.648 -100.395>
LayerCount: 2
Fore
SplineSet
440 1444 m 1
 675 1444 l 1
 1073 46 l 1
 977 0 805 -97 805 -181 c 2
 805 -183 l 2
 805 -226 851 -255 895 -255 c 0
 953 -255 1001 -241 1034 -223 c 1
 1084 -314 l 1
 1028 -350 944 -390 853 -390 c 0
 769 -390 604 -345 604 -198 c 0
 604 -81 717 45 765 113 c 1
 713 306 l 1
 553 303 480 308 354 275 c 1
 257 -29 l 1
 1 41 l 1
 440 1444 l 1
669 549 m 1
 642 705 553 920 552 1088 c 1
 546 905 448 682 408 530 c 1
 471 544 582 544 669 549 c 1
EndSplineSet
Validated: 1
EndChar

StartChar: aogonek
Encoding: 261 261 207
Width: 1100
VWidth: 32
Flags: W
HStem: -388 136<808.702 1024.27> -11 200<344.777 573.837> 470 200<371.793 626.784> 820 208<342.171 606.221>
VStem: 66 253<217.581 419.927> 600 201<-239.682 -69.6309> 662 244<275.679 431.841 623 758.896>
LayerCount: 2
Fore
SplineSet
741 101 m 1xfc
 665 23 583 -11 401 -11 c 0
 230 -11 66 120 66 302 c 0
 66 392 96 479 155 540 c 0
 250 637 352 670 494 670 c 0
 558 670 624 649 662 623 c 1
 662 789 546 820 486 820 c 0
 371 820 312 760 258 683 c 1
 62 793 l 1
 158 975 316 1025 494 1028 c 1
 719 1028 906 893 906 655 c 2
 906 316 l 2xfa
 906 224 925 172 982 127 c 1
 924 32 801 -94 801 -178 c 2
 801 -180 l 2
 801 -223 847 -252 891 -252 c 0
 949 -252 997 -238 1030 -220 c 1
 1080 -312 l 1
 1024 -348 940 -388 849 -388 c 0
 765 -388 600 -342 600 -195 c 0
 600 -69 741 16 741 95 c 0
 741 97 741 99 741 101 c 1xfc
319 317 m 0
 319 219 388 189 452 189 c 0
 562 189 644 291 662 347 c 1
 662 394 l 1
 626 436 558 470 494 470 c 0
 428 470 319 427 319 317 c 0
EndSplineSet
Validated: 1
EndChar

StartChar: dcroat
Encoding: 273 273 209
Width: 1100
VWidth: -2
Flags: W
HStem: -7 180<424.613 603.278> 813 200<436.098 628.902> 1093 194<419 702 949 990>
VStem: 113 255<235.51 735.573> 698 246<733.217 742.95 1287 1403>
LayerCount: 2
Fore
SplineSet
113 459 m 0
 113 840 235 1013 498 1013 c 0
 612 1013 685 958 722 930 c 1
 709 989 702 1035 699 1093 c 1
 419 1093 l 1
 419 1287 l 1
 702 1287 l 1
 704 1332 707 1375 712 1412 c 1
 960 1403 l 1
 956 1368 952 1329 949 1287 c 1
 990 1287 l 1
 990 1093 l 1
 945 1093 l 1
 945 824 944 497 944 267 c 0
 944 259 944 251 944 243 c 0
 944 160 953 73 963 7 c 1
 767 -13 l 1
 767 -13 722 51 722 93 c 1
 684 40 605 -7 481 -7 c 0
 230 -7 113 152 113 459 c 0
368 478 m 0
 368 288 408 173 516 173 c 0
 577 173 647 247 698 349 c 1
 698 683 l 1
 665 738 604 813 532 813 c 0
 440 813 368 741 368 478 c 0
EndSplineSet
Validated: 1
EndChar

StartChar: dcaron
Encoding: 271 271 210
Width: 1100
VWidth: 32
Flags: W
HStem: -7 180<332.151 493.37> 813 200<342.514 516.492>
VStem: 50.9659 230.1<235.51 735.573> 578.842 221.076<274.508 742.95 933.594 1399.8> 845 193<1012 1347.59>
LayerCount: 2
Fore
SplineSet
1090 1391 m 1
 1069 1275 1060 1163 1038 1007 c 1
 845 1012 l 1
 844 1042 844 1072 844 1101 c 0
 844 1213 849 1320 853 1403 c 1
 1090 1391 l 1
EndSplineSet
Refer: 3 100 N 0.902353 0 0 1 -51 0 2
Validated: 1
EndChar

StartChar: Eogonek
Encoding: 280 280 214
Width: 1100
VWidth: 32
Flags: W
HStem: -403 135<811.702 1027.27> -3 222<377 659> 704 221<379 734> 1219 223<379 934>
VStem: 108 271<219 704 925 1219> 603 201<-255.648 -96.226>
LayerCount: 2
Fore
SplineSet
108 1438 m 1
 167 1442 240 1442 322 1442 c 0
 355 1442 389 1442 425 1442 c 2
 541 1442 l 2
 697 1442 840 1439 918 1439 c 2
 934 1439 l 1
 934 1219 l 1
 379 1219 l 1
 379 925 l 1
 734 925 l 1
 734 704 l 1
 379 704 l 1
 379 670 l 2
 379 444 377 305 377 219 c 1
 814 221 l 2
 873 221 945 251 945 251 c 1
 1021 34 l 1
 995 27 970 17 938 9 c 1
 880 -68 804 -119 804 -194 c 2
 804 -196 l 2
 804 -239 850 -268 894 -268 c 0
 952 -268 1000 -254 1033 -236 c 1
 1083 -327 l 1
 1027 -363 943 -403 852 -403 c 0
 768 -403 603 -358 603 -211 c 0
 603 -115 630 -53 659 -3 c 1
 108 -3 l 1
 108 1438 l 1
EndSplineSet
Validated: 1
EndChar

StartChar: eogonek
Encoding: 281 281 215
Width: 1100
VWidth: 32
Flags: W
HStem: -401 136<549.271 765.266> 434 196<424.825 696> 818 203<427.494 641.802>
VStem: 98 258<280.799 403.211 606 738.031> 341 200<-252.682 -92.9572> 696 261<630 763.58>
LayerCount: 2
Fore
SplineSet
356 606 m 1xf4
 469 626 563 630 696 630 c 1
 691 761 619 818 531 818 c 0
 429 818 362 722 356 606 c 1xf4
529 1021 m 0
 848 1021 957 813 957 477 c 0
 957 457 956 434 956 434 c 1
 671 430 458 416 356 396 c 1xf4
 372 285 436 196 528 196 c 0
 634 196 669 205 730 294 c 1
 930 166 l 1
 879 85 806 25 668 1 c 1
 611 -71 541 -119 541 -191 c 2
 541 -193 l 2
 541 -236 588 -265 632 -265 c 0
 690 -265 738 -251 771 -233 c 1
 821 -325 l 1
 765 -361 681 -401 590 -401 c 0
 506 -401 341 -355 341 -208 c 0xec
 341 -108 370 -46 400 5 c 1
 196 58 98 251 98 516 c 0
 98 802 246 1021 529 1021 c 0
EndSplineSet
Validated: 1
EndChar

StartChar: Iogonek
Encoding: 302 302 234
Width: 1100
VWidth: 32
Flags: W
HStem: -397 136<779.202 994.766> -3 235<142 385> 1212 231<146 385 654 896>
VStem: 385 269<239 1220> 571 200<-248.682 -90.0526>
LayerCount: 2
Fore
SplineSet
140 1443 m 1xf0
 304 1447 409 1449 510 1449 c 0
 620 1449 726 1447 897 1445 c 1
 896 1215 l 1
 767 1215 754 1221 654 1221 c 1
 654 239 l 1xf0
 702 239 686 239 740 239 c 0
 787 239 836 238 891 235 c 1
 891 180 892 -1 892 -1 c 1
 837 -69 771 -118 771 -187 c 2
 771 -189 l 2
 771 -232 817 -261 861 -261 c 0
 919 -261 967 -247 1000 -229 c 1
 1051 -321 l 1
 995 -357 911 -397 820 -397 c 0
 736 -397 571 -351 571 -204 c 0xe8
 571 -108 597 -48 626 2 c 1
 603 2 535 4 509 4 c 0
 431 4 305 -3 142 -3 c 1
 142 232 l 1
 231 236 271 238 331 238 c 2
 385 238 l 1
 385 1220 l 1
 316 1219 257 1219 146 1212 c 1
 140 1443 l 1xf0
EndSplineSet
Validated: 1
EndChar

StartChar: iogonek
Encoding: 303 303 235
Width: 1100
VWidth: 32
Flags: W
HStem: -376 136<822.271 1038.27> 813 200<144.449 374> 1181 225<351 642>
VStem: 351 291<1181 1406> 374 256<191.813 813> 614 200<-227.682 -68.3479>
LayerCount: 2
Fore
SplineSet
351 1406 m 1xf0
 642 1406 l 1
 642 1181 l 1
 351 1181 l 1
 351 1406 l 1xf0
374 1013 m 2xe8
 629 1013 l 1
 629 740 630 274 630 274 c 2xe8
 630 210 647 182 739 182 c 0
 832 182 892 215 952 273 c 1
 1049 83 l 1
 1019 58 981 38 939 23 c 1
 883 -47 814 -95 814 -166 c 2
 814 -168 l 2
 814 -211 861 -240 905 -240 c 0
 963 -240 1011 -226 1044 -208 c 1
 1094 -300 l 1
 1038 -336 954 -376 863 -376 c 0
 779 -376 614 -330 614 -183 c 0xe4
 614 -111 629 -60 649 -17 c 1
 576 -13 504 0 467 20 c 0
 382 67 374 147 374 206 c 2
 374 813 l 1
 325 813 235 807 140 785 c 1
 111 971 l 1
 205 999 294 1013 374 1013 c 2xe8
EndSplineSet
Validated: 1
EndChar

StartChar: Lcaron
Encoding: 317 317 245
Width: 1100
VWidth: 32
Flags: W
HStem: -3 229<433 999.868>
VStem: 166 267<226 1444> 762 192<1012 1347.59>
LayerCount: 2
Fore
SplineSet
1006 1391 m 1
 986 1275 976 1163 954 1007 c 1
 762 1012 l 1
 760 1042 760 1072 760 1101 c 0
 760 1213 766 1320 770 1403 c 1
 1006 1391 l 1
EndSplineSet
Refer: 35 76 N 1 0 0 1 0 0 2
Validated: 1
EndChar

StartChar: lcaron
Encoding: 318 318 246
Width: 1100
VWidth: 32
Flags: W
HStem: -18 200<627.352 883.717> 1025 21G<802 1007> 1230 200<133.45 364>
VStem: 364 256<191.813 1230> 802 194<1030 1371.02>
LayerCount: 2
Fore
SplineSet
1047 1409 m 1
 1026 1293 1018 1181 996 1025 c 1
 802 1030 l 1
 801 1060 801 1090 801 1119 c 0
 801 1231 806 1338 810 1421 c 1
 1047 1409 l 1
EndSplineSet
Refer: 12 108 N 1 0 0 1 0 0 2
Validated: 1
EndChar

StartChar: Eng
Encoding: 330 330 255
Width: 1100
VWidth: 0
Flags: W
HStem: -432 242<412 621.537> -3 21G<80 346> 1185 228<470.462 687.814>
VStem: 80 266<0 1030.84> 736 265<-89.477 1132.94>
LayerCount: 2
Fore
SplineSet
568 1413 m 0
 872 1413 996 1200 996 937 c 0
 996 685 1001 436 1001 180 c 2
 1001 143 l 2
 1001 -136 972 -432 447 -432 c 2
 412 -432 l 1
 412 -190 l 1
 711 -190 736 -63 736 116 c 2
 736 929 l 2
 736 1130 691 1185 566 1185 c 0
 456 1185 384 1022 346 948 c 1
 346 0 l 1
 80 -3 l 1
 80 1154 l 2
 80 1279 39 1372 39 1372 c 1
 252 1438 l 1
 272 1395 288 1360 295 1276 c 1
 374 1358 446 1413 568 1413 c 0
EndSplineSet
Validated: 1
EndChar

StartChar: eng
Encoding: 331 331 256
Width: 1100
VWidth: 6
Flags: W
HStem: -407 219<434 557.657> 819 207<459.788 650.643>
VStem: 120 252<0 737.647> 660 252<-84.5569 811.089>
LayerCount: 2
Fore
SplineSet
358 927 m 1
 414 977 510 1026 620 1026 c 0
 784 1026 912 960 912 796 c 2
 912 278 l 2
 912 -119 848 -407 434 -407 c 1
 434 -188 l 1
 650 -188 660 34 660 191 c 2
 658 699 l 2
 658 773 651 819 584 819 c 0
 521 819 456 781 371 707 c 1
 372 0 l 1
 120 0 l 1
 120 706 l 2
 120 884 112 910 88 1004 c 1
 320 1052 l 1
 330 1028 351 976 358 927 c 1
EndSplineSet
Validated: 1
EndChar

StartChar: Scedilla
Encoding: 350 350 273
Width: 1100
VWidth: 32
Flags: W
HStem: -435 172<404.653 617.295> -156 374<441.446 615.203> 1219 229<375.762 629.287>
VStem: 29 280<297.375 458> 55 281<990.329 1182.54> 620 224<-255.703 -161.173> 754 271<280.654 550.051>
LayerCount: 2
Fore
SplineSet
244 765 m 0xf2
 128 819 55 920 55 1097 c 0
 55 1337 226 1448 494 1448 c 0
 497 1448 501 1448 504 1448 c 0
 756 1448 962 1358 1009 1175 c 1
 722 1064 l 1
 674 1174 584 1219 510 1219 c 0
 420 1219 336 1179 336 1105 c 0
 336 998 395 972 456 948 c 0
 585 896 659 886 798 820 c 1
 911 762 1025 648 1025 432 c 0xea
 1025 155 864 30 661 -1 c 1
 660 -23 660 -54 660 -56 c 1
 757 -61 844 -118 844 -232 c 0
 844 -362 730 -435 572 -435 c 0
 506 -435 414 -417 358 -381 c 1
 418 -233 l 1
 451 -251 495 -263 546 -263 c 0
 582 -263 617 -251 620 -213 c 1
 620 -211 l 2xe4
 620 -182 596 -156 548 -156 c 0
 500 -156 467 -158 439 -168 c 1
 439 -3 l 1
 137 36 29 233 29 460 c 1
 309 458 l 1
 309 302 373 218 533 218 c 0
 646 218 754 257 754 416 c 0
 754 535 679 596 596 634 c 0
 474 690 384 699 244 765 c 0xf2
EndSplineSet
Validated: 1
EndChar

StartChar: scedilla
Encoding: 351 351 274
Width: 1100
VWidth: 32
Flags: W
HStem: -460 172<356.654 569.301> -181 363<393.414 570.63> 829 200<389.317 656.781>
VStem: 84 253<211.251 330> 132 254<700.474 817.573> 572 224<-281.692 -187.173> 666 254<213.604 394.387>
LayerCount: 2
Fore
SplineSet
269 549 m 0xf2
 187 589 132 670 132 781 c 0
 132 967 322 1029 497 1029 c 0
 636 1029 789 1014 900 893 c 1
 723 730 l 1
 669 788 596 829 500 829 c 0
 418 829 386 807 386 768 c 0
 386 739 392 719 420 701 c 1
 676 597 920 562 920 278 c 0xea
 920 116 776 28 669 0 c 0
 651 -4 633 -8 614 -11 c 1
 614 -16 614 -26 614 -36 c 0
 614 -56 614 -80 614 -82 c 1
 711 -87 796 -144 796 -258 c 0
 796 -388 682 -460 524 -460 c 0
 458 -460 366 -442 310 -406 c 1
 370 -259 l 1
 403 -277 449 -288 500 -288 c 0
 536 -288 569 -277 572 -239 c 1
 572 -237 l 2xe4
 572 -208 549 -181 501 -181 c 0
 453 -181 420 -184 392 -194 c 1
 392 -12 l 1
 198 20 84 146 84 330 c 1
 337 330 l 1
 337 222 385 182 494 182 c 0
 553 182 666 202 666 290 c 0
 666 349 645 382 596 415 c 1
 527 459 362 504 269 549 c 0xf2
EndSplineSet
Validated: 1
EndChar

StartChar: Tcommaaccent
Encoding: 354 354 277
Width: 1100
VWidth: 32
Flags: W
HStem: -450 172<364.653 577.295> 1219 225<42 374 647 955.961>
VStem: 374 273<-10 1219> 580 224<-270.703 -176.173>
LayerCount: 2
Fore
SplineSet
374 -10 m 1xe0
 374 1219 l 1
 166 1219 122 1218 42 1218 c 1
 42 1443 l 1
 170 1443 647 1444 844 1444 c 0
 921 1444 995 1435 1020 1427 c 1
 956 1206 l 1
 956 1206 902 1219 839 1219 c 2
 647 1219 l 1
 647 -10 l 1xe0
 621 -10 l 1
 620 -31 620 -69 620 -71 c 1
 717 -76 804 -133 804 -247 c 0
 804 -377 690 -450 532 -450 c 0
 466 -450 374 -432 318 -396 c 1
 378 -248 l 1
 411 -266 455 -278 506 -278 c 0
 542 -278 577 -266 580 -228 c 1
 580 -226 l 2xd0
 580 -197 556 -171 508 -171 c 0
 460 -171 427 -173 399 -183 c 1
 399 -10 l 1
 374 -10 l 1xe0
EndSplineSet
Validated: 1
EndChar

StartChar: tcommaaccent
Encoding: 355 355 278
Width: 1100
VWidth: 32
Flags: W
HStem: -425 172<454.653 667.295> -146 342<491.315 668.566> 812 204<459 887>
VStem: 198 252<236.379 812 1020 1254> 670 224<-245.703 -151.173>
LayerCount: 2
Fore
SplineSet
450 436 m 1
 450 396 l 2
 450 262 489 214 573 200 c 0
 591 198 625 196 638 196 c 0
 703 196 733 210 758 224 c 0
 810 252 821 320 828 340 c 1
 1036 240 l 1
 1026 212 972 100 860 36 c 0
 819 12 768 0 711 -4 c 1
 711 -23 710 -44 710 -46 c 1
 807 -51 894 -108 894 -222 c 0
 894 -352 780 -425 622 -425 c 0
 556 -425 464 -407 408 -371 c 1
 468 -223 l 1
 501 -241 545 -253 596 -253 c 0
 632 -253 667 -241 670 -203 c 1
 670 -201 l 2
 670 -172 646 -146 598 -146 c 0
 550 -146 518 -148 490 -158 c 1
 490 2 l 1
 377 17 287 59 237 164 c 0
 202 236 198 312 198 398 c 2
 198 440 l 1
 200 530 202 648 207 812 c 1
 193 812 l 2
 165 812 137 808 111 800 c 1
 94 1004 l 1
 118 1012 163 1016 196 1016 c 2
 211 1016 l 1
 211 1086 212 1190 212 1260 c 1
 463 1254 l 1
 463 1188 462 1088 461 1020 c 1
 570 1020 882 1016 890 1016 c 1
 887 812 l 1
 750 812 592 814 459 814 c 1
 453 648 454 536 450 436 c 1
EndSplineSet
Validated: 1
EndChar

StartChar: tcaron
Encoding: 357 357 280
Width: 1100
VWidth: 32
Flags: W
HStem: -6 202<492.235 780.078> 812 204<459 887>
VStem: 198 252<236.379 812 1020 1254> 682 193<1088 1430.02>
LayerCount: 2
Fore
SplineSet
926 1468 m 1
 905 1352 897 1240 875 1084 c 1
 682 1088 l 1
 681 1121 681 1154 681 1186 c 0
 681 1295 685 1399 689 1480 c 1
 926 1468 l 1
EndSplineSet
Refer: 19 116 N 1 0 0 1 0 0 2
Validated: 1
EndChar

StartChar: Uogonek
Encoding: 370 370 291
Width: 1100
VWidth: 32
Flags: W
HStem: -417 136<548.202 763.766> 1449 3G<71 345 732 908.613>
VStem: 72 265<316.25 1449> 340 200<-268.682 -110.325> 729 269<342.441 1442.11>
LayerCount: 2
Fore
SplineSet
737 1472 m 1
 1003 1441 l 1
 996 1387 994 1349 994 1303 c 0
 994 1293 994 1282 994 1271 c 0
 994 1110 998 968 998 845 c 2
 998 780 l 2
 998 522 993 276 875 132 c 0
 826 72 760 35 688 14 c 1
 630 -75 540 -126 540 -207 c 2
 540 -209 l 2
 540 -252 586 -281 630 -281 c 0
 688 -281 736 -267 769 -249 c 1
 820 -341 l 1
 764 -377 680 -417 589 -417 c 0
 505 -417 340 -371 340 -224 c 0
 340 -118 373 -55 405 -2 c 1
 170 38 88 214 72 497 c 0
 67 581 65 717 65 867 c 0
 65 1058 68 1274 74 1449 c 1
 345 1449 l 1
 341 1266 337 1016 337 810 c 0
 337 756 337 703 337 656 c 0
 337 586 338 528 343 488 c 0
 358 386 369 222 516 218 c 1
 726 228 729 470 729 783 c 0
 729 920 723 1082 723 1271 c 0
 723 1349 727 1403 737 1472 c 1
EndSplineSet
Validated: 1
EndChar

StartChar: uogonek
Encoding: 371 371 292
Width: 1100
VWidth: 32
Flags: W
HStem: -399 136<787.271 1002.77> 2 204<380.099 585.724> 1000 20G<164.857 353>
VStem: 115 245<220.841 876.355> 579 200<-250.682 -111.094> 669 257<292.317 1000>
LayerCount: 2
Fore
SplineSet
901 -17 m 1xf4
 869 -69 779 -141 779 -189 c 2
 779 -191 l 2
 779 -234 826 -263 870 -263 c 0
 928 -263 975 -249 1008 -231 c 1
 1059 -323 l 1
 1003 -359 919 -399 828 -399 c 0
 744 -399 579 -353 579 -206 c 0xf8
 579 -77 737 47 774 108 c 1
 699 31 612 5 462 2 c 1
 453 2 l 2
 301 2 115 53 115 229 c 0
 115 311 116 408 116 504 c 0
 116 720 113 935 94 992 c 1
 342 1020 l 1
 364 928 358 664 360 298 c 1
 372 231 391 206 476 206 c 1
 628 213 668 370 669 418 c 2
 670 1000 l 1
 927 1000 l 1
 926 306 l 1
 928 254 980 171 1031 150 c 1
 901 -17 l 1xf4
EndSplineSet
Validated: 1
EndChar

StartChar: longs
Encoding: 383 383 304
Width: 1100
VWidth: -2
Flags: W
HStem: 807 205<119 262> 1217 201<544.522 809.055>
VStem: 262 257<0 807 1012 1188.92>
LayerCount: 2
Fore
SplineSet
519 1012 m 1
 519 0 l 1
 262 0 l 1
 262 807 l 1
 119 807 l 1
 119 1012 l 1
 262 1012 l 1
 262 1028 262 1045 262 1064 c 0
 262 1194 328 1418 644 1418 c 0
 840 1418 969 1376 1047 1221 c 1
 835 1124 l 1
 809 1206 751 1217 661 1217 c 0
 529 1217 518 1143 518 1083 c 0
 518 1056 519 1012 519 1012 c 1
EndSplineSet
Validated: 1
EndChar

StartChar: Euro
Encoding: 8364 8364 305
Width: 1100
VWidth: 0
Flags: W
HStem: -31 213<511.198 732.038> 394 189<79.3943 180 462 655> 676 188<83.4799 181 465 752> 1125 218<527.65 739.742>
VStem: 180 276<267.456 394 584 676> 200 265<866 1040.75>
LayerCount: 2
Fore
SplineSet
814 866 m 1xf4
 752 682 l 1
 740 682 l 1
 683 680 652 676 576 676 c 0
 519 676 558 676 458 676 c 1
 458 653 456 631 456 609 c 0
 456 601 456 593 456 584 c 1
 486 583 490 583 528 583 c 0
 614 583 604 584 693 585 c 1
 719 585 l 1
 655 392 l 1
 462 394 l 1
 471 236 528 182 586 182 c 2
 604 182 l 2
 670 182 750 209 798 315 c 1
 999 156 l 1
 879 0 788 -31 601 -31 c 0
 522 -31 396 -3 312 107 c 0
 246 192 213 272 194 394 c 1
 167 395 143 396 119 396 c 0
 90 396 62 395 29 394 c 1
 41 448 59 522 84 583 c 1
 124 583 162 584 180 584 c 1
 180 601 180 617 180 632 c 0xf8
 180 647 180 662 181 676 c 1
 101 677 69 677 21 681 c 1
 44 737 70 826 89 870 c 1
 117 867 145 867 200 866 c 1
 219 978 238 1032 272 1108 c 0
 354 1287 519 1343 618 1343 c 0
 726 1343 840 1312 932 1209 c 1
 838 950 l 1
 784 1053 718 1125 621 1125 c 0
 528 1125 474 1040 465 864 c 1
 508 864 533 864 574 864 c 2
 574 864 617 864 651 864 c 1
 703 866 738 868 780 868 c 1
 814 866 l 1xf4
EndSplineSet
Validated: 1
EndChar

StartChar: uniE000
Encoding: 57344 57344 306
Width: 1100
VWidth: 6
Flags: W
HStem: 390 154<438.981 593.371> 486 158<228.671 389.117>
VStem: 87 635
LayerCount: 2
Fore
SplineSet
96 491 m 1x60
 155 603 218 644 282 644 c 0x60
 386 644 481 544 539 544 c 0
 562 544 586 560 609 624 c 2
 618 650 l 1
 722 546 l 1
 715 532 l 1
 660 430 600 390 539 390 c 0xa0
 435 390 347 486 289 486 c 0
 262 486 239 475 214 409 c 2
 206 387 l 1
 87 475 l 1
 96 491 l 1x60
EndSplineSet
Validated: 1
EndChar

StartChar: uniE001
Encoding: 57345 57345 307
Width: 1100
VWidth: 6
Flags: W
HStem: -312 150<367.529 595.23> -11 152<390.059 510.911> 513 151<423.205 570.976> 894 150<415.333 552.135> 1191 152<365.927 586.731>
VStem: 43 123<166.673 870.319> 239 129<151.289 456.948> 585 117<224.252 496.71> 794 114<148.623 863.075>
LayerCount: 2
Fore
SplineSet
425 141 m 0
 451 141 479 155 496 170 c 0
 561 229 574 299 585 334 c 1
 585 367 584 433 584 452 c 1
 553 495 523 513 492 513 c 0
 491 513 490 513 489 513 c 0
 434 511 368 415 368 310 c 0
 368 308 368 307 368 305 c 0
 371 201 402 141 425 141 c 0
426 -11 m 1
 295 -5 239 154 239 299 c 0
 239 300 239 302 239 303 c 0
 239 380 256 461 291 524 c 0
 349 628 423 661 492 664 c 0
 495 664 497 664 500 664 c 0
 536 664 565 652 584 641 c 1
 575 806 566 894 482 894 c 0
 423 894 416 860 360 727 c 1
 352 709 l 1
 248 770 l 1
 254 787 l 1
 309 963 384 1041 482 1044 c 1
 523 1044 581 1025 622 967 c 0
 664 907 702 805 702 663 c 2
 702 229 l 1
 705 155 710 157 729 133 c 0
 730 131 734 128 737 126 c 1
 747 132 753 149 759 169 c 0
 791 267 794 386 794 515 c 0
 794 900 655 1191 476 1191 c 0
 298 1191 166 901 166 515 c 0
 166 129 306 -162 476 -162 c 0
 536 -162 594 -129 644 -72 c 1
 656 -57 l 1
 733 -153 l 1
 722 -166 l 2
 659 -239 562 -312 476 -312 c 0
 229 -312 43 68 43 515 c 0
 43 962 229 1343 476 1343 c 0
 723 1343 908 962 908 515 c 0
 908 364 886 222 850 98 c 1
 841 71 809 -26 742 -26 c 0
 741 -26 740 -26 739 -26 c 2
 737 -26 l 1
 736 -25 l 1
 717 -20 688 -9 668 16 c 1
 667 16 l 1
 655 34 629 59 616 110 c 1
 593 80 573 65 544 38 c 1
 512 11 471 -11 426 -11 c 1
EndSplineSet
Validated: 1
EndChar

StartChar: uniE002
Encoding: 57346 57346 308
Width: 1100
VWidth: 6
Flags: W
HStem: -310 150<434.529 662.23> -9 153<511.048 629.012> 702 152<520.409 669.08> 1198 153<429.668 628.797>
VStem: 110 123<169.451 874.351> 335 129<193.676 639.402> 703 117<227.653 665.965>
LayerCount: 2
Fore
SplineSet
544 144 m 0
 570 144 597 158 614 173 c 0
 679 232 692 301 703 336 c 1
 703 621 l 1
 671 665 616 702 587 702 c 0
 487 702 464 498 464 375 c 0
 464 370 464 365 464 360 c 0
 467 256 523 144 544 144 c 0
820 703 m 2
 820 703 820 678 820 666 c 2
 820 231 l 1
 823 159 842 126 874 98 c 2
 891 83 l 1
 796 4 l 1
 785 20 l 2
 772 39 747 63 734 113 c 1
 711 83 691 68 662 41 c 1
 630 14 590 -9 544 -9 c 1
 409 -2 335 233 335 378 c 0
 335 379 335 380 335 381 c 0
 335 393 335 407 335 422 c 0
 335 496 339 600 388 711 c 0
 438 823 523 851 591 854 c 0
 593 854 595 854 597 854 c 0
 640 854 678 835 700 821 c 1
 698 854 697 882 695 903 c 0
 686 1031 675 1198 529 1198 c 0
 372 1198 233 905 233 518 c 0
 233 132 373 -160 543 -160 c 0
 603 -160 661 -126 711 -69 c 1
 723 -54 l 1
 799 -150 l 1
 789 -163 l 1
 726 -236 629 -310 543 -310 c 0
 296 -310 110 71 110 518 c 0
 110 964 282 1351 529 1351 c 0
 794 1351 820 996 820 703 c 2
EndSplineSet
Validated: 1
EndChar

StartChar: gravecomb
Encoding: 768 768 309
Width: 1100
VWidth: -43
Flags: W
HStem: 1267 442
VStem: 213 566
LayerCount: 2
Fore
SplineSet
779 1441 m 1
 689 1267 l 1
 546 1314 324 1425 213 1537 c 1
 347 1709 l 1
 462 1601 636 1489 779 1441 c 1
EndSplineSet
Validated: 1
EndChar

StartChar: acutecomb
Encoding: 769 769 310
Width: 1100
VWidth: -43
Flags: W
HStem: 1267 442
VStem: 219 566
LayerCount: 2
Fore
SplineSet
219 1441 m 1
 362 1489 536 1601 651 1709 c 1
 785 1537 l 1
 674 1425 452 1314 309 1267 c 1
 219 1441 l 1
EndSplineSet
Validated: 1
EndChar

StartChar: uni0302
Encoding: 770 770 311
Width: 1100
VWidth: -10
Flags: W
HStem: 1252 447
LayerCount: 2
Fore
SplineSet
539 1699 m 1
 917 1408 l 1
 779 1252 l 1
 539 1453 l 1
 317 1264 l 1
 173 1402 l 1
 539 1699 l 1
EndSplineSet
Validated: 1
EndChar

StartChar: tildecomb
Encoding: 771 771 312
Width: 1100
VWidth: -12
Flags: W
HStem: 1376 178<596.92 755.997> 1506 180<318.718 482.459>
LayerCount: 2
Fore
SplineSet
359 1686 m 0x40
 575 1686 594 1554 684 1554 c 0
 734 1554 764 1585 770 1654 c 1
 947 1600 l 1
 926 1504 868 1376 706 1376 c 0x80
 508 1376 487 1506 386 1506 c 0
 344 1506 307 1469 298 1406 c 1
 114 1484 l 1
 147 1577 218 1686 359 1686 c 0x40
EndSplineSet
Validated: 1
EndChar

StartChar: uni0304
Encoding: 772 772 313
Width: 1100
VWidth: -34
Flags: W
HStem: 1463 194<258 758>
VStem: 258 500<1463 1652>
LayerCount: 2
Fore
SplineSet
758 1657 m 1
 758 1463 l 1
 741 1463 l 1
 683 1461 585 1456 511 1456 c 0
 437 1456 344 1457 276 1459 c 1
 258 1460 l 1
 258 1657 l 1
 277 1655 l 1
 342 1653 457 1652 549 1652 c 0
 610 1652 696 1657 741 1657 c 2
 758 1657 l 1
EndSplineSet
Validated: 1
EndChar

StartChar: uni0305
Encoding: 773 773 314
Width: 1100
VWidth: -34
Flags: W
HStem: 1458 203<107 899>
LayerCount: 2
Fore
SplineSet
899 1658 m 1
 899 1457 l 1
 107 1458 l 1
 107 1661 l 1
 899 1658 l 1
EndSplineSet
Validated: 1
EndChar

StartChar: uni0306
Encoding: 774 774 315
Width: 1100
VWidth: -12
Flags: W
HStem: 1325 183<408.837 660.214>
LayerCount: 2
Fore
SplineSet
530 1508 m 0
 638 1508 704 1571 710 1649 c 1
 929 1619 l 1
 905 1442 776 1325 536 1325 c 0
 311 1325 179 1403 131 1628 c 1
 350 1658 l 1
 377 1541 455 1508 530 1508 c 0
EndSplineSet
Validated: 1
EndChar

StartChar: uni0308
Encoding: 776 776 316
Width: 1100
VWidth: -28
Flags: W
HStem: 1414 240<166 445 586 868>
VStem: 166 279<1414 1654> 586 282<1414 1651>
LayerCount: 2
Fore
SplineSet
166 1654 m 1
 445 1654 l 1
 445 1414 l 1
 166 1414 l 1
 166 1654 l 1
586 1654 m 1
 868 1651 l 1
 868 1411 l 1
 586 1414 l 1
 586 1654 l 1
EndSplineSet
Validated: 1
EndChar

StartChar: uni0307
Encoding: 775 775 317
Width: 1100
VWidth: -28
Flags: W
HStem: 1425 246<331 614>
VStem: 331 285<1425 1671>
LayerCount: 2
Fore
SplineSet
330 1671 m 1
 614 1671 l 1
 616 1425 l 1
 331 1425 l 1
 330 1671 l 1
EndSplineSet
Validated: 1
EndChar

StartChar: uni030A
Encoding: 778 778 318
Width: 1100
VWidth: -8
Flags: W
HStem: 1278 132<459.395 621.541> 1535 142<459.983 622.971>
VStem: 266 189<1419.88 1526.35> 627 190<1419.71 1526.35>
LayerCount: 2
Fore
SplineSet
266 1473 m 0
 266 1589 394 1677 542 1677 c 0
 690 1677 817 1589 817 1473 c 0
 817 1358 702 1278 542 1278 c 0
 389 1278 266 1359 266 1473 c 0
541 1535 m 0
 488 1535 455 1504 455 1473 c 0
 455 1442 489 1410 541 1410 c 0
 593 1410 627 1442 627 1473 c 0
 627 1504 594 1535 541 1535 c 0
EndSplineSet
Validated: 1
EndChar

StartChar: uni0237
Encoding: 567 567 319
Width: 1100
VWidth: 0
Flags: W
HStem: -389 201<365.489 581.649> -28 20G<231.838 297> 813 200<377.45 608>
VStem: 608 254<-163.515 813>
LayerCount: 2
Fore
SplineSet
862 -78 m 2
 862 -231 781 -389 495 -389 c 0
 372 -389 216 -361 90 -156 c 1
 254 -8 l 1
 340 -153 409 -188 472 -188 c 0
 478 -188 485 -188 490 -188 c 0
 610 -188 606 -83 608 -48 c 1
 608 813 l 1
 559 813 468 807 373 785 c 1
 344 971 l 1
 438 999 528 1013 608 1013 c 2
 862 1013 l 1
 862 -78 l 2
EndSplineSet
Validated: 1
EndChar

StartChar: uni030B
Encoding: 779 779 320
Width: 1100
VWidth: -43
Flags: W
HStem: 1150 545
LayerCount: 2
Fore
SplineSet
108 1293 m 1
 225 1388 338 1554 408 1695 c 1
 608 1568 l 1
 543 1424 373 1244 255 1150 c 1
 108 1293 l 1
491 1286 m 1
 608 1381 721 1547 791 1688 c 1
 992 1561 l 1
 927 1417 756 1237 638 1143 c 1
 491 1286 l 1
EndSplineSet
Validated: 1
EndChar

StartChar: uni030C
Encoding: 780 780 321
Width: 1100
VWidth: -10
Flags: W
HStem: 1206 447
LayerCount: 2
Fore
SplineSet
542 1206 m 1
 176 1503 l 1
 320 1641 l 1
 542 1452 l 1
 782 1653 l 1
 920 1497 l 1
 542 1206 l 1
EndSplineSet
Validated: 1
EndChar

StartChar: uni030F
Encoding: 783 783 322
Width: 1100
VWidth: -43
Flags: W
HStem: 1170 552
LayerCount: 2
Fore
SplineSet
981 1320 m 1
 834 1178 l 1
 716 1272 545 1452 480 1596 c 1
 681 1722 l 1
 751 1581 864 1415 981 1320 c 1
598 1313 m 1
 450 1170 l 1
 332 1264 162 1444 97 1588 c 1
 298 1715 l 1
 368 1574 481 1408 598 1313 c 1
EndSplineSet
Validated: 1
EndChar

StartChar: uni0191
Encoding: 401 401 326
Width: 1100
VWidth: 0
Flags: W
HStem: 700 235<430 778.162> 1215 228<430 981.737>
VStem: 156 274<-19.3474 698 933 1214>
LayerCount: 2
Fore
SplineSet
435 85 m 1
 429 -118 358 -330 9 -330 c 1
 9 -43 l 1
 118 -43 148 -8 156 93 c 1
 156 1443 l 1
 875 1443 l 2
 982 1443 1029 1425 1065 1406 c 1
 983 1185 l 1
 956 1200 933 1214 830 1215 c 1
 756 1215 l 2
 647 1215 622 1215 430 1214 c 1
 430 933 l 1
 556 933 516 935 644 935 c 0
 738 935 809 916 851 896 c 1
 780 676 l 1
 741 695 688 700 641 700 c 0
 597 700 573 700 552 700 c 0
 520 700 498 700 430 698 c 1
 430 588 434 257 435 85 c 1
EndSplineSet
Validated: 1
EndChar

StartChar: florin
Encoding: 402 402 327
Width: 1100
VWidth: -2
Flags: W
HStem: -340 244<106 240.131> 807 205<156 298 556 871.016> 1217 201<580.772 794.381>
VStem: 298 256<-40.1864 807 1012 1188.92>
LayerCount: 2
Fore
SplineSet
555 126 m 1
 551 -120 424 -340 104 -340 c 1
 106 -96 l 1
 248 -96 294 -30 298 138 c 1
 298 807 l 1
 156 807 l 1
 156 1012 l 1
 298 1012 l 1
 298 1028 298 1045 298 1064 c 0
 298 1194 364 1418 680 1418 c 0
 876 1418 956 1368 1034 1213 c 1
 822 1116 l 1
 796 1198 759 1217 698 1217 c 0
 566 1217 554 1143 554 1083 c 0
 554 1056 556 1012 556 1012 c 1
 624 1012 667 1012 740 1012 c 0
 845 1012 886 1000 916 991 c 1
 872 794 l 1
 851 801 830 807 774 807 c 2
 554 807 l 1
 555 126 l 1
EndSplineSet
Validated: 1
EndChar

StartChar: alpha
Encoding: 945 945 328
Width: 1100
VWidth: 4
Flags: W
HStem: -7 206<381.987 503.349> 815 203<374.921 501.563>
VStem: 63 253<271.384 748.807>
LayerCount: 2
Fore
SplineSet
860 493 m 1
 884 416 891 360 923 263 c 0
 942 205 974 179 1040 153 c 1
 938 -32 l 1
 810 0 754 87 736 147 c 0
 729 170 722 193 715 215 c 1
 650 67 577 -7 446 -7 c 0
 158 -7 63 259 63 527 c 0
 63 894 252 1018 427 1018 c 0
 592 1018 678 923 726 767 c 1
 757 866 774 944 810 1037 c 1
 1030 967 l 1
 965 841 912 661 860 493 c 1
316 524 m 0
 316 205 435 199 446 199 c 2
 454 199 l 2
 507 199 547 326 587 495 c 1
 541 711 510 815 437 815 c 0
 388 815 316 730 316 524 c 0
EndSplineSet
Validated: 1
EndChar

StartChar: beta
Encoding: 946 946 329
Width: 1100
VWidth: 0
Flags: W
HStem: 0 199<492.635 730.883> 634 207<416 563.499> 1122 206<375.454 559.604>
VStem: 104 252<339.205 1105.34> 114 234<-283.026 112> 592 246<871.698 1090.33> 766 246<232.594 529.85>
LayerCount: 2
Back
SplineSet
67 1003 m 4xf4
 67 1159 183 1328 390 1328 c 4
 626 1328 798 1243 798 1009 c 5xf4
 798 886 753 815 670 779 c 5
 814 754 972 661 972 381 c 4
 972 76 844 -2 624 -2 c 4
 437 -2 373 95 373 298 c 4
 373 306 374 314 374 322 c 5
 578 320 l 5
 578 257 583 199 646 199 c 4
 700 199 728 247 728 395 c 4xfa
 728 504 664 634 376 634 c 5
 376 840 l 5
 541 840 554 905 554 1003 c 4
 554 1088 472 1122 413 1122 c 5
 346 1122 316 1073 316 1007 c 4
 316 851 321 637 321 450 c 4
 321 410 322 370 322 331 c 4
 322 251 319 176 299 117 c 4
 272 35 169 -9 113 -37 c 5
 21 211 l 5
 41 221 59 235 67 261 c 4
 75 287 76 323 76 398 c 4
 76 413 76 429 76 448 c 4
 76 635 67 829 67 1003 c 4xf4
EndSplineSet
Fore
SplineSet
348 112 m 1xea
 348 83 348 59 348 39 c 0
 348 -85 344 -203 336 -300 c 1
 100 -283 l 1
 110 -183 114 -74 114 37 c 0xea
 114 224 104 829 104 1003 c 0
 104 1159 216 1328 414 1328 c 0
 618 1328 838 1274 838 1010 c 0xf4
 838 832 746 802 712 779 c 1
 880 749 1012 636 1012 382 c 0
 1012 50 868 0 624 0 c 0
 622 0 618 0 616 0 c 0
 488 0 438 39 348 112 c 1xea
626 199 m 0
 748 199 766 291 766 387 c 0xf2
 766 570 618 634 416 634 c 1
 416 841 l 1
 556 841 592 883 592 1003 c 0
 592 1058 548 1122 452 1122 c 0
 392 1122 356 1083 356 993 c 0xf4
 356 893 360 640 360 398 c 1
 458 223 562 199 626 199 c 0
EndSplineSet
Validated: 1
EndChar

StartChar: gamma
Encoding: 947 947 330
Width: 1100
VWidth: 14
Flags: W
HStem: 820 221<40 154.972>
VStem: 479 258<-376 144.128>
LayerCount: 2
Fore
SplineSet
479 -376 m 1
 479 -269 476 -10 458 68 c 0
 401 315 272 583 178 740 c 0
 143 799 128 804 116 811 c 0
 101 820 80 820 55 820 c 0
 50 820 45 819 40 819 c 1
 40 1041 l 1
 73 1041 112 1040 140 1036 c 0
 203 1026 278 1010 338 917 c 0
 435 765 528 552 598 351 c 1
 672 568 806 1061 806 1061 c 1
 1034 986 l 1
 1034 986 826 387 730 15 c 1
 736 -67 737 -175 737 -291 c 0
 737 -320 737 -350 737 -379 c 1
 479 -376 l 1
EndSplineSet
Validated: 1
EndChar

StartChar: delta
Encoding: 948 948 331
Width: 1100
VWidth: 6
Flags: W
HStem: 1 197<425.49 633.716> 1182 197<338.234 735.362>
VStem: 92 251<284.544 655.108 1074.49 1174.88> 705 249<270.88 620.937>
LayerCount: 2
Back
SplineSet
625 247 m 1
 672 299 685 403 685 530 c 0
 685 536 685 540 685 546 c 0
 683 703 648 830 520 830 c 0
 369 830 324 690 324 482 c 0
 324 316 387 197 508 197 c 1
 563 198 589 211 625 247 c 1
507 -6 m 1
 197 -6 72 184 72 464 c 0
 72 835 213 1032 505 1032 c 0
 702 1032 812 963 882 831 c 0
 923 752 941 639 941 543 c 0
 941 258 845 -6 509 -6 c 2
 507 -6 l 1
EndSplineSet
Fore
SplineSet
525 748 m 1
 360 716 343 556 343 469 c 0
 343 366 377 198 536 198 c 0
 705 198 705 429 705 506 c 0
 705 565 651 679 525 748 c 1
954 504 m 0
 954 244 858 1 536 1 c 2
 534 1 l 1
 262 2 92 184 92 464 c 0
 92 655 169 824 285 854 c 1
 240 876 224 894 197 915 c 0
 151 952 91 1027 91 1103 c 0
 91 1341 282 1379 492 1379 c 0
 616 1379 755 1351 876 1322 c 1
 834 1111 l 1
 701 1148 580 1182 484 1182 c 0
 397 1182 335 1176 335 1129 c 0
 335 1101 378 1079 410 1063 c 0
 675 934 954 838 954 504 c 0
EndSplineSet
Validated: 1
EndChar

StartChar: epsilon
Encoding: 949 949 332
Width: 1100
VWidth: 0
Flags: W
HStem: -4 197<417.222 840.29> 469 196<460.995 727> 825 199<448.969 858.822>
VStem: 113 266<234.292 417.901> 171 268<693.809 806.615>
LayerCount: 2
Fore
SplineSet
1047 138 m 5xf0
 976 85 806 -4 583 -4 c 4
 401 -4 308 14 233 73 c 4
 156 134 113 236 113 301 c 4xf0
 113 431 171 548 323 584 c 5
 213 608 171 691 171 789 c 4
 171 973 387 1024 592 1024 c 6
 605 1024 l 6
 838 1024 910 972 928 960 c 5
 860 784 l 5
 836 799 739 825 594 825 c 4
 479 825 439 787 439 761 c 4xe8
 439 666 587 665 697 665 c 6
 704 665 l 5
 709 665 l 5
 727 665 l 5
 727 468 l 5
 701 468 675 469 649 469 c 4
 448 469 379 418 379 306 c 4
 379 257 427 193 608 193 c 4
 776 193 883 249 934 295 c 5
 1047 138 l 5xf0
EndSplineSet
Validated: 1
EndChar

StartChar: zeta
Encoding: 950 950 333
Width: 1100
VWidth: 0
Flags: W
HStem: -347 198<669.393 778.327> 0 215<464.008 789.398> 1155 197<232.111 652.196>
VStem: 148 258<282.446 666.233> 798 222<-118.439 -8.49052>
LayerCount: 2
Fore
SplineSet
214 1414 m 1
 254 1372 290 1352 370 1352 c 0
 536 1352 846 1358 978 1376 c 1
 1060 1176 l 1
 920 978 406 846 406 504 c 0
 406 321 458 215 550 215 c 0
 554 215 722 216 726 216 c 0
 932 216 1020 91 1020 -66 c 0
 1020 -297 762 -337 672 -347 c 1
 636 -149 l 1
 720 -136 798 -115 798 -77 c 0
 798 -3 746 0 658 0 c 0
 652 0 646 0 638 0 c 0
 634 0 504 0 500 0 c 0
 298 0 148 177 148 504 c 0
 148 861 412 991 656 1164 c 1
 526 1157 518 1155 390 1155 c 0
 276 1155 158 1175 80 1274 c 1
 214 1414 l 1
EndSplineSet
Validated: 1
EndChar

StartChar: eta
Encoding: 951 951 334
Width: 1100
VWidth: 6
Flags: W
HStem: 819 207<470.428 700.422>
VStem: 120 252<0 737.647> 711 252<-309.685 811.126>
LayerCount: 2
Fore
SplineSet
963 296 m 1
 964 -61 l 2
 964 -127 978 -264 996 -312 c 1
 758 -374 l 1
 740 -295 711 -230 711 -68 c 2
 711 210 l 1
 710 717 l 2
 710 791 685 819 618 819 c 0
 555 819 456 781 371 707 c 1
 372 0 l 1
 120 0 l 1
 120 706 l 2
 120 884 112 910 88 1004 c 1
 320 1052 l 1
 330 1028 351 976 358 927 c 1
 414 977 544 1026 654 1026 c 0
 818 1026 963 978 963 814 c 2
 963 296 l 1
EndSplineSet
Validated: 1
EndChar

StartChar: theta
Encoding: 952 952 335
Width: 1100
VWidth: 0
Flags: W
HStem: -16 203<408.535 636.815> 564 225<317.162 748> 1147 203<428.211 638.958>
VStem: 40 262<318.901 552.548 773 960.271> 751 261<341.03 562 788 985.544>
LayerCount: 2
Fore
SplineSet
748 788 m 1
 740 864 726 942 702 1002 c 0
 659 1108 607 1147 542 1147 c 0
 472 1147 431 1122 388 1051 c 0
 352 992 323 906 309 773 c 1
 484 784 603 789 687 789 c 0
 710 789 730 789 748 788 c 1
363 284 m 0
 400 224 450 187 530 187 c 0
 615 187 669 249 702 326 c 1
 724 371 743 472 751 562 c 1
 725 563 696 564 666 564 c 0
 564 564 439 558 302 550 c 1
 307 457 328 342 363 284 c 0
542 1350 m 1
 703 1350 1007 1277 1012 647 c 1
 1012 636 l 2
 1012 469 968 312 920 217 c 0
 845 70 695 -16 530 -16 c 0
 408 -16 259 25 178 127 c 0
 88 239 40 395 40 579 c 0
 40 931 116 1090 186 1187 c 0
 252 1279 386 1347 542 1350 c 1
EndSplineSet
Validated: 1
EndChar

StartChar: iota
Encoding: 953 953 336
Width: 1100
VWidth: 0
Flags: W
HStem: -18 202<647.008 804.813> 813 200<144.449 374>
VStem: 374 256<197.57 813>
LayerCount: 2
Fore
SplineSet
374 1013 m 2
 629 1013 l 1
 629 740 630 296 630 296 c 2
 630 232 664 184 722 184 c 0
 767 184 852 252 870 336 c 1
 1050 238 l 1
 1020 98 916 -18 688 -18 c 0
 603 -18 511 -4 467 20 c 0
 382 67 374 147 374 206 c 2
 374 813 l 1
 325 813 235 807 140 785 c 1
 111 971 l 1
 205 999 294 1013 374 1013 c 2
EndSplineSet
Validated: 1
EndChar

StartChar: kappa
Encoding: 954 954 337
Width: 1100
VWidth: 0
Flags: W
HStem: -16 21G<781 841.46> 1002 20G<100 358>
VStem: 100 258<0 325.312 676 1022>
LayerCount: 2
Fore
SplineSet
604 588 m 1
 724 469 989 248 1040 110 c 1
 804 -16 l 1
 758 95 574 251 444 380 c 1
 444 380 388 318 358 246 c 1
 358 0 l 1
 100 0 l 1
 100 1022 l 1
 358 1022 l 1
 358 676 l 1
 461 821 834 1038 886 1058 c 1
 1028 856 l 1
 822 738 664 662 604 588 c 1
EndSplineSet
Validated: 1
EndChar

StartChar: lambda
Encoding: 955 955 338
Width: 1100
VWidth: 14
Flags: W
HStem: -10 21G<183.542 298> -10 21G<183.542 298> 0 244<777 983.142> 1178 211<258.638 353.773>
LayerCount: 2
Fore
SplineSet
225 -10 m 1x90
 26 86 l 1
 98 220 323 616 420 964 c 1
 382 1070 348 1178 315 1178 c 0
 263 1178 253 1140 253 1102 c 1
 42 1104 l 1
 42 1317 167 1389 326 1389 c 0
 475 1389 564 1287 605 1191 c 0
 713 938 794 599 845 415 c 0
 863 350 893 244 927 244 c 0
 953 244 972 256 972 256 c 1
 1054 60 l 1
 980 10 962 0 860 0 c 0x30
 694 0 631 252 611 332 c 0
 591 413 560 523 525 650 c 1
 425 376 371 257 225 -10 c 1x90
EndSplineSet
Validated: 1
EndChar

StartChar: nu
Encoding: 957 957 340
Width: 1100
VWidth: 6
Flags: W
HStem: -8 21G<362 528.5>
VStem: 765 256<437.64 922.319>
LayerCount: 2
Fore
SplineSet
229 1054 m 1
 399 771 490 508 558 251 c 1
 729 372 765 488 765 704 c 0
 765 846 719 924 699 972 c 1
 936 1054 l 1
 993 954 1021 840 1021 726 c 0
 1021 190 695 -8 362 -8 c 1
 362 250 143 741 17 924 c 1
 229 1054 l 1
EndSplineSet
Validated: 1
EndChar

StartChar: xi
Encoding: 958 958 341
Width: 1100
VWidth: 0
Flags: W
HStem: -347 198<675.393 783.531> 0 215<411.407 797.252> 661 197<664.113 814> 1155 197<244.124 458.274>
VStem: 110 258<262.383 463.204> 292 266<889.587 1016.66> 802 222<-117.126 -10.4223>
LayerCount: 2
Fore
SplineSet
210 1428 m 1xf6
 250 1386 296 1352 378 1352 c 0
 542 1352 734 1358 866 1376 c 1
 952 1177 l 1
 870 1103 558 1046 558 964 c 0xf6
 558 871 664 858 814 858 c 1
 814 661 l 1
 550 595 368 504 368 339 c 0
 368 303 406 215 556 215 c 0
 558 215 728 216 730 216 c 0
 896 216 1024 134 1024 -66 c 0
 1024 -280 800 -335 678 -347 c 1
 642 -149 l 1
 726 -136 802 -117 802 -77 c 0
 802 -21 776 0 688 0 c 0
 680 0 674 0 668 0 c 0
 664 0 508 0 504 0 c 0
 304 0 110 58 110 325 c 0xfa
 110 577 328 716 444 752 c 1
 402 763 292 799 292 967 c 0
 292 1057 368 1125 460 1161 c 1
 460 1161 402 1155 372 1155 c 0
 256 1155 158 1182 82 1264 c 1
 210 1428 l 1xf6
EndSplineSet
Validated: 1
EndChar

StartChar: pi
Encoding: 960 960 343
Width: 1100
VWidth: 6
Flags: W
HStem: -13 21G<272.176 428> 0 237<796.5 978.766> 822 198<443 584.819 836 890.501>
VStem: 187 256<24.1796 814> 606 255<238.723 819.861>
LayerCount: 2
Fore
SplineSet
824 1020 m 0xb8
 865 1020 880 1038 904 1088 c 1
 1054 1014 l 1
 1022 940 999 822 867 822 c 2
 836 822 l 1
 854 777 861 719 861 587 c 2
 861 316 l 2
 861 265 879 237 901 237 c 0
 926 237 943 240 961 259 c 1
 1060 85 l 1
 1030 43 989 0 862 0 c 0x78
 731 0 606 59 606 267 c 2
 606 583 l 2
 606 755 587 776 564 822 c 1
 443 821 l 1
 443 215 l 2
 443 142 435 44 421 -13 c 1
 168 21 l 1
 186 89 187 146 187 219 c 2
 187 814 l 1
 141 805 118 797 85 770 c 1
 32 956 l 1
 82 988 180 1019 280 1019 c 2
 280 1019 612 1020 824 1020 c 0xb8
EndSplineSet
Validated: 1
EndChar

StartChar: rho
Encoding: 961 961 344
Width: 1100
VWidth: -2
Flags: W
HStem: -6 198<450.333 646.533> 818 214<425.607 640.894>
VStem: 112 238<-295.297 92.3425 320.093 725.29> 713 276<266.408 739.55>
LayerCount: 2
Fore
SplineSet
713 517 m 0
 713 522 713 527 713 532 c 0
 712 684 669 818 534 818 c 0
 436 818 350 734 350 533 c 0
 350 324 449 192 548 192 c 0
 684 192 713 351 713 517 c 0
112 562 m 2
 112 854 291 1032 553 1032 c 0
 750 1032 860 963 930 831 c 0
 971 752 989 639 989 543 c 0
 989 258 912 -6 590 -6 c 2
 588 -6 l 2
 451 -6 403 17 337 96 c 1
 361 18 362 -62 362 -99 c 0
 362 -230 400 -316 425 -377 c 1
 170 -438 l 1
 142 -376 110 -209 110 -70 c 2
 112 562 l 2
EndSplineSet
Validated: 1
EndChar

StartChar: sigma1
Encoding: 962 962 345
Width: 1100
VWidth: 4
Flags: W
HStem: -347 198<669.393 778.109> 10 212<474.689 781.339> 807 211<489.703 757.653>
VStem: 137 256<315.001 702.322> 797 222<-117.126 -11.6772>
LayerCount: 2
Fore
SplineSet
393 528 m 4
 393 312 485 226 562 222 c 4
 565 222 733 213 736 213 c 4
 902 204 1019 134 1019 -66 c 4
 1019 -280 795 -335 672 -347 c 5
 636 -149 l 5
 720 -136 797 -117 797 -77 c 4
 797 -21 770 -5 682 0 c 4
 675 0 669 1 662 1 c 4
 658 1 503 10 499 10 c 4
 435 13 359 34 307 73 c 5
 177 174 137 328 137 527 c 4
 137 867 315 1018 630 1018 c 4
 725 1018 822 999 885 957 c 4
 945 917 991 858 1013 806 c 5
 793 704 l 5
 783 742 752 807 612 807 c 4
 465 807 393 671 393 528 c 4
EndSplineSet
Validated: 1
EndChar

StartChar: sigma
Encoding: 963 963 346
Width: 1100
VWidth: 6
Flags: W
HStem: -6 203<420.251 630.825> 830 202<428.161 637.946>
VStem: 92 252<282.644 736.526> 705 256<277.821 783.611>
LayerCount: 2
Fore
SplineSet
910 814 m 1
 945 736 961 632 961 543 c 0
 961 258 865 -6 529 -6 c 2
 527 -6 l 2
 217 -6 92 184 92 464 c 0
 92 832 230 1029 517 1032 c 0
 519 1032 522 1032 525 1032 c 0
 652 1032 995 1021 1046 1012 c 1
 1038 804 l 1
 1008 809 962 812 910 814 c 1
645 247 m 1
 692 299 705 403 705 530 c 0
 705 536 705 540 705 546 c 0
 703 674 686 740 638 828 c 1
 638 828 563 830 540 830 c 0
 389 830 344 690 344 482 c 0
 344 316 407 197 528 197 c 1
 583 198 609 211 645 247 c 1
EndSplineSet
Validated: 1
EndChar

StartChar: tau
Encoding: 964 964 347
Width: 1100
VWidth: 0
Flags: W
HStem: -3 220<663.345 798.575> 825 195<151.32 389 650 1006>
VStem: 379 258<232.596 825>
LayerCount: 2
Fore
SplineSet
580 1020 m 1
 702 1020 l 2
 750 1020 799 1020 841 1020 c 2
 988 1020 l 1
 1006 1020 l 1
 1006 823 l 1
 702 825 l 1
 650 825 l 1
 641 621 641 540 637 440 c 1
 637 400 l 2
 637 238 684 217 725 217 c 0
 782 217 798 243 826 319 c 1
 1024 233 l 1
 1004 177 924 -3 727 -3 c 0
 464 -3 379 109 379 397 c 2
 379 440 l 1
 383 544 383 633 389 826 c 1
 369 825 286 824 286 824 c 2
 216 823 199 811 149 779 c 1
 40 933 l 1
 90 977 185 1019 281 1019 c 2
 580 1020 l 1
EndSplineSet
Validated: 1
EndChar

StartChar: upsilon
Encoding: 965 965 348
Width: 1100
VWidth: 6
Flags: W
HStem: -4 209<406.299 606.841> 1012 20G<161.31 350.5>
VStem: 102 258<256.143 999.91> 722 266<354.524 881.208>
LayerCount: 2
Fore
SplineSet
102 364 m 0
 102 424 102 487 102 547 c 0
 102 751 101 939 80 1003 c 1
 342 1032 l 1
 359 960 360 778 360 573 c 0
 360 517 360 512 360 455 c 0
 360 335 389 205 487 205 c 0
 545 205 605 228 660 309 c 0
 718 395 722 431 722 669 c 0
 722 761 678 880 652 963 c 1
 904 1049 l 1
 966 953 988 756 988 690 c 0
 988 686 988 682 988 678 c 0
 988 666 988 653 988 641 c 0
 988 450 961 303 788 123 c 0
 725 57 605 -4 442 -4 c 0
 249 -4 102 165 102 364 c 0
EndSplineSet
Validated: 1
EndChar

StartChar: phi
Encoding: 966 966 349
Width: 1100
VWidth: 0
Flags: W
HStem: 835 205<647.639 777.347>
VStem: 46 226<310.836 846.281> 398 240<-396 -3.43256 199 825.448> 800 228<309.666 821.851>
LayerCount: 2
Fore
SplineSet
640 -11 m 1
 642 -215 643 -377 644 -398 c 1
 400 -396 l 1
 398 -375 398 -211 398 -8 c 1
 306 9 227 58 166 133 c 0
 76 243 46 389 46 569 c 0
 46 797 101 979 194 1060 c 1
 382 940 l 1
 301 856 272 765 272 573 c 0
 272 428 320 229 398 199 c 1
 398 640 l 2
 398 955 551 1040 695 1040 c 0
 834 1040 1028 1010 1028 632 c 2
 1028 621 l 2
 1028 457 1002 272 954 179 c 0
 890 56 772 9 640 -11 c 1
638 196 m 1
 772 229 798 405 800 624 c 1
 800 643 l 2
 800 812 767 835 697 835 c 2
 696 835 l 2
 658 835 636 823 636 644 c 0
 636 502 637 369 638 196 c 1
EndSplineSet
Validated: 1
EndChar

StartChar: chi
Encoding: 967 967 350
Width: 1100
VWidth: 14
Flags: W
HStem: -398 228<847.55 958.411> 822 219<40 194.583>
LayerCount: 2
Fore
SplineSet
404 372 m 1
 404 372 290 653 216 754 c 0
 173 812 118 822 40 822 c 1
 40 1041 l 1
 65 1041 87 1041 108 1041 c 0
 211 1041 274 1033 354 934 c 0
 458 805 526 576 526 576 c 1
 619 777 758 1057 758 1057 c 1
 952 959 l 1
 952 959 805 650 644 317 c 1
 705 145 840 -170 894 -170 c 0
 906 -170 910 -166 916 -150 c 1
 1060 -250 l 1
 1054 -288 1004 -398 902 -398 c 0
 697 -398 576 -38 520 78 c 1
 292 -401 l 1
 76 -287 l 1
 404 372 l 1
EndSplineSet
Validated: 1
EndChar

StartChar: psi
Encoding: 968 968 351
Width: 1100
VWidth: 6
Flags: W
HStem: -4 202<323.627 397 637 688.094> 1012 8G<92.0741 266.5 403 640>
VStem: 58 220<240.923 1001.91> 398 239<-392.108 -4 212 1020> 805 234<358.807 953.188>
LayerCount: 2
Back
SplineSet
618.5 196 m 5
 752.5 229 778.455 405.156 780.5 624 c 5
 780.5 643 l 6
 780.5 812 746.5 835 677 835 c 6
 676 835 l 6
 638.5 835 616.5 823 616.5 644 c 4
 616.5 502 617.5 369 618.5 196 c 5
619.5 -11 m 5
 621.5 -215 623.5 -377 624.5 -398 c 5
 380.5 -396 l 5
 378.5 -375 378.5 -211 378.5 -8 c 5
 286.5 9 207.5 58 146.5 133 c 4
 56.5 243 26.5 389 26.5 569 c 4
 26.5 797 80.5 978.8 173.5 1059.8 c 5
 362.5 939.8 l 5
 281.5 855.8 252.5 765 252.5 573 c 4
 252.5 427.789 300.5 229 378.5 199 c 5
 378.5 640 l 6
 378.5 955 531 1040 675 1040 c 4
 814 1040 1008.5 1010 1008.5 632 c 6
 1008.5 621 l 6
 1008.5 457 982.5 272 934.5 179 c 4
 870.5 56 751.5 9 619.5 -11 c 5
EndSplineSet
Fore
SplineSet
58 366 m 0
 58 426 58 489 58 549 c 0
 58 753 55 941 34 1005 c 1
 258 1032 l 1
 275 960 278 778 278 573 c 0
 278 517 278 503 278 446 c 0
 278 284 322 198 398 198 c 1
 399 482 403 693 403 927 c 2
 403 1020 l 1
 640 1020 l 1
 640 875 l 2
 640 639 638 475 637 212 c 1
 772 251 805 480 805 738 c 0
 805 830 779 915 747 985 c 1
 979 1046 l 1
 1015 962 1039 815 1039 749 c 0
 1039 745 1039 741 1039 737 c 0
 1039 725 1039 712 1039 700 c 0
 1039 509 1034 277 861 97 c 0
 815 49 762 29 637 8 c 1
 637 -124 l 2
 637 -239 636 -295 631 -396 c 1
 393 -395 l 1
 397 -333 398 -290 398 -235 c 0
 398 -188 397 -132 397 -46 c 0
 397 -32 397 -18 397 -4 c 1
 395 -4 394 -4 392 -4 c 0
 172 -4 58 167 58 366 c 0
EndSplineSet
Validated: 1
EndChar

StartChar: omega
Encoding: 969 969 352
Width: 1100
VWidth: 6
Flags: W
HStem: -12 212<313.429 402.304 646.706 755.947>
VStem: 43 232<228.931 801.907> 411 228<200.121 684> 793 240<234.879 817.221>
LayerCount: 2
Fore
SplineSet
409 684 m 1
 641 703 l 1
 639 618 640 524 639 431 c 1
 640 423 640 414 640 405 c 0
 642 224 647 200 676 200 c 0
 753 200 793 270 793 420 c 0
 793 633 776 815 691 947 c 1
 923 1039 l 1
 1031 858 1033 582 1033 441 c 0
 1033 218 966 -12 721 -12 c 0
 607 -12 557 20 532 104 c 1
 503 32 471 -10 337 -10 c 0
 111 -10 43 220 43 444 c 0
 43 612 57 866 167 1049 c 1
 389 949 l 1
 308 822 275 675 275 468 c 0
 275 299 313 196 367 196 c 0
 409 196 411 287 411 395 c 0
 411 404 411 414 411 424 c 0
 410 530 411 584 409 684 c 1
EndSplineSet
Validated: 1
EndChar

StartChar: Gamma
Encoding: 915 915 357
Width: 1100
VWidth: 0
Flags: W
HStem: 1219 229<433 999.868>
VStem: 166 267<0 1219>
LayerCount: 2
Fore
SplineSet
166 1448 m 1
 884 1448 l 2
 963 1448 1028 1427 1077 1410 c 1
 1002 1196 l 1
 956 1212 944 1216 882 1219 c 1
 433 1219 l 1
 433 0 l 1
 166 0 l 1
 166 1448 l 1
EndSplineSet
Validated: 1
EndChar

StartChar: Theta
Encoding: 920 920 361
Width: 1100
VWidth: 0
Flags: W
HStem: -17 221<411.248 647.167> 615 203<376 697> 1250 221<431.447 648.273>
VStem: 22 273<360.807 1033.6> 376 321<615 818> 773 270<385.869 1052.82>
LayerCount: 2
Fore
SplineSet
376 818 m 1
 697 818 l 1
 697 615 l 1
 376 615 l 1
 376 818 l 1
EndSplineSet
Refer: 38 79 N 1 0 0 1 0 0 2
Validated: 1
EndChar

StartChar: Delta
Encoding: 916 916 371
Width: 1100
VWidth: 0
Flags: W
HStem: 0 217<334 743>
LayerCount: 2
Fore
SplineSet
743 217 m 1
 712 383 553 923 552 1088 c 1
 546 907 376 374 334 217 c 1
 743 217 l 1
166 0 m 1
 1 41 l 1
 440 1444 l 1
 675 1444 l 1
 1073 46 l 1
 929 0 l 1
 166 0 l 1
EndSplineSet
Validated: 1
EndChar

StartChar: Lambda
Encoding: 923 923 372
Width: 1100
VWidth: 0
Flags: W
LayerCount: 2
Fore
SplineSet
408 530 m 1
 257 -29 l 1
 1 41 l 1
 440 1444 l 1
 675 1444 l 1
 1073 46 l 1
 801 -23 l 1
 669 549 l 1
 642 705 553 920 552 1088 c 1
 546 905 448 682 408 530 c 1
EndSplineSet
Validated: 1
EndChar

StartChar: Xi
Encoding: 926 926 373
Width: 1100
VWidth: 0
Flags: W
HStem: -3 222<108 944.948> 704 221<338 734> 1219 223<108 934>
VStem: 338 396<704 925>
LayerCount: 2
Fore
SplineSet
338 925 m 1
 734 925 l 1
 734 704 l 1
 338 704 l 1
 338 925 l 1
108 1438 m 1
 167 1442 240 1442 322 1442 c 0
 355 1442 389 1442 425 1442 c 2
 541 1442 l 2
 697 1442 840 1439 918 1439 c 2
 934 1439 l 1
 934 1219 l 1
 104 1219 l 1
 108 1438 l 1
108 219 m 1
 814 221 l 2
 873 221 945 251 945 251 c 1
 1021 34 l 1
 971 20 927 -3 824 -3 c 2
 108 -3 l 1
 108 219 l 1
EndSplineSet
Validated: 1
EndChar

StartChar: Pi
Encoding: 928 928 374
Width: 1100
VWidth: 0
Flags: W
HStem: -4 21G<712 984> 1199 214<416 692 959 1067>
VStem: 147 268<0 1185> 692 267<16.0058 1199>
LayerCount: 2
Fore
SplineSet
415 0 m 1
 147 0 l 1
 147 1185 l 1
 117 1181 88 1175 56 1168 c 1
 11 1380 l 1
 108 1403 232 1413 358 1413 c 2
 1067 1413 l 1
 1067 1199 l 1
 959 1199 l 1
 959 412 l 2
 959 274 969 138 984 10 c 1
 722 -4 l 1
 702 128 692 278 692 419 c 2
 692 1199 l 1
 542 1199 l 2
 496 1199 456 1199 416 1198 c 1
 415 0 l 1
EndSplineSet
Validated: 1
EndChar

StartChar: Sigma
Encoding: 931 931 375
Width: 1100
VWidth: 0
Flags: W
HStem: 0 219<411 944.948> 1219 223<404 934>
LayerCount: 2
Fore
SplineSet
522 717 m 1
 24 1236 l 1
 147 1441 l 1
 171 1443 190 1443 210 1443 c 0
 240 1443 273 1442 322 1442 c 0
 355 1442 389 1442 425 1442 c 2
 541 1442 l 2
 697 1442 840 1439 918 1439 c 2
 934 1439 l 1
 934 1219 l 1
 404 1219 l 1
 813 791 l 1
 806 617 l 1
 411 219 l 1
 545 220 680 220 814 221 c 0
 873 221 945 251 945 251 c 1
 1021 34 l 1
 971 20 927 -3 824 -3 c 2
 147 0 l 1
 24 199 l 1
 522 717 l 1
EndSplineSet
Validated: 1
EndChar

StartChar: Phi
Encoding: 934 934 376
Width: 1100
VWidth: 0
Flags: W
VStem: 22 229<495.825 904.079> 374 287<1 219.127 420 1004 1233.82 1434> 812 230<517.5 915.74>
LayerCount: 2
Fore
SplineSet
374 420 m 1
 374 1004 l 1
 369 1000 364 996 359 991 c 0
 296 933 251 840 251 669 c 0
 251 601 277 500 328 453 c 0
 341 440 357 429 374 420 c 1
661 412 m 1
 697 430 726 455 747 483 c 1
 783 524 811 634 812 703 c 1
 812 715 l 2
 812 790 795 890 747 957 c 0
 721 994 691 1019 659 1035 c 1
 660 864 661 715 661 460 c 2
 661 412 l 1
375 214 m 1
 294 231 218 261 167 308 c 0
 73 394 22 514 22 656 c 0
 22 927 101 1050 175 1125 c 0
 218 1169 288 1206 374 1228 c 1
 374 1333 l 1
 374 1434 l 1
 658 1434 l 1
 658 1276 l 2
 658 1264 658 1253 658 1242 c 1
 828 1214 1038 1103 1042 709 c 1
 1042 700 l 2
 1042 571 996 450 946 377 c 0
 887 292 783 233 661 209 c 1
 660 135 659 81 655 0 c 1
 370 1 l 1
 374 69 375 115 375 175 c 0
 375 187 375 200 375 214 c 1
EndSplineSet
Validated: 1
EndChar

StartChar: Psi
Encoding: 936 936 377
Width: 1100
VWidth: 6
Flags: W
HStem: 440 216<357.47 440 693 772.775>
VStem: 56 247<703.831 1408.67> 440 251<0 444.479 656 1427> 819 257<700.825 1415.02>
LayerCount: 2
Fore
SplineSet
56 839 m 0
 56 904 56 965 56 1021 c 0
 56 1210 54 1342 32 1412 c 1
 283 1441 l 1
 301 1363 303 1241 303 1050 c 0
 303 998 303 985 303 923 c 0
 303 759 318 678 443 656 c 1
 445 896 448 1111 448 1325 c 2
 448 1427 l 1
 696 1428 l 1
 696 1270 l 2
 696 1073 695 887 693 656 c 1
 810 656 819 772 819 1121 c 1
 818 1221 814 1330 805 1415 c 1
 1062 1433 l 1
 1072 1344 1076 1234 1076 1162 c 0
 1076 1148 1076 1136 1076 1125 c 0
 1076 742 1068 481 691 443 c 1
 689 290 687 138 684 0 c 1
 435 0 l 1
 439 68 440 239 440 299 c 0
 440 344 440 392 440 440 c 1
 172 465 56 638 56 839 c 0
EndSplineSet
Validated: 1
EndChar

StartChar: Omega
Encoding: 937 937 378
Width: 1100
VWidth: 0
Flags: W
HStem: 1 216<39 212 836 1041.95> 1225 217<423.836 678.477>
VStem: 20 267<459.277 1036.7> 795 262<487.168 1088.35>
LayerCount: 2
Fore
SplineSet
415 1 m 1
 39 1 l 1
 37 217 l 1
 212 217 l 1
 113 345 20 483 20 676 c 0
 20 1052 95 1157 169 1261 c 0
 238 1359 368 1442 549 1442 c 0
 797 1442 1057 1344 1057 744 c 2
 1057 732 l 2
 1057 461 930 325 836 217 c 1
 919 218 l 2
 978 218 1042 246 1042 246 c 1
 1088 33 l 1
 1039 19 1003 0 927 0 c 0
 925 0 923 0 921 0 c 2
 639 0 l 1
 592 211 l 1
 647 272 795 444 795 734 c 2
 795 753 l 2
 795 765 795 775 795 787 c 0
 795 888 793 984 757 1076 c 0
 713 1189 619 1225 552 1225 c 0
 480 1225 417 1195 373 1120 c 0
 321 1032 287 943 287 683 c 0
 287 474 411 248 472 215 c 1
 415 1 l 1
EndSplineSet
Validated: 1
EndChar

StartChar: tonos
Encoding: 900 900 379
Width: 1100
VWidth: -43
Flags: W
HStem: 1222 454
VStem: 494 236<1526.27 1625.28>
LayerCount: 2
Fore
SplineSet
336 1334 m 1
 431 1451 455 1523 494 1676 c 1
 730 1622 l 1
 697 1468 614 1338 519 1222 c 1
 336 1334 l 1
EndSplineSet
Validated: 1
EndChar

StartChar: uni03D0
Encoding: 976 976 400
Width: 1100
VWidth: 0
Flags: W
HStem: 0 202<466.173 715.286> 632 206<343.249 538.984> 1120 208<380.766 548.352>
VStem: 89 252<355.459 626.446 838 1084.3> 576 244<877.686 1088.98> 748 248<233.049 529.109>
LayerCount: 2
Back
SplineSet
588 199 m 4xf8
 710 199 728 291 728 387 c 4xf4
 728 570 580 634 378 634 c 5
 378 841 l 5
 517 841 554 883 554 1003 c 4
 554 1058 509 1122 414 1122 c 5
 354 1122 318 1083 318 993 c 4
 318 893 321 640 322 398 c 5
 419 223 524.334 199 588 199 c 4xf8
309 112 m 5
 309 83 309 59 309 39 c 4
 309 -85 306 -203 298 -300 c 5
 62 -283 l 5
 72 -183 75 -74 75 37 c 4
 75 224 66 829 66 1003 c 4
 66 1159 177 1328 376 1328 c 4
 579 1328 799 1274 799 1010 c 4xf8
 799 832 708 802 673 779 c 5
 841 749.5 973 636.5 973 382.5 c 4
 973 50 829 0 585 0 c 4
 583 0 580 0 578 0 c 4
 449 0 399 39 309 112 c 5
EndSplineSet
Fore
SplineSet
89 736 m 0xf4
 89 1156 210 1328 434 1328 c 0
 617 1328 820 1258 820 1011 c 0xf8
 820 909 786 816 690 779 c 1
 862 752 996 630 996 381 c 0
 996 106 895 0 563 0 c 0
 145 0 89 332 89 736 c 0xf4
338 838 m 1
 497 838 576 854 576 1005 c 0
 576 1084 508 1120 434 1120 c 0
 376 1120 338 1008 338 838 c 1
341 619 m 1
 341 315 460 202 578 202 c 0
 726 202 748 261 748 395 c 0xf4
 748 557 605 632 469 632 c 0
 436 632 389 629 341 619 c 1
EndSplineSet
Validated: 1
EndChar

StartChar: theta1
Encoding: 977 977 401
Width: 1100
VWidth: 0
Flags: W
HStem: -16 203<408.535 636.815> 564 228<350.88 749.032> 1140 210<409.72 683.79>
VStem: 44 257<325.901 510.789> 71 241<825.254 1049.87> 751 261<341.03 562 786 985.544>
LayerCount: 2
Fore
SplineSet
756 786 m 1xec
 739 993 747 1140 547 1140 c 0
 424 1140 312 1049 312 927 c 0
 312 813 396 792 508 792 c 0
 688 792 705 791 756 786 c 1xec
71 922 m 0
 71 1165 253 1350 542 1350 c 0
 703 1350 1007 1277 1012 647 c 1
 1012 636 l 2
 1012 469 968 312 920 217 c 0
 845 70 695 -16 530 -16 c 0
 408 -16 259 25 178 127 c 0
 108 214 60 375 44 508 c 1
 301 558 l 1xf4
 309 474 332 334 363 284 c 0
 400 224 450 187 530 187 c 0
 615 187 669 249 702 326 c 1
 724 371 743 472 751 562 c 1
 725 563 696 564 666 564 c 0
 350 564 71 598 71 922 c 0
EndSplineSet
Validated: 1
EndChar

StartChar: Upsilon1
Encoding: 978 978 402
Width: 1100
VWidth: 4
Flags: W
VStem: 398 261<0 821.734> 863 191<1070 1141.14>
LayerCount: 2
Fore
SplineSet
522 1020 m 1
 585 1165 687 1376 853 1376 c 0
 1031 1376 1054 1258 1054 1076 c 0
 1054 1074 1054 1072 1054 1070 c 1
 863 1038 l 1
 861 1080 858 1135 857 1148 c 1
 839 1135 659 907 659 646 c 2
 659 0 l 1
 398 0 l 1
 398 637 l 2
 398 818 236 1113 37 1162 c 1
 106 1405 l 1
 304 1363 468 1162 522 1020 c 1
EndSplineSet
Validated: 1
EndChar

StartChar: phi1
Encoding: 981 981 405
Width: 1100
VWidth: 6
Flags: W
VStem: 22 236<312.625 704.687> 380 271<-310.108 11.6729 228 794 1015.68 1376> 779 249<298.471 735.022>
LayerCount: 2
Fore
SplineSet
383 794 m 1
 290 740 258 627 258 482 c 0
 258 366 302 274 388 228 c 1
 387 405 385 606 383 794 c 1
389 5 m 1
 130 49 22 223 22 464 c 0
 22 779 139 968 381 1018 c 1
 380 1120 380 1211 380 1283 c 2
 380 1376 l 1
 651 1376 l 1
 651 1231 l 2
 651 1171 651 1100 652 1023 c 1
 802 1001 895 936 959 831 c 0
 1006 752 1028 639 1028 543 c 0
 1028 294 943 61 663 6 c 1
 663 -42 l 2
 663 -157 662 -213 657 -314 c 1
 385 -313 l 1
 389 -251 390 -208 390 -153 c 0
 390 -112 389 -64 389 5 c 1
693 247 m 1
 761 299 779 403 779 530 c 0
 779 536 779 540 779 546 c 0
 777 664 748 765 655 808 c 1
 658 615 661 406 662 228 c 1
 672 234 682 240 693 247 c 1
EndSplineSet
Validated: 1
EndChar

StartChar: omega1
Encoding: 982 982 406
Width: 1100
VWidth: 6
Flags: W
HStem: -12 212<313.429 402.304 646.706 755.947> 821 201<47 118 346.799 723.041 955 1037>
VStem: 43 232<228.931 716.915> 411 228<200.121 684> 793 240<234.879 707.312>
LayerCount: 2
Fore
SplineSet
45 1018 m 1
 101 1022 184 1022 262 1022 c 0
 293 1022 326 1022 360 1022 c 2
 470 1022 l 2
 619 1022 947 1018 1021 1018 c 2
 1037 1018 l 1
 1037 821 l 1
 955 821 l 1
 1008 683 1033 541 1033 441 c 0
 1033 218 966 -12 721 -12 c 0
 607 -12 557 20 532 104 c 1
 503 32 471 -10 337 -10 c 0
 111 -10 43 220 43 444 c 0
 43 560 67 691 118 821 c 1
 47 821 l 1
 45 1018 l 1
409 684 m 1
 641 703 l 1
 639 618 640 524 639 431 c 1
 640 423 640 414 640 405 c 0
 642 224 647 200 676 200 c 0
 753 200 793 270 793 420 c 0
 793 577 757 709 704 821 c 1
 368 821 l 1
 316 725 275 616 275 468 c 0
 275 299 313 196 367 196 c 0
 409 196 411 287 411 395 c 0
 411 404 411 414 411 424 c 0
 410 530 411 584 409 684 c 1
EndSplineSet
Validated: 1
EndChar

StartChar: uni03D7
Encoding: 983 983 407
Width: 1100
VWidth: 0
Flags: W
HStem: -365 187<652 833.471> 0 199<705.125 863.089> 824 196<222.081 418>
VStem: 325 241<612.446 820.851> 514 240<199.05 412.82> 866 175<-149.303 36>
LayerCount: 2
Fore
SplineSet
31 838 m 1xf4
 31 838 108 1020 334 1020 c 0
 502 1020 566 924 566 778 c 0xf4
 566 712 550 655 528 609 c 1
 528 609 591 675 654 726 c 2
 671 740 l 1
 705 880 770 1021 906 1021 c 0
 1014 1021 1040 945 1040 879 c 0
 1040 769 893 668 791 588 c 1
 762 511 754 436 754 346 c 2
 754 336 l 2
 754 268 755 199 793 199 c 0
 825 199 864 237 896 287 c 1
 1040 191 l 1
 1040 169 l 2
 1040 124 1041 81 1041 41 c 0
 1041 -216 1016 -365 650 -365 c 1
 652 -178 l 1
 855 -178 866 -156 866 26 c 0
 866 29 866 33 866 36 c 1
 839 16 804 0 747 0 c 0
 651 0 514 13 514 193 c 0xec
 514 291 536 369 558 415 c 1
 511 381 503 377 440 326 c 1
 426 313 l 1
 380 171 280 1 143 1 c 2
 142 1 l 2
 78 1 32 48 32 138 c 0
 32 294 140 352 242 432 c 1
 271 509 325 636 325 726 c 0
 325 819 306 824 279 824 c 0
 252 824 210 769 169 704 c 1
 31 838 l 1xf4
EndSplineSet
Validated: 1
EndChar

StartChar: uni03CF
Encoding: 975 975 408
Width: 1100
VWidth: 0
Flags: W
HStem: -397 193<666 810.629> -5 21G<89 360> 1435 20G<89 360>
VStem: 89 271<-5 563.372 949 1455> 852 242<-163.553 58.8496>
LayerCount: 2
Fore
SplineSet
89 -5 m 1
 89 1455 l 1
 360 1455 l 1
 360 949 l 1
 468 1107 808 1460 847 1500 c 1
 1053 1307 l 1
 862 1160 681 933 618 852 c 1
 744 722 1040 252 1094 102 c 1
 1090 -143 1057 -397 666 -397 c 1
 666 -204 l 1
 836 -204 852 -136 852 -35 c 1
 804 86 587 485 450 626 c 1
 450 626 392 558 360 480 c 1
 360 -5 l 1
 270 -5 179 -5 89 -5 c 1
EndSplineSet
Validated: 1
EndChar

StartChar: uni03D8
Encoding: 984 984 409
Width: 1100
VWidth: 0
Flags: W
HStem: -344 548<411.678 647.625> 1250 221<431.447 648.273>
VStem: 22 273<360.807 1033.6> 406 258<-344 8.62445> 773 270<385.869 1052.82>
LayerCount: 2
Fore
SplineSet
361 310 m 0
 400 245 453 204 537 204 c 0
 627 204 682 271 717 355 c 1
 748 419 772 590 773 698 c 1
 773 716 l 2
 773 833 758 987 717 1092 c 0
 672 1208 617 1250 549 1250 c 0
 475 1250 432 1223 387 1146 c 0
 334 1056 295 910 295 645 c 0
 295 539 318 383 361 310 c 0
549 1471 m 1
 718 1471 1038 1392 1043 705 c 1
 1043 693 l 2
 1043 511 996 341 946 237 c 1
 887 118 784 34 664 0 c 1
 664 -344 l 1
 406 -344 l 1
 406 -3 l 1
 314 18 224 63 167 138 c 0
 73 260 22 430 22 631 c 0
 22 1015 101 1188 175 1294 c 0
 244 1394 385 1468 549 1471 c 1
EndSplineSet
Validated: 1
EndChar

StartChar: uni03D9
Encoding: 985 985 410
Width: 1100
VWidth: 6
Flags: W
HStem: -315 512<420.251 635.107> 830 202<423 643.518>
VStem: 92 252<282.424 737.435> 390 246<-315 14.0402> 705 256<275.162 760.797>
LayerCount: 2
Fore
SplineSet
390 9 m 1
 180 59 92 230 92 464 c 0
 92 835 233 1032 525 1032 c 0
 722 1032 832 963 902 831 c 0
 943 752 961 639 961 543 c 0
 961 291 886 55 636 4 c 1
 636 -315 l 1
 390 -315 l 1
 390 9 l 1
645 247 m 1
 692 299 705 403 705 530 c 0
 705 536 705 540 705 546 c 0
 703 703 668 830 540 830 c 0
 389 830 344 690 344 482 c 0
 344 316 407 197 528 197 c 1
 583 198 609 211 645 247 c 1
EndSplineSet
Validated: 1
EndChar

StartChar: uni03DB
Encoding: 987 987 411
Width: 1100
VWidth: 4
Flags: W
HStem: -380 198<568 703.428> 807 214<446.534 1011>
VStem: 91 256<313.223 702.322> 728 232<-151.58 -49.8056>
LayerCount: 2
Fore
SplineSet
456 -3 m 0
 416 4 322 29 261 73 c 0
 127 169 91 328 91 527 c 0
 91 867 269 1018 584 1018 c 0
 728 1018 817 1021 912 1021 c 0
 944 1021 976 1021 1011 1020 c 1
 1013 802 l 1
 988 806 870 807 752 807 c 0
 684 807 617 807 566 807 c 0
 419 807 347 671 347 528 c 0
 347 254 480 212 539 197 c 0
 799 130 960 76 960 -95 c 0
 960 -224 864 -378 568 -380 c 1
 544 -182 l 1
 658 -168 728 -152 728 -99 c 0
 728 -27 544 -18 456 -3 c 0
EndSplineSet
Validated: 1
EndChar

StartChar: uni03DA
Encoding: 986 986 412
Width: 1100
VWidth: 4
Flags: W
HStem: -414 216<563 705.302> 1210 232<599.308 1035> 1230 222<487.408 1031.38>
VStem: 60 275<375.518 1010.91> 732 243<-164.857 -55.3392>
LayerCount: 2
Fore
SplineSet
518 204 m 0xb8
 773 150 975 115 975 -104 c 0
 975 -245 874 -412 563 -414 c 1
 538 -198 l 1
 658 -183 732 -166 732 -108 c 0
 732 -30 534 -21 446 -3 c 1
 173 63 60 349 60 693 c 0
 60 975 144 1149 199 1234 c 0
 275 1352 418 1452 602 1452 c 0xb8
 734 1452 821 1442 978 1442 c 0
 996 1442 1015 1442 1035 1442 c 1
 1038 1210 l 1xd8
 898 1225 685 1230 595 1230 c 0
 474 1230 335 1082 335 685 c 0
 335 406 416 226 518 204 c 0xb8
EndSplineSet
Validated: 1
EndChar

StartChar: uni03DD
Encoding: 989 989 414
Width: 1100
VWidth: -2
Flags: W
HStem: -347 242<70 256.852> 807 205<584 899.016> 1217 201<608.772 942.759>
VStem: 326 256<-34.3906 807 1012 1188.92>
LayerCount: 2
Fore
SplineSet
584 150 m 2
 584 -103 530 -347 154 -347 c 0
 124 -347 92 -346 58 -342 c 1
 70 -99 l 1
 98 -103 124 -105 148 -105 c 0
 272 -105 326 -8 326 150 c 2
 326 1064 l 2
 326 1194 392 1418 708 1418 c 0
 904 1418 930 1403 1019 1357 c 1
 928 1163 l 1
 855 1208 816 1217 726 1217 c 0
 594 1217 582 1143 582 1083 c 0
 582 1056 584 1012 584 1012 c 1
 652 1012 695 1012 768 1012 c 0
 873 1012 914 1000 944 991 c 1
 900 794 l 1
 879 801 858 807 802 807 c 2
 582 807 l 1
 584 150 l 2
EndSplineSet
Validated: 1
EndChar

StartChar: uni0190
Encoding: 400 400 415
Width: 1100
VWidth: 0
Flags: W
HStem: 0 204<388.417 776.495> 687 223<452.984 669> 1208 206<424.282 822.91>
VStem: 48 268<273.881 603.467> 104 266<979.665 1153.69>
LayerCount: 2
Fore
SplineSet
1050 172 m 1xf0
 975 114 827 0 556 0 c 0
 365 0 266 38 181 116 c 0
 84 206 48 315 48 425 c 0xf0
 48 619 136 757 296 796 c 1
 178 835 104 956 104 1074 c 0
 104 1287 289 1414 593 1414 c 2
 606 1414 l 2
 851 1414 962 1345 1040 1300 c 1
 924 1114 l 1
 848 1160 747 1208 595 1208 c 0
 469 1208 370 1156 370 1074 c 0xe8
 370 952 528 910 645 910 c 2
 650 910 l 1
 669 910 l 1
 669 686 l 1
 642 686 614 687 587 687 c 0
 385 687 316 599 316 423 c 0
 316 300 367 204 557 204 c 0
 758 204 868 296 922 346 c 1
 1050 172 l 1xf0
EndSplineSet
Validated: 1
EndChar

StartChar: uni0228
Encoding: 552 552 471
Width: 1100
VWidth: 0
Flags: W
HStem: -443 172<407.653 620.295> -3 222<377 442 664 944.948> 704 221<379 734> 1219 223<379 934>
VStem: 108 271<219 704 925 1219> 623 224<-263.703 -169.173>
LayerCount: 2
Fore
SplineSet
108 1438 m 1
 167 1442 240 1442 322 1442 c 0
 355 1442 389 1442 425 1442 c 2
 541 1442 l 2
 697 1442 840 1439 918 1439 c 2
 934 1439 l 1
 934 1219 l 1
 379 1219 l 1
 379 925 l 1
 734 925 l 1
 734 704 l 1
 379 704 l 1
 379 670 l 2
 379 444 377 305 377 219 c 1
 814 221 l 2
 873 221 945 251 945 251 c 1
 1021 34 l 1
 971 20 927 -3 824 -3 c 2
 664 -3 l 1
 663 -24 663 -62 663 -64 c 1
 760 -69 847 -126 847 -240 c 0
 847 -370 733 -443 575 -443 c 0
 509 -443 417 -425 361 -389 c 1
 421 -241 l 1
 454 -259 498 -271 549 -271 c 0
 585 -271 620 -259 623 -221 c 1
 623 -219 l 2
 623 -190 599 -164 551 -164 c 0
 503 -164 470 -166 442 -176 c 1
 442 -3 l 1
 108 -3 l 1
 108 1438 l 1
EndSplineSet
Validated: 1
EndChar

StartChar: uni0229
Encoding: 553 553 472
Width: 1100
VWidth: 0
Flags: W
HStem: -450 172<383.653 596.295> -171 367<428.014 595.703> 434 196<424.825 696> 818 203<427.494 641.802>
VStem: 98 258<274.463 403.211 606 738.031> 599 224<-270.703 -176.173> 696 261<630 763.58>
LayerCount: 2
Fore
SplineSet
356 606 m 1xfa
 469 626 563 630 696 630 c 1
 691 761 619 818 531 818 c 0
 429 818 362 722 356 606 c 1xfa
529 1021 m 0
 848 1021 957 813 957 477 c 0xfa
 957 457 956 434 956 434 c 1
 671 430 458 416 356 396 c 1
 372 285 436 196 528 196 c 0
 634 196 669 205 730 294 c 1
 930 166 l 1
 875 80 797 17 641 -3 c 1
 640 -22 639 -68 639 -71 c 1
 736 -76 823 -133 823 -247 c 0
 823 -377 709 -450 551 -450 c 0
 485 -450 393 -432 337 -396 c 1
 397 -248 l 1
 430 -266 474 -278 525 -278 c 0
 561 -278 596 -266 599 -228 c 1
 599 -226 l 2xfc
 599 -197 575 -171 527 -171 c 0
 479 -171 446 -173 418 -183 c 1
 418 0 l 1
 202 46 98 243 98 516 c 0
 98 802 246 1021 529 1021 c 0
EndSplineSet
Validated: 1
EndChar

StartChar: uni0311
Encoding: 785 785 481
Width: 1100
VWidth: -12
Flags: W
HStem: 1508 183<408.837 660.214>
LayerCount: 2
Fore
SplineSet
530 1508 m 0
 455 1508 377 1475 350 1358 c 1
 131 1388 l 1
 179 1613 311 1691 536 1691 c 0
 776 1691 905 1574 929 1397 c 1
 710 1367 l 1
 704 1445 638 1508 530 1508 c 0
EndSplineSet
Validated: 1
EndChar

StartChar: uni0312
Encoding: 786 786 483
Width: 1120
VWidth: -43
Flags: W
HStem: 1235 420
VStem: 426 152<1502.25 1624.21>
LayerCount: 2
Fore
SplineSet
317 1283 m 1
 355 1395 381 1504 426 1655 c 1
 578 1621 l 1
 560 1479 532 1338 511 1235 c 1
 317 1283 l 1
EndSplineSet
Validated: 1
EndChar

StartChar: uni0313
Encoding: 787 787 484
Width: 1100
VWidth: 26
Flags: W
HStem: 1099 498
VStem: 448 220<1376 1597> 505 163<1250.63 1376>
LayerCount: 2
Fore
SplineSet
448 1597 m 1xc0
 668 1597 l 1
 668 1382 l 2xc0
 668 1231 601 1155 472 1099 c 1
 419 1226 l 1
 479 1254 505 1277 505 1376 c 1xa0
 448 1376 l 1
 448 1597 l 1xc0
EndSplineSet
Validated: 1
EndChar

StartChar: uni0314
Encoding: 788 788 485
Width: 1100
VWidth: 26
Flags: W
HStem: 1099 498
VStem: 431 220<1376 1597> 431 163<1250.63 1376>
LayerCount: 2
Fore
SplineSet
651 1597 m 1xc0
 651 1376 l 1xc0
 594 1376 l 1xa0
 594 1277 620 1254 680 1226 c 1
 627 1099 l 1
 498 1155 431 1231 431 1382 c 2
 431 1597 l 1
 651 1597 l 1xc0
EndSplineSet
Validated: 1
EndChar

StartChar: uni0312
Encoding: 786 786 496
Width: 1100
VWidth: -43
Flags: W
HStem: 1236 419
VStem: 406 190<1503.25 1624.49>
LayerCount: 2
Fore
SplineSet
297 1283 m 1
 335 1395 361 1504 406 1655 c 1
 596 1622 l 1
 578 1480 551 1339 530 1236 c 1
 297 1283 l 1
EndSplineSet
Validated: 1
EndChar

StartChar: ogonek
Encoding: 731 731 500
Width: 1100
VWidth: 12
Flags: W
HStem: -383 136<551.729 767.66>
VStem: 344 200<-234.682 -77.2191>
LayerCount: 2
Fore
SplineSet
428 65 m 1
 698 59 l 1
 640 -36 544 -89 544 -173 c 2
 544 -175 l 2
 544 -218 590 -247 634 -247 c 0
 692 -247 740 -233 773 -215 c 1
 824 -307 l 1
 768 -343 683 -383 592 -383 c 0
 508 -383 344 -337 344 -190 c 0
 344 -61 391 4 428 65 c 1
EndSplineSet
Validated: 1
EndChar

StartChar: uni01EA
Encoding: 490 490 503
Width: 1100
VWidth: 0
Flags: W
HStem: -421 136<561.202 776.766> 1250 221<431.447 648.273>
VStem: 22 273<360.807 1033.6> 353 200<-272.682 -113.518> 773 270<385.869 1052.82>
LayerCount: 2
Fore
SplineSet
361 310 m 0
 400 245 453 204 537 204 c 0
 627 204 682 271 717 355 c 1
 748 419 772 590 773 698 c 1
 773 716 l 2
 773 833 758 987 717 1092 c 0
 672 1208 617 1250 549 1250 c 0
 475 1250 432 1223 387 1146 c 0
 334 1056 295 910 295 645 c 0
 295 539 318 383 361 310 c 0
549 1471 m 1
 718 1471 1038 1392 1043 705 c 1
 1043 693 l 2
 1043 511 996 341 946 237 c 1
 893 130 806 53 702 13 c 1
 644 -77 553 -130 553 -211 c 2
 553 -213 l 2
 553 -256 599 -285 643 -285 c 0
 701 -285 749 -271 782 -253 c 1
 833 -345 l 1
 777 -381 693 -421 602 -421 c 0
 518 -421 353 -375 353 -228 c 0
 353 -121 386 -58 418 -5 c 1
 322 15 227 60 167 138 c 0
 73 260 22 430 22 631 c 0
 22 1015 101 1188 175 1294 c 0
 244 1394 385 1468 549 1471 c 1
EndSplineSet
Validated: 1
EndChar

StartChar: uni01EB
Encoding: 491 491 504
Width: 1100
VWidth: 0
Flags: W
HStem: -427 136<497.729 713.66> 830 202<423 643.518>
VStem: 92 252<284.943 737.435> 290 200<-278.682 -120.712> 705 256<275.426 760.797>
LayerCount: 2
Fore
SplineSet
370 14 m 1xd8
 174 70 92 237 92 464 c 0xe8
 92 835 233 1032 525 1032 c 0
 722 1032 832 963 902 831 c 0
 943 752 961 639 961 543 c 0
 961 291 886 56 637 4 c 1
 579 -84 490 -136 490 -217 c 2
 490 -219 l 2
 490 -262 536 -291 580 -291 c 0
 638 -291 686 -277 719 -259 c 1
 770 -351 l 1
 714 -387 629 -427 538 -427 c 0
 454 -427 290 -381 290 -234 c 0
 290 -110 334 -45 370 14 c 1xd8
645 247 m 1
 692 299 705 403 705 530 c 0
 705 536 705 540 705 546 c 0
 703 703 668 830 540 830 c 0
 389 830 344 690 344 482 c 0
 344 316 407 197 528 197 c 1
 583 198 609 211 645 247 c 1
EndSplineSet
Validated: 1
EndChar

StartChar: uni0326
Encoding: 806 806 507
Width: 1100
VWidth: 26
Flags: W
HStem: -489 493
VStem: 400 270<-217 4> 456 214<-330.504 -217>
LayerCount: 2
Fore
SplineSet
400 4 m 1xc0
 670 4 l 1
 670 -211 l 2xc0
 670 -362 633 -430 513 -489 c 1
 379 -364 l 1
 432 -322 456 -283 456 -217 c 1xa0
 400 -217 l 1
 400 4 l 1xc0
EndSplineSet
Validated: 1
EndChar

StartChar: Hbar
Encoding: 294 294 509
Width: 1100
VWidth: 0
Flags: W
HStem: 653 234<338.771 710> 1161 215<-20 64 334 709 978 1067>
VStem: 64 269<0 630.414 855 1161 1376 1439> 710 268<0 653 887 1161 1376 1436>
LayerCount: 2
Fore
SplineSet
709 1161 m 1
 333 1161 l 1
 333 855 l 1
 430 878 492 887 618 887 c 2
 710 887 l 1
 710 1009 709 1093 709 1161 c 1
64 1376 m 1
 64 1439 l 1
 334 1441 l 1
 334 1376 l 1
 709 1376 l 1
 709 1395 709 1415 709 1436 c 1
 978 1436 l 1
 978 1376 l 1
 1067 1376 l 1
 1067 1161 l 1
 978 1161 l 1
 978 0 l 1
 710 0 l 1
 710 653 l 1
 676 653 l 2
 523 653 457 649 333 621 c 1
 333 239 335 202 335 0 c 1
 64 0 l 1
 64 1161 l 1
 -20 1161 l 1
 -20 1376 l 1
 64 1376 l 1
EndSplineSet
Validated: 1
EndChar

StartChar: hbar
Encoding: 295 295 510
Width: 1100
VWidth: -2
Flags: W
HStem: 812 200<422.848 636.689> 1096 216<4 101 353 664>
VStem: 107 246<0 741.95 931.803 1096 1312 1400.69> 695 244<23.8544 749.663>
LayerCount: 2
Fore
SplineSet
939 566 m 2
 939 218 l 2
 939 136 946 61 967 22 c 1
 738 -32 l 1
 715 0 695 66 695 176 c 2
 694 491 l 2
 694 800 612 812 520 812 c 0
 448 812 386 737 353 682 c 1
 353 0 l 1
 107 0 l 1
 108 1096 l 1
 4 1096 l 1
 4 1312 l 1
 101 1312 l 1
 98 1344 95 1374 92 1402 c 1
 340 1411 l 1
 344 1381 347 1348 349 1312 c 1
 664 1312 l 1
 664 1096 l 1
 353 1096 l 1
 351 1036 344 989 330 929 c 1
 367 957 440 1012 554 1012 c 0
 804 1012 939 888 939 566 c 2
EndSplineSet
Validated: 1
EndChar

StartChar: Lslash
Encoding: 321 321 512
Width: 1100
VWidth: 0
Flags: W
HStem: -3 229<517 999.868>
VStem: 250 267<226 594 1019 1444>
LayerCount: 2
Fore
SplineSet
517 1019 m 1
 687 1121 l 1
 804 925 l 1
 517 753 l 1
 517 226 l 1
 882 226 l 1
 944 229 956 233 1002 249 c 1
 1077 34 l 1
 1028 17 963 -3 884 -3 c 2
 250 -3 l 1
 250 594 l 1
 111 511 l 1
 -5 707 l 1
 250 859 l 1
 250 1444 l 1
 517 1444 l 1
 517 1019 l 1
EndSplineSet
Validated: 1
EndChar

StartChar: lslash
Encoding: 322 322 513
Width: 1100
VWidth: -2
Flags: W
HStem: -18 200<627.352 883.717> 1230 200<133.45 364>
VStem: 364 255<191.813 587 1004 1230>
LayerCount: 2
Fore
SplineSet
364 1430 m 2
 618 1430 l 1
 618 1338 619 1177 619 1004 c 1
 814 1121 l 1
 931 925 l 1
 619 739 l 1
 619 489 620 274 620 274 c 2
 620 210 636 182 728 182 c 0
 821 182 881 215 941 273 c 1
 1038 83 l 1
 952 12 801 -18 677 -18 c 0
 592 -18 501 -4 457 20 c 0
 372 67 364 147 364 206 c 2
 364 587 l 1
 238 511 l 1
 121 707 l 1
 364 852 l 1
 364 1230 l 1
 315 1230 224 1224 129 1202 c 1
 100 1388 l 1
 194 1416 284 1430 364 1430 c 2
EndSplineSet
Validated: 1
EndChar

StartChar: tbar
Encoding: 359 359 514
Width: 1100
VWidth: 0
Flags: W
HStem: -6 202<492.235 780.078> 424 192<6 198 454 771> 812 204<459 887>
VStem: 198 252<236.379 424 616 812 1020 1254>
LayerCount: 2
Fore
SplineSet
454 616 m 1
 771 616 l 1
 771 424 l 1
 450 424 l 1
 450 396 l 2
 450 262 489 214 573 200 c 0
 591 198 625 196 638 196 c 0
 703 196 733 210 758 224 c 0
 810 252 821 320 828 340 c 1
 1036 240 l 1
 1026 212 972 100 860 36 c 0
 802 2 725 -6 640 -6 c 0
 456 -6 308 16 237 164 c 0
 202 236 198 312 198 398 c 2
 198 424 l 1
 6 424 l 1
 6 616 l 1
 202 616 l 1
 203 673 205 738 207 812 c 1
 193 812 l 2
 165 812 137 808 111 800 c 1
 94 1004 l 1
 118 1012 163 1016 196 1016 c 2
 211 1016 l 1
 211 1086 212 1190 212 1260 c 1
 463 1254 l 1
 463 1188 462 1088 461 1020 c 1
 570 1020 882 1016 890 1016 c 1
 887 812 l 1
 750 812 592 814 459 814 c 1
 456 738 455 673 454 616 c 1
EndSplineSet
Validated: 1
EndChar

StartChar: Tbar
Encoding: 358 358 515
Width: 1100
VWidth: 0
Flags: W
HStem: -10 21G<374 647> -10 21G<374 647> 424 192<126 374 647 891> 1219 226<42 374 647 955.961>
VStem: 374 273<-10 424 616 1219>
LayerCount: 2
Fore
SplineSet
647 616 m 1xb8
 891 616 l 1
 891 424 l 1
 647 424 l 1
 647 -10 l 1
 374 -10 l 1
 374 424 l 1
 126 424 l 1
 126 616 l 1
 374 616 l 1
 374 1219 l 1
 166 1219 122 1218 42 1218 c 1
 42 1443 l 1
 170 1443 647 1445 844 1445 c 0
 921 1445 995 1435 1020 1427 c 1
 956 1206 l 1
 956 1206 902 1219 839 1219 c 2
 647 1219 l 1
 647 616 l 1xb8
EndSplineSet
Validated: 1
EndChar

StartChar: quoteleft
Encoding: 8216 8216 526
Width: 1100
VWidth: -25
Flags: W
VStem: 293 325<845 1109.92>
LayerCount: 2
Fore
SplineSet
618 826 m 1
 293 845 l 1
 295 1199 495 1444 656 1557 c 1
 799 1393 l 1
 703 1268 624 1074 618 826 c 1
EndSplineSet
Validated: 1
EndChar

StartChar: quoteright
Encoding: 8217 8217 527
Width: 1100
VWidth: -25
Flags: W
HStem: 1449 20G<558 730.5>
VStem: 569 323<1245.05 1430.78>
LayerCount: 2
Fore
SplineSet
569 1469 m 1
 892 1429 l 1
 867 1076 651 844 483 742 c 1
 351 915 l 1
 455 1033 547 1222 569 1469 c 1
EndSplineSet
Validated: 1
EndChar

StartChar: quotesinglbase
Encoding: 8218 8218 528
Width: 1100
VWidth: -25
Flags: W
VStem: 436 322<106.053 291.781>
LayerCount: 2
Fore
SplineSet
436 330 m 1
 758 290 l 1
 733 -63 518 -295 350 -397 c 1
 218 -224 l 1
 322 -106 414 83 436 330 c 1
EndSplineSet
Validated: 1
EndChar

StartChar: quotereversed
Encoding: 8219 8219 529
Width: 1100
VWidth: -25
Flags: W
HStem: 1449 20G<512.5 685>
VStem: 351 323<1245.05 1430.78>
LayerCount: 2
Fore
SplineSet
674 1469 m 1
 696 1222 788 1033 892 915 c 1
 760 742 l 1
 592 844 376 1076 351 1429 c 1
 674 1469 l 1
EndSplineSet
Validated: 1
EndChar

StartChar: quotedblleft
Encoding: 8220 8220 530
Width: 1100
VWidth: -25
Flags: W
LayerCount: 2
Fore
SplineSet
403 992 m 0
 393 958 388 926 383 893 c 1
 83 957 l 1
 88 998 95 1033 107 1074 c 0
 181 1332 270 1495 391 1598 c 1
 590 1441 l 1
 532 1392 461 1195 403 992 c 0
848 976 m 0
 838 942 833 910 828 877 c 1
 528 941 l 1
 533 982 539 1017 551 1058 c 0
 625 1316 715 1479 836 1582 c 1
 1034 1425 l 1
 976 1376 906 1179 848 976 c 0
EndSplineSet
Validated: 1
EndChar

StartChar: quotedblright
Encoding: 8221 8221 531
Width: 1100
VWidth: -25
Flags: W
LayerCount: 2
Fore
SplineSet
720 1379 m 0
 730 1413 735 1444 740 1477 c 1
 1040 1413 l 1
 1035 1372 1029 1337 1017 1296 c 0
 943 1038 853 875 732 772 c 1
 534 930 l 1
 592 979 662 1176 720 1379 c 0
276 1395 m 0
 286 1429 290 1460 295 1493 c 1
 595 1429 l 1
 590 1388 584 1353 572 1312 c 0
 498 1054 408 891 287 788 c 1
 89 946 l 1
 147 995 218 1192 276 1395 c 0
EndSplineSet
Validated: 1
EndChar

StartChar: quotedblbase
Encoding: 8222 8222 532
Width: 1100
VWidth: -25
Flags: W
LayerCount: 2
Fore
SplineSet
670 232 m 0
 680 266 684 297 689 330 c 1
 989 266 l 1
 984 225 978 190 966 149 c 0
 892 -109 802 -272 681 -375 c 1
 483 -217 l 1
 541 -168 612 29 670 232 c 0
225 247 m 0
 235 281 240 313 245 346 c 1
 545 282 l 1
 540 241 534 206 522 165 c 0
 448 -93 358 -256 237 -359 c 1
 38 -202 l 1
 96 -153 167 44 225 247 c 0
EndSplineSet
Validated: 1
EndChar

StartChar: uni201F
Encoding: 8223 8223 533
Width: 1100
VWidth: -25
Flags: W
LayerCount: 2
Fore
SplineSet
403 1379 m 0
 461 1176 531 979 589 930 c 1
 391 772 l 1
 270 875 180 1038 106 1296 c 0
 94 1337 88 1372 83 1413 c 1
 383 1477 l 1
 388 1444 393 1413 403 1379 c 0
847 1395 m 0
 905 1192 976 995 1034 946 c 1
 836 788 l 1
 715 891 625 1054 551 1312 c 0
 539 1353 533 1388 528 1429 c 1
 828 1493 l 1
 833 1460 837 1429 847 1395 c 0
EndSplineSet
Validated: 1
EndChar

StartChar: uni2016
Encoding: 8214 8214 534
Width: 1100
VWidth: 66
Flags: W
VStem: 178 273<-194.108 1492> 659 273<-194.108 1492>
LayerCount: 2
Fore
SplineSet
177 152 m 0
 177 517 168 1111 168 1399 c 2
 168 1492 l 1
 439 1492 l 1
 439 1347 l 2
 439 1070 451 558 451 224 c 2
 451 74 l 2
 451 -41 450 -97 445 -198 c 1
 173 -197 l 1
 177 -135 178 -92 178 -37 c 0
 178 10 177 66 177 152 c 0
658 152 m 0
 658 517 649 1111 649 1399 c 2
 649 1492 l 1
 920 1492 l 1
 920 1347 l 2
 920 1070 932 558 932 224 c 2
 932 74 l 2
 932 -41 931 -97 926 -198 c 1
 654 -197 l 1
 658 -135 659 -92 659 -37 c 0
 659 10 658 66 658 152 c 0
EndSplineSet
Validated: 1
EndChar

StartChar: underscoredbl
Encoding: 8215 8215 535
Width: 1100
VWidth: 41
Flags: W
HStem: -530 174<66 1012> -258 174<66 1012>
LayerCount: 2
Fore
SplineSet
66 -356 m 1
 1012 -356 l 1
 1012 -530 l 1
 62 -530 l 1
 66 -356 l 1
66 -84 m 1
 1012 -84 l 1
 1012 -258 l 1
 62 -258 l 1
 66 -84 l 1
EndSplineSet
Validated: 1
EndChar

StartChar: daggerdbl
Encoding: 8225 8225 536
Width: 1100
VWidth: 66
Flags: W
HStem: 170 224<100 376 651 944> 946 222<97.0955 369 643 939>
VStem: 368 271<-194.108 173 402 946 1170 1492>
LayerCount: 2
Fore
SplineSet
371 946 m 1
 292 948 202 954 91 961 c 1
 91 991 90 1041 90 1088 c 0
 90 1123 91 1157 92 1179 c 1
 201 1172 291 1169 369 1168 c 1
 368 1256 368 1335 368 1399 c 2
 368 1492 l 1
 639 1492 l 1
 639 1347 l 2
 639 1295 639 1236 640 1170 c 1
 733 1173 820 1177 939 1177 c 1
 941 957 l 1
 824 957 737 953 643 949 c 1
 646 769 649 573 650 399 c 1
 748 397 839 394 944 394 c 1
 944 170 l 1
 840 170 748 171 651 173 c 1
 651 74 l 2
 651 -41 650 -97 645 -198 c 1
 373 -197 l 1
 377 -135 378 -92 378 -37 c 0
 378 10 377 66 377 152 c 0
 377 160 377 167 377 175 c 1
 349 175 321 176 292 176 c 0
 232 176 168 174 100 170 c 1
 98 394 l 1
 202 400 291 401 376 402 c 1
 375 576 373 768 371 946 c 1
EndSplineSet
Validated: 1
EndChar

StartChar: dagger
Encoding: 8224 8224 537
Width: 1100
VWidth: 66
Flags: W
HStem: 946 222<97.0955 369 643 939>
VStem: 378 273<-194.108 946 1170 1492>
LayerCount: 2
Fore
SplineSet
371 946 m 1
 292 948 202 954 91 961 c 1
 91 991 90 1041 90 1088 c 0
 90 1123 91 1157 92 1179 c 1
 201 1172 291 1169 369 1168 c 1
 368 1256 368 1335 368 1399 c 2
 368 1492 l 1
 639 1492 l 1
 639 1347 l 2
 639 1295 639 1236 640 1170 c 1
 733 1173 820 1177 939 1177 c 1
 941 957 l 1
 824 957 737 953 643 949 c 1
 646 704 651 430 651 224 c 2
 651 74 l 2
 651 -41 650 -97 645 -198 c 1
 373 -197 l 1
 377 -135 378 -92 378 -37 c 0
 378 10 377 66 377 152 c 0
 377 372 374 676 371 946 c 1
EndSplineSet
Validated: 1
EndChar

StartChar: bullet
Encoding: 8226 8226 538
Width: 1100
VWidth: 0
Flags: W
HStem: 138 732<345.603 694.397>
VStem: 154 732<329.603 678.397>
LayerCount: 2
Fore
SplineSet
154 504 m 0
 154 706 318 870 520 870 c 0
 722 870 886 706 886 504 c 0
 886 302 722 138 520 138 c 0
 318 138 154 302 154 504 c 0
EndSplineSet
Validated: 1
EndChar

StartChar: uni2023
Encoding: 8227 8227 539
Width: 1100
VWidth: 0
Flags: W
LayerCount: 2
Fore
SplineSet
200 964 m 1
 864 581 l 1
 864 437 l 1
 204 104 l 1
 172 192 l 1
 172 888 l 1
 200 964 l 1
EndSplineSet
Validated: 1
EndChar

StartChar: arrowleft
Encoding: 8592 8592 541
Width: 1100
VWidth: 6
Flags: W
HStem: 386 244<385 1066>
LayerCount: 2
Fore
SplineSet
1072 389 m 1
 1027 387 977 386 927 386 c 0
 827 386 726 389 658 389 c 0
 617 389 578 389 539 389 c 0
 494 389 429 390 362 390 c 1
 438 305 499 213 530 95 c 1
 312 8 l 1
 274 157 174 309 16 450 c 1
 16 565 l 1
 160 695 297 856 320 996 c 1
 548 925 l 1
 523 806 459 714 385 634 c 1
 484 633 586 633 660 633 c 0
 703 633 794 630 894 630 c 0
 951 630 1011 631 1066 634 c 1
 1066 512 l 1
 1072 389 l 1
EndSplineSet
Validated: 1
EndChar

StartChar: arrowup
Encoding: 8593 8593 542
Width: 1100
VWidth: 66
Flags: W
VStem: 368 274<-134 1020>
LayerCount: 2
Fore
SplineSet
564 1396 m 1
 694 1252 855 1115 995 1092 c 1
 924 864 l 1
 808 888 717 948 639 1020 c 1
 640 791 642 570 642 288 c 2
 642 138 l 2
 642 23 641 -33 636 -134 c 1
 364 -134 l 1
 368 -72 369 -29 369 26 c 0
 369 73 368 130 368 216 c 2
 368 1031 l 1
 289 963 202 910 94 882 c 1
 7 1100 l 1
 156 1138 308 1238 449 1396 c 1
 564 1396 l 1
EndSplineSet
Validated: 1
EndChar

StartChar: arrowright
Encoding: 8594 8594 543
Width: 1100
VWidth: 6
Flags: W
HStem: 384 244<28 709>
LayerCount: 2
Fore
SplineSet
22 628 m 1
 67 630 117 631 167 631 c 0
 267 631 368 628 436 628 c 0
 477 628 516 628 555 628 c 0
 600 628 665 628 732 628 c 1
 656 713 595 804 564 922 c 1
 782 1009 l 1
 820 860 920 708 1078 567 c 1
 1078 452 l 1
 934 322 797 161 774 21 c 1
 546 92 l 1
 571 211 635 304 709 384 c 1
 676 384 643 384 610 384 c 0
 545 384 483 384 434 384 c 0
 391 384 300 387 200 387 c 0
 143 387 83 386 28 383 c 1
 28 505 l 1
 22 628 l 1
EndSplineSet
Validated: 1
EndChar

StartChar: arrowdown
Encoding: 8595 8595 544
Width: 1100
VWidth: 66
Flags: W
VStem: 368 274<283 1433.11>
LayerCount: 2
Fore
SplineSet
564 -92 m 1
 449 -92 l 1
 308 66 156 166 7 204 c 1
 94 422 l 1
 202 394 289 340 368 272 c 1
 368 1088 l 2
 368 1174 369 1229 369 1276 c 0
 369 1331 368 1374 364 1436 c 1
 636 1438 l 1
 641 1337 642 1281 642 1166 c 2
 642 1016 l 2
 642 734 640 512 639 283 c 1
 717 355 808 416 924 440 c 1
 995 212 l 1
 855 189 694 52 564 -92 c 1
EndSplineSet
Validated: 1
EndChar

StartChar: arrowboth
Encoding: 8596 8596 545
Width: 1100
VWidth: 6
Flags: W
HStem: 386 244<349 729>
LayerCount: 2
Fore
SplineSet
1100 455 m 1
 956 325 819 164 796 24 c 1
 568 95 l 1
 593 213 655 306 729 385 c 1
 689 386 652 386 622 386 c 0
 581 386 542 386 503 386 c 0
 458 386 393 387 326 387 c 1
 402 302 463 210 494 92 c 1
 276 5 l 1
 238 154 138 306 -20 447 c 1
 -20 562 l 1
 124 692 261 853 284 993 c 1
 512 922 l 1
 487 803 423 711 349 631 c 1
 448 630 550 630 624 630 c 0
 652 630 699 629 756 628 c 1
 679 713 617 806 586 925 c 1
 804 1012 l 1
 842 863 942 711 1100 570 c 1
 1100 455 l 1
EndSplineSet
Validated: 1
EndChar

StartChar: arrowupdn
Encoding: 8597 8597 546
Width: 1100
VWidth: 66
Flags: W
VStem: 368 274<288 1020>
LayerCount: 2
Fore
SplineSet
564 1396 m 1
 694 1252 855 1115 995 1092 c 1
 924 864 l 1
 808 888 717 948 639 1020 c 1
 640 791 642 570 642 288 c 2
 642 269 l 1
 722 338 810 393 919 422 c 1
 1006 204 l 1
 857 166 705 66 564 -92 c 1
 449 -92 l 1
 319 52 158 189 18 212 c 1
 89 440 l 1
 202 416 291 358 368 288 c 1
 368 1031 l 1
 289 963 202 910 94 882 c 1
 7 1100 l 1
 156 1138 308 1238 449 1396 c 1
 564 1396 l 1
EndSplineSet
Validated: 1
EndChar

StartChar: uni21C4
Encoding: 8644 8644 547
Width: 1100
VWidth: 6
Flags: W
HStem: 197 244<358 1039> 1024 244<48 728>
LayerCount: 2
Fore
SplineSet
42 1268 m 1
 87 1270 137 1271 187 1271 c 0
 287 1271 388 1268 456 1268 c 0
 497 1268 536 1268 575 1268 c 0
 620 1268 685 1268 752 1268 c 1
 676 1353 615 1445 584 1563 c 1
 802 1650 l 1
 840 1501 940 1349 1098 1208 c 1
 1098 1093 l 1
 954 963 817 802 794 662 c 1
 566 733 l 1
 591 852 654 944 728 1024 c 1
 695 1024 661 1024 629 1024 c 0
 564 1024 503 1024 454 1024 c 0
 411 1024 320 1027 220 1027 c 0
 163 1027 103 1026 48 1023 c 1
 48 1145 l 1
 42 1268 l 1
1045 200 m 1
 1000 198 950 197 900 197 c 0
 800 197 699 200 631 200 c 0
 590 200 551 200 512 200 c 0
 467 200 401 201 334 201 c 1
 410 116 472 24 503 -94 c 1
 285 -181 l 1
 247 -32 147 120 -11 261 c 1
 -11 376 l 1
 133 506 270 667 293 807 c 1
 521 736 l 1
 496 617 432 525 358 445 c 1
 457 444 559 444 633 444 c 0
 676 444 767 441 867 441 c 0
 924 441 984 442 1039 445 c 1
 1039 323 l 1
 1045 200 l 1
EndSplineSet
Validated: 1
EndChar

StartChar: uni21C6
Encoding: 8646 8646 548
Width: 1100
VWidth: 6
Flags: W
HStem: 200 245<54 734> 1024 244<364 1045>
LayerCount: 2
Fore
SplineSet
1051 1268 m 1
 1045 1145 l 1
 1045 1023 l 1
 990 1026 930 1027 873 1027 c 0
 773 1027 682 1024 639 1024 c 0
 590 1024 528 1024 463 1024 c 0
 430 1024 397 1024 364 1024 c 1
 438 944 502 852 527 733 c 1
 299 662 l 1
 276 802 139 963 -5 1093 c 1
 -5 1208 l 1
 153 1349 253 1501 291 1650 c 1
 509 1563 l 1
 478 1445 416 1353 340 1268 c 1
 407 1268 473 1268 518 1268 c 0
 557 1268 596 1268 637 1268 c 0
 705 1268 806 1271 906 1271 c 0
 956 1271 1006 1270 1051 1268 c 1
48 200 m 1
 54 323 l 1
 54 445 l 1
 109 442 169 441 226 441 c 0
 326 441 417 444 460 444 c 0
 534 444 635 444 734 445 c 1
 660 525 597 617 572 736 c 1
 800 807 l 1
 823 667 960 506 1104 376 c 1
 1104 261 l 1
 946 120 846 -32 808 -181 c 1
 590 -94 l 1
 621 24 682 116 758 201 c 1
 691 201 626 200 581 200 c 0
 542 200 503 200 462 200 c 0
 394 200 293 197 193 197 c 0
 143 197 93 198 48 200 c 1
EndSplineSet
Validated: 1
EndChar

StartChar: uni21C9
Encoding: 8649 8649 549
Width: 1100
VWidth: 6
Flags: W
HStem: 203 244<18 699> 1024 245<22 703>
LayerCount: 2
Fore
SplineSet
12 444 m 1
 57 446 107 447 157 447 c 0
 257 447 358 444 426 444 c 0
 467 444 506 444 545 444 c 0
 590 444 655 443 722 443 c 1
 646 528 585 620 554 738 c 1
 579 857 629 944 703 1024 c 1
 604 1025 502 1025 428 1025 c 0
 385 1025 294 1028 194 1028 c 0
 137 1028 77 1027 22 1024 c 1
 22 1146 l 1
 16 1269 l 1
 61 1271 111 1272 161 1272 c 0
 261 1272 362 1269 430 1269 c 0
 471 1269 510 1269 549 1269 c 0
 594 1269 659 1268 726 1268 c 1
 650 1353 589 1445 558 1563 c 1
 776 1650 l 1
 814 1501 914 1349 1072 1208 c 1
 1072 1093 l 1
 958 990 848 867 796 751 c 1
 845 626 936 501 1068 383 c 1
 1068 268 l 1
 924 138 787 -23 764 -163 c 1
 536 -92 l 1
 561 27 625 119 699 199 c 1
 600 200 498 200 424 200 c 0
 381 200 290 203 190 203 c 0
 133 203 73 202 18 199 c 1
 18 321 l 1
 12 444 l 1
EndSplineSet
Validated: 1
EndChar

StartChar: uni21C5
Encoding: 8645 8645 550
Width: 1100
VWidth: 66
Flags: W
VStem: 196 239<-134 1020> 692 239<178 1329.11>
LayerCount: 2
Fore
SplineSet
392 1396 m 1
 522 1252 588 1126 669 922 c 1
 508 821 l 1
 476 897 432 1020 432 1020 c 1
 433 791 435 570 435 288 c 2
 435 138 l 2
 435 23 434 -33 429 -134 c 1
 192 -134 l 1
 196 -72 197 -29 197 26 c 0
 197 73 196 130 196 216 c 2
 196 1031 l 1
 164 985 148 941 84 845 c 1
 -64 969 l 1
 0 1073 136 1238 277 1396 c 1
 392 1396 l 1
888 -197 m 1
 744 -197 l 1
 649 -74 543 130 459 274 c 1
 600 371 l 1
 664 275 660 213 692 167 c 1
 692 983 l 2
 692 1069 693 1125 693 1172 c 0
 693 1227 692 1270 688 1332 c 1
 925 1333 l 1
 930 1232 931 1176 931 1061 c 2
 931 911 l 2
 931 629 929 407 928 178 c 1
 928 178 980 269 1012 345 c 1
 1180 241 l 1
 1108 145 1018 -53 888 -197 c 1
EndSplineSet
Validated: 1
EndChar

StartChar: uni21C8
Encoding: 8648 8648 551
Width: 1100
VWidth: 66
Flags: W
VStem: 196 239<-134 1020> 692 239<-133.108 1018>
LayerCount: 2
Fore
SplineSet
888 1393 m 1
 1018 1249 1108 1051 1180 955 c 1
 1012 851 l 1
 980 927 928 1018 928 1018 c 1
 929 789 931 567 931 285 c 2
 931 135 l 2
 931 20 930 -36 925 -137 c 1
 688 -136 l 1
 692 -74 693 -31 693 24 c 0
 693 71 692 127 692 213 c 2
 692 1029 l 1
 639 985 625 891 610 821 c 1
 508 821 l 1
 480 894 454 1002 432 1020 c 1
 433 791 435 570 435 288 c 2
 435 138 l 2
 435 23 434 -33 429 -134 c 1
 192 -134 l 1
 196 -72 197 -29 197 26 c 0
 197 73 196 130 196 216 c 2
 196 1031 l 1
 164 985 148 941 84 845 c 1
 -64 969 l 1
 0 1073 105 1238 246 1396 c 1
 392 1396 l 1
 461 1319 529 1227 571 1122 c 1
 604 1212 659 1308 759 1393 c 1
 888 1393 l 1
EndSplineSet
Validated: 1
EndChar

StartChar: uni21CA
Encoding: 8650 8650 552
Width: 1100
VWidth: 66
Flags: W
VStem: 196 239<176 1327.11> 692 239<178 1329.11>
LayerCount: 2
Fore
SplineSet
888 -197 m 1
 773 -197 l 1
 667 -106 608 -3 574 92 c 1
 535 -20 466 -117 392 -199 c 1
 277 -199 l 1
 136 -41 0 123 -64 227 c 1
 84 351 l 1
 148 255 164 211 196 165 c 1
 196 981 l 2
 196 1067 197 1123 197 1170 c 0
 197 1225 196 1268 192 1330 c 1
 429 1331 l 1
 434 1230 435 1174 435 1059 c 2
 435 909 l 2
 435 627 433 405 432 176 c 1
 432 176 476 299 508 375 c 1
 600 371 l 1
 664 275 660 213 692 167 c 1
 692 983 l 2
 692 1069 693 1125 693 1172 c 0
 693 1227 692 1270 688 1332 c 1
 925 1333 l 1
 930 1232 931 1176 931 1061 c 2
 931 911 l 2
 931 629 929 407 928 178 c 1
 928 178 980 269 1012 345 c 1
 1180 241 l 1
 1108 145 1018 -53 888 -197 c 1
EndSplineSet
Validated: 1
EndChar

StartChar: uni21C7
Encoding: 8647 8647 553
Width: 1100
VWidth: 6
Flags: W
HStem: 200 244<358 1039> 1028 244<354 1035>
LayerCount: 2
Fore
SplineSet
1045 444 m 1
 1039 321 l 1
 1039 199 l 1
 984 202 924 203 867 203 c 0
 767 203 676 200 633 200 c 0
 559 200 457 200 358 199 c 1
 432 119 496 27 521 -92 c 1
 293 -163 l 1
 270 -23 133 138 -11 268 c 1
 -11 383 l 1
 121 501 212 626 261 751 c 1
 209 867 99 990 -15 1093 c 1
 -15 1208 l 1
 143 1349 243 1501 281 1650 c 1
 499 1563 l 1
 468 1445 407 1353 331 1268 c 1
 398 1268 463 1269 508 1269 c 0
 547 1269 586 1269 627 1269 c 0
 695 1269 796 1272 896 1272 c 0
 946 1272 996 1271 1041 1269 c 1
 1035 1146 l 1
 1035 1024 l 1
 980 1027 920 1028 863 1028 c 0
 763 1028 672 1025 629 1025 c 0
 555 1025 453 1025 354 1024 c 1
 428 944 478 857 503 738 c 1
 472 620 411 528 335 443 c 1
 402 443 467 444 512 444 c 0
 551 444 590 444 631 444 c 0
 699 444 800 447 900 447 c 0
 950 447 1000 446 1045 444 c 1
EndSplineSet
Validated: 1
EndChar

StartChar: guilsinglleft
Encoding: 8249 8249 554
Width: 1100
VWidth: 6
Flags: W
VStem: 237 532
LayerCount: 2
Fore
SplineSet
237 576 m 1
 381 706 518 867 541 1007 c 1
 769 936 l 1
 729 747 593 624 468 515 c 1
 596 397 706 278 751 106 c 1
 533 19 l 1
 495 168 395 320 237 461 c 1
 237 576 l 1
EndSplineSet
Validated: 1
EndChar

StartChar: guilsinglright
Encoding: 8250 8250 555
Width: 1100
VWidth: 6
Flags: W
VStem: 304 532
LayerCount: 2
Fore
SplineSet
836 454 m 1
 692 324 555 163 532 23 c 1
 304 94 l 1
 344 283 480 406 605 515 c 1
 477 633 367 752 322 924 c 1
 540 1011 l 1
 578 862 678 710 836 569 c 1
 836 454 l 1
EndSplineSet
Validated: 1
EndChar

StartChar: uni203D
Encoding: 8253 8253 557
Width: 1100
VWidth: 0
Flags: W
HStem: 0 270<370 720>
VStem: 53 259<862.261 1081.25> 370 350<0 270> 403 272<431 618.883> 422 240<431.688 599.625 854 1115.55> 793 251<915.241 1082.86>
LayerCount: 2
Fore
SplineSet
671 1133 m 1xcc
 665 1051 662 970 662 889 c 0
 662 877 662 866 662 854 c 1
 731 895 793 934 793 994 c 0
 793 1056 739 1107 671 1133 c 1xcc
393 1326 m 1
 391 1343 389 1359 387 1376 c 1
 702 1376 l 1
 699 1361 696 1347 694 1332 c 1
 890 1294 1044 1175 1044 991 c 0
 1044 821 874 743 785 685 c 0
 723 644 675 567 675 479 c 2
 675 430 l 1
 403 431 l 1
 403 475 l 2xd4
 403 504 406 532 413 559 c 1
 419 651 422 742 422 834 c 0
 422 929 419 1025 412 1120 c 1
 357 1094 313 1053 312 995 c 0
 312 956 337 918 358 892 c 1
 140 743 l 1
 94 807 53 876 53 967 c 0
 53 1166 214 1283 393 1326 c 1
370 270 m 1xe4
 720 270 l 1
 720 0 l 1
 370 0 l 1
 370 270 l 1xe4
EndSplineSet
Validated: 1
EndChar

StartChar: uni2047
Encoding: 8263 8263 558
Width: 1100
VWidth: 0
Flags: W
HStem: 0 270<112 464 556 908> 1153 192<218.138 378.211 665.627 826.88>
VStem: 112 352<0 270> 147 272<431 666.875> 401 251<881.117 1110.22> 556 352<0 270> 595 272<431 666.875> 849 251<881.117 1134.88>
LayerCount: 2
Fore
SplineSet
-15 1221 m 1xc8
 72 1309 196 1345 299 1345 c 0
 397 1345 472 1326 527 1290 c 1
 598 1328 677 1345 747 1345 c 0
 1004 1345 1100 1217 1100 991 c 0xc9
 1100 821 1015 755 928 685 c 0
 870 638 867 567 867 479 c 2
 867 430 l 1
 595 431 l 1
 595 475 l 2xc2
 595 621 644 734 713 795 c 0
 795 868 849 907 849 994 c 0
 849 1086 824 1153 757 1153 c 0
 720 1153 682 1128 645 1089 c 1
 650 1059 652 1026 652 991 c 0xc9
 652 821 567 755 480 685 c 0
 422 638 419 567 419 479 c 2
 419 430 l 1
 147 431 l 1
 147 475 l 2xd0
 147 621 196 734 265 795 c 0
 347 868 401 907 401 994 c 0
 401 1086 376 1153 309 1153 c 0
 245 1153 176 1077 120 985 c 1
 -15 1221 l 1xc8
112 270 m 1xe0
 464 270 l 1
 464 0 l 1
 112 0 l 1
 112 270 l 1xe0
556 270 m 1xc4
 908 270 l 1
 908 0 l 1
 556 0 l 1
 556 270 l 1xc4
EndSplineSet
Validated: 1
EndChar

StartChar: uni2048
Encoding: 8264 8264 559
Width: 1100
VWidth: 0
Flags: W
HStem: 0 270<112 464 689 1039> 1153 192<218.138 378.88>
VStem: 112 352<0 270> 147 272<431 666.875> 401 251<881.117 1134.88> 689 350<0 270> 706 315<558.848 1376> 722 283<464 1280.94>
LayerCount: 2
Fore
SplineSet
-15 1221 m 1xc8
 72 1309 196 1345 299 1345 c 0
 556 1345 652 1217 652 991 c 0xc8
 652 821 567 755 480 685 c 0
 422 638 419 567 419 479 c 2
 419 430 l 1
 147 431 l 1
 147 475 l 2xd0
 147 621 196 734 265 795 c 0
 347 868 401 907 401 994 c 0
 401 1086 376 1153 309 1153 c 0
 245 1153 176 1077 120 985 c 1
 -15 1221 l 1xc8
112 270 m 1xe0
 464 270 l 1
 464 0 l 1
 112 0 l 1
 112 270 l 1xe0
689 270 m 1xc4
 1039 270 l 1
 1039 0 l 1
 689 0 l 1
 689 270 l 1xc4
1021 1376 m 1xc2
 1005 464 l 1
 722 462 l 1xc1
 706 1376 l 1
 1021 1376 l 1xc2
EndSplineSet
Validated: 1
EndChar

StartChar: uni2049
Encoding: 8265 8265 560
Width: 1100
VWidth: 0
Flags: W
HStem: 0 270<75 425 544 896> 1153 192<650.138 810.88>
VStem: 75 350<0 270> 92 315<558.848 1376> 108 283<464 1280.94> 544 352<0 270> 579 272<431 666.875> 833 251<881.117 1134.88>
LayerCount: 2
Fore
SplineSet
417 1221 m 1xc1
 504 1309 628 1345 731 1345 c 0
 988 1345 1084 1217 1084 991 c 0xc1
 1084 821 999 755 912 685 c 0
 854 638 851 567 851 479 c 2
 851 430 l 1
 579 431 l 1
 579 475 l 2xc2
 579 621 628 734 697 795 c 0
 779 868 833 907 833 994 c 0
 833 1086 808 1153 741 1153 c 0
 677 1153 608 1077 552 985 c 1
 417 1221 l 1xc1
544 270 m 1xc4
 896 270 l 1
 896 0 l 1
 544 0 l 1
 544 270 l 1xc4
75 270 m 1xe0
 425 270 l 1
 425 0 l 1
 75 0 l 1
 75 270 l 1xe0
407 1376 m 1xd0
 391 464 l 1
 108 462 l 1xc8
 92 1376 l 1
 407 1376 l 1xd0
EndSplineSet
Validated: 1
EndChar
